<?xml version="1.0" standalone="no"?>
<!DOCTYPE svg PUBLIC "-//W3C//DTD SVG 1.1//EN" "http://www.w3.org/Graphics/SVG/1.1/DTD/svg11.dtd" >
<svg xmlns="http://www.w3.org/2000/svg" xmlns:xlink="http://www.w3.org/1999/xlink" version="1.1">
<metadata>
Created by FontForge 20161003 at Wed Jan 23 17:29:45 2019
 By www-data
Donationware through PayPal: turoturom@yahoo.es
</metadata>
<defs>
<font id="OzsWizardScarecrow" horiz-adv-x="500" >
  <font-face 
    font-family="OzsWizardScarecrow"
    font-weight="400"
    font-stretch="normal"
    units-per-em="1000"
    panose-1="0 0 0 0 0 0 0 0 0 0"
    ascent="683"
    descent="-317"
    x-height="504.5"
    cap-height="675"
    bbox="-410 -408 3821.13 901.5"
    underline-thickness="50"
    underline-position="-150"
    unicode-range="U+000D-2206"
  />
<missing-glyph 
 />
    <glyph glyph-name=".notdef" 
 />
    <glyph glyph-name=".null" horiz-adv-x="0" 
 />
    <glyph glyph-name="nonmarkingreturn" unicode="&#xd;" 
 />
    <glyph glyph-name="NULL" horiz-adv-x="0" 
 />
    <glyph glyph-name="NULL" horiz-adv-x="0" 
 />
    <glyph glyph-name="space" unicode=" " horiz-adv-x="346" 
 />
    <glyph glyph-name="exclam" unicode="!" horiz-adv-x="160" 
d="M70 716q32 0 47.5 -15t19.5 -42t-1 -63.5t-13 -78.5q-9 -45 -16 -78.5t-12.5 -71t-8 -86.5t-2.5 -125q0 -8 -6.5 -13t-14.5 -6.5t-15 3t-7 16.5q-2 61 -3.5 104.5t-4 75t-5 54t-5.5 42t-7 39t-9 44.5q-7 36 -10 72t2.5 64.5t22 46.5t48.5 18zM62 -12q-25 0 -40.5 16.5
t-15.5 39.5q0 19 15 36t41 17t41.5 -14.5t15.5 -40.5q0 -8 -2.5 -17.5t-9 -17.5t-17.5 -13.5t-28 -5.5z" />
    <glyph glyph-name="quotedbl" unicode="&#x22;" horiz-adv-x="258" 
d="M54 756q26 0 44 -14.5t14 -49.5q-2 -16 -6.5 -27t-9 -20t-9 -17.5t-6.5 -19.5q-4 -19 -11 -25t-14 -4t-11.5 10.5t-3.5 19.5q1 10 -4.5 20t-13 20.5t-13.5 21t-6 21.5q-1 22 11.5 43t38.5 21zM196 757q10 0 21 -5t19 -14t11.5 -22.5t-2.5 -29.5q-7 -20 -13.5 -33.5
t-11.5 -23t-7.5 -17t-1.5 -16.5q0 -10 -5.5 -14.5t-12.5 -4t-12.5 5.5t-6.5 16q-2 23 -5.5 33.5t-7.5 16.5t-8.5 12t-10.5 20q-6 16 -4 30t10.5 24.5t21 16.5t26.5 5z" />
    <glyph glyph-name="numbersign" unicode="#" horiz-adv-x="3073" 
d="M3010 119q-8 -18 -26.5 -43.5t-49 -49.5t-73 -40.5t-98.5 -16.5q-16 0 -44.5 0.5t-63 6.5t-70.5 20t-66.5 41t-51.5 70.5t-25 107.5t13.5 110.5t47 79t66 52t71 30.5t62.5 15t40 4q56 0 97.5 -13.5t72.5 -35.5t53 -50t39 -57q34 -58 30.5 -83t-26.5 -25h-328
q-31 0 -51.5 0.5t-33 0t-18 -3t-5.5 -7.5q-3 -30 9 -65.5t36 -66t57.5 -52.5t73.5 -25q79 -6 130.5 17t72.5 83q8 22 21 30t23.5 6t16 -13t-1.5 -27zM2437 20q7 0 5.5 -8.5t-13 -18.5t-32.5 -17.5t-52 -5.5q-51 3 -91.5 26.5t-75 63t-64.5 93.5t-60 119q-28 60 -47.5 98
t-40.5 58.5t-49.5 26t-74.5 0.5v-76t-0.5 -82.5t-0.5 -81t0.5 -71.5t0.5 -54.5t1 -30.5q1 -17 4 -24t6 -10t5.5 -5t4.5 -9q4 -14 -12 -17.5t-36 -0.5q-10 1 -26 1.5t-34 0t-35 -1.5t-27 -2q-11 -2 -16 0.5t-6.5 7t-1.5 10v10.5q0 4 5.5 6t11.5 3.5t11.5 4t5.5 8.5v482
q0 16 2 34.5t2 35t-5 27.5t-18 11h-230v-543q0 -44 28 -63q7 -5 8 -11.5t-2.5 -11.5t-10 -8.5t-13.5 -3.5t-18.5 1t-23.5 2t-23.5 2.5t-18.5 2.5q-8 0 -21 0.5t-27 0.5h-27t-20 -1t-11 3t-5 10t2 12t11 9q15 5 19 13.5t4 31.5v554h-156q-45 0 -71 -9.5t-51 -36.5
q-13 -14 -25.5 -20.5t-21.5 -7.5t-13.5 3t-1.5 11q5 14 18.5 28t25.5 32q6 9 12 21.5t12 24t12 20t12 8.5q7 1 12 -4t8.5 -12t7 -12.5t8.5 -5.5h237q111 0 190 1.5t133 4t86.5 4.5t51.5 3t28 0t16 -5q10 -7 12.5 -21.5t1.5 -31t-3.5 -32.5t-2.5 -25v-64q23 1 49.5 1.5
t51.5 -1t46.5 -4.5t34.5 -8q60 -24 96 -61t60.5 -79.5t43.5 -86t46 -79.5q27 -37 53.5 -67.5t49 -52.5t39 -34.5t24.5 -12.5zM1091 410q7 8 14.5 4t7 -13.5t-13.5 -21.5t-46 -19q-42 -9 -102.5 5t-127.5 39t-133.5 54.5t-120.5 50.5q-52 21 -105.5 29t-101 4.5t-85.5 -17.5
t-59 -37t-25 -46t2 -41t18 -29.5t23 -11.5q23 0 19 -17t-37 -29q-11 -4 -30.5 -8t-43 -4.5t-47 4t-43 17.5t-32 36.5t-12.5 60.5q0 55 30.5 98t75 72.5t94.5 45t90 15.5q80 1 156 -18.5t145.5 -49.5t131.5 -66t115 -69q51 -32 92.5 -45t72.5 -14t51 6t27 15zM2911 304
q10 0 9.5 18t-10.5 41.5t-26.5 46.5t-37.5 33q-24 12 -51.5 18.5t-55.5 5t-55.5 -12.5t-51.5 -35q-23 -23 -35.5 -45t-17.5 -39t-3 -27.5t8 -10.5q5 0 29 0.5t58 1.5t73 1.5t73.5 1.5t60.5 1.5t33 0.5z" />
    <glyph glyph-name="dollar" unicode="$" horiz-adv-x="355" 
d="M164 510q-8 -2 -18.5 -12t-16.5 -21t-11.5 -12t-13.5 4q-9 5 -16 6t-13 3q-3 1 -3 5t0.5 8.5t0.5 8.5t-3 5q-6 3 -5 13t8 16q4 3 7.5 9.5t7 13.5t7 13t7.5 7q8 3 12.5 -4t8.5 -21q2 -7 9 -12t15.5 -8.5t16.5 -5t11 -1.5q6 0 3 -6.5t-14 -8.5zM183 493q7 0 27 0.5
t41.5 1.5t39.5 2.5t22 3.5q8 3 9 10.5t9 6.5q6 -1 10.5 -7t4.5 -13t-6 -14t-21 -10q-14 -3 -34.5 -4t-40.5 -1.5t-37.5 0t-26.5 0.5q-8 -1 -13 2t-5 7.5t5 9t16 5.5zM54 466q8 0 12.5 -5t4.5 -11t-4 -11.5t-13 -6.5t-12 4t-2 12t5 12.5t9 5.5zM78 326q11 1 20.5 -1t11.5 -14
q1 -6 -2 -9.5t-8 -5t-11 -2.5t-12 -3q-11 -4 -16.5 -8t-14.5 -4q-8 0 -11 12t-3 29q0 16 2 28.5t16 10.5q7 -1 10.5 -6.5t5.5 -11.5t4.5 -10.5t7.5 -4.5zM104 400q0 -14 7.5 -5.5t10.5 21.5q3 12 10.5 12t12.5 -7q2 -3 3 -11.5t1 -18t-1 -19.5t-2 -17t1 -8.5t5 1.5t6.5 10
t4.5 17q1 11 6.5 15.5t16.5 -9.5q5 -7 11 -14.5t9.5 -15.5t3.5 -16t-6 -15q-6 -8 -22.5 -24t-37 -37.5t-42 -47t-37.5 -50.5q-16 -26 -21.5 -51t-1.5 -46t16 -34.5t32 -15.5t33.5 5.5t21.5 19.5t12 25.5t6 23.5q1 11 -5.5 18.5t-16 9.5t-20.5 -1.5t-18 -13.5
q-15 -21 -7.5 -27t17.5 0q5 3 10 5.5t8 1.5t2.5 -5.5t-6.5 -15.5t-15 -13.5t-17 1t-15 12t-8 19.5q-2 13 4 25t14.5 21t18.5 15t18 7q18 2 34.5 -9.5t21.5 -50.5q3 -20 -5 -38t-21.5 -31t-29 -20.5t-26.5 -7.5t-25 3.5t-26 13.5t-20 28t-8 47q0 28 12 58t28.5 56t33 45.5
t26.5 28.5q20 18 24 25t-1 14q-3 3 -4.5 8t-3 9.5t-5 7.5t-12.5 2q-10 -2 -13 1t-4 16q-2 13 -3 22t-8 9t-13 3.5t-7 19.5q-1 15 7.5 24t16.5 6q4 -1 6 -5.5t2.5 -10.5t0 -12t-0.5 -9z" />
    <glyph glyph-name="percent" unicode="%" horiz-adv-x="1023" 
d="M546 494q19 9 38.5 14.5t36.5 7.5t31.5 2.5t23.5 0.5q28 0 64 -6t73 -20.5t72 -39t61.5 -61t41 -86t10.5 -114.5q-5 -71 -37.5 -114t-78.5 -66.5t-97.5 -31.5t-93.5 -8q-16 0 -35 2.5t-40 8.5t-42 16.5t-40 26.5q-3 2 0 6.5t9 10.5l13 13t13 14q5 7 10 17.5t8.5 20.5
t6.5 16t5 4q49 -30 100.5 -45t96 -15t77.5 15.5t46 45.5q15 35 7.5 69t-28.5 64t-50.5 54t-59.5 41q-29 16 -60.5 29t-61 22.5t-52.5 14.5t-35 4q-3 0 -6.5 -0.5t-6.5 0.5q-2 0 -6.5 10t-8.5 22t-6 22.5t1 12.5zM448 100q-35 35 -52.5 83.5t-13.5 105.5q0 13 3 27
q-3 -3 3 -3.5t15 -1t16.5 -2t6.5 -5.5q-1 -30 10 -57t31 -43q11 -8 20.5 -16t20.5 -15q3 -2 -4.5 -15t-19 -27t-22.5 -24t-14 -7zM220 444q52 1 100 -20.5t87.5 -51.5t67 -61.5t38.5 -50.5q10 -18 14 -45.5t-1 -54.5t-20 -48t-43 -27q-46 -9 -89.5 -4t-83 19.5t-73 37
t-59.5 48.5t-44 53.5t-26 52.5q-11 36 0 64t33.5 47.5t50 29.5t48.5 11zM307 511q-19 1 -48 -3t-61.5 -15.5t-64.5 -30.5t-58 -47.5t-42.5 -67.5t-16.5 -90q0 -77 26.5 -128t67.5 -82.5t91.5 -44.5t98.5 -13t101 12.5t97.5 42t73.5 78.5t29 123t-28 123.5t-71 80.5t-95 45
t-100 17z" />
    <glyph glyph-name="ampersand" unicode="&#x26;" horiz-adv-x="806" 
d="M492 603q1 21 -12 35.5t-45 7.5q-20 -4 -33 -20.5t-16 -36.5q26 2 52.5 3t52.5 -1q1 1 1 12zM386 568q0 -9 5 -22q6 -16 19 -21.5t27.5 -1.5t28 16t20.5 32q-55 1 -100 -3zM757 385q-23 -5 -38.5 5.5t-13.5 27.5t10.5 23t15.5 6q3 0 -5 17t-29.5 38t-56.5 40.5t-86 24.5
q-6 -15 -14.5 -29.5t-20.5 -25.5q-15 -15 -36 -23q60 -7 111 -36t84 -83q24 -39 32.5 -83.5t1.5 -88t-30 -82t-63 -65.5q-45 -30 -99 -44.5t-105 -16.5q-29 -1 -66 0.5t-76.5 8.5t-78.5 22t-73 41q-48 37 -76.5 82.5t-37.5 94.5t0 97.5t35.5 91.5t70.5 77t105 53q29 9 60 15
t65 11q4 28 22 48.5t43 32.5t54 16t56 0q31 -5 40 -33t1 -63q42 -6 76 -18q21 -7 48 -22t50.5 -35.5t38.5 -44t12 -47.5q-2 -14 -9.5 -22.5t-17.5 -10.5zM342 563q-42 -6 -76 -16t-67 -25q-62 -28 -100 -72t-50 -96t1.5 -107.5t55.5 -104.5q43 -51 107.5 -73.5t136.5 -22.5
q54 0 107 9.5t95.5 33.5t70 65t29.5 103q1 28 -4.5 56.5t-16 53.5t-26.5 44.5t-36 30.5q-63 35 -112.5 26t-103.5 -57q-28 -25 -37 -62t-1.5 -71.5t30.5 -58.5t60 -22q28 1 43.5 14t23 28.5t8 28t-2.5 12.5q-6 0 -19.5 4t-23.5 18q-5 7 -5 16t4.5 16.5t13.5 12.5t21 5
q13 0 24 -7t16.5 -22t4 -37.5t-14.5 -52.5q-8 -20 -28.5 -36.5t-47 -27.5t-57 -15t-59.5 1.5t-53.5 21t-39.5 44.5q-22 42 -16 84.5t33 79.5t70.5 64t96.5 37q-32 8 -43.5 29t-11.5 48z" />
    <glyph glyph-name="quotesingle" unicode="'" horiz-adv-x="152" 
d="M66 757q10 0 21 -5t19 -14t11.5 -22.5t-2.5 -29.5q-7 -20 -13.5 -33.5t-11.5 -23t-7.5 -17t-1.5 -16.5q0 -10 -5.5 -14.5t-12.5 -4t-12.5 5.5t-6.5 16q-2 23 -5.5 33.5t-7.5 16.5t-8.5 12t-10.5 20q-6 16 -4 30t10.5 24.5t21 16.5t26.5 5z" />
    <glyph glyph-name="parenleft" unicode="(" horiz-adv-x="352" 
d="M277 794q4 4 9.5 4t10 -2.5t5.5 -8t-5 -13.5q-12 -16 -34.5 -59.5t-45 -101t-39.5 -122t-17 -121.5q-1 -83 14.5 -158t37 -135.5t45 -102t39.5 -57.5q3 -3 1.5 -9.5t-5 -12.5t-8 -9t-8.5 2q-36 43 -73.5 87t-68 99.5t-50 126.5t-18.5 169q0 52 14.5 103t36.5 96.5
t48 84.5t49 68.5t40 48t22 23.5z" />
    <glyph glyph-name="parenright" unicode=")" horiz-adv-x="352" 
d="M100 794q4 -5 20.5 -23.5t38.5 -48t46 -68t44.5 -84t34 -96t13.5 -104.5q0 -97 -17 -169t-44.5 -128t-63 -100t-72.5 -85q-4 -5 -8.5 -2t-7.5 9t-4.5 12.5t0.5 9.5q16 17 35.5 58.5t36.5 101.5t28 134.5t10 158.5q0 57 -13 121.5t-30.5 122t-36 101t-30.5 59.5
q-6 8 -5 13.5t5.5 8t10 2.5t9.5 -4z" />
    <glyph glyph-name="asterisk" unicode="*" horiz-adv-x="219" 
d="M130 597q13 4 19 11.5t11 12.5q6 6 18 8.5t18 -7.5q3 -6 0 -11.5t-8 -9.5t-10 -6.5t-6 -3.5q-14 -6 -24 -5t-15 -3q-4 -2 -5.5 -6.5t14.5 -11.5q11 -5 21 -8t18 -5t16.5 -7.5t4.5 -14.5q-4 -11 -14 -10.5t-20 5.5t-18.5 14t-15.5 12q-7 4 -12.5 2.5t-4.5 -9.5t7 -21
t6 -23q-1 -11 -3 -17.5t-11 -7.5q-10 -2 -16.5 5.5t-4.5 19.5t5.5 24t3.5 17q-1 5 -6 9.5t-11 1.5q-5 -3 -14.5 -15.5t-20.5 -18.5t-19.5 -3t-11.5 9q-3 4 0 11t14 12q8 4 24.5 8t21.5 8q5 3 7 10t-7 9q-9 3 -25 6.5t-23 6.5t-10 11t0 13t10.5 7t19.5 -6q11 -8 19.5 -18
t14.5 -12q5 -2 10 1.5t3 11.5q-1 9 -4.5 24t-4.5 23q0 19 14 19q7 1 13 -4.5t4 -16.5t-5 -24t-2 -18t2.5 -8.5t12.5 -0.5z" />
    <glyph glyph-name="plus" unicode="+" horiz-adv-x="350" 
d="M47 211q-11 1 -17 3t-6 16v22q0 13 1 14q1 5 2.5 9.5t6.5 4.5h93v63q0 9 -1.5 17t-1.5 14t2 10t9 4h51q14 0 14 -8.5v-20.5v-79h95q5 0 13 -8t7 -25q0 -17 1.5 -21t-1.5 -12q-1 -2 -11 -3.5t-26 -2.5t-36 -1h-42v-66q0 -6 1 -13.5t2 -13.5t0.5 -10.5t-4.5 -4.5
q-8 0 -18 1t-18 1q-9 0 -14.5 -1t-15.5 0q-10 2 -8 14.5t2 26.5v67l-57 2h-12t-11 1z" />
    <glyph glyph-name="comma" unicode="," horiz-adv-x="153" 
d="M67 120q26 0 45 -20t19 -52q0 -17 -5 -31t-12.5 -26t-16 -23t-15.5 -20t-13.5 -9t-10 5.5t-4 14.5t4.5 18q6 9 1 16t-14.5 15t-20 19t-15.5 29q-3 10 0.5 21.5t12 21t20 15.5t24.5 6z" />
    <glyph glyph-name="hyphen" unicode="-" horiz-adv-x="350" 
d="M25 260q0 14 8.5 14h20.5h218q6 0 13.5 1t13.5 2t10.5 0.5t4.5 -4.5q0 -8 -1 -18t-1 -18q0 -9 1 -14.5t0 -15.5q-2 -10 -14.5 -8t-26.5 2h-202q-9 0 -17 -1.5t-14 -1.5t-10 2t-4 9v51z" />
    <glyph glyph-name="period" unicode="." horiz-adv-x="153" 
d="M68 120q19 0 31.5 -7.5t19 -18t9 -21.5t2.5 -18q0 -8 -2 -18t-8 -19.5t-18.5 -16t-33.5 -6.5q-23 0 -36 8.5t-19 19t-7.5 21t-1.5 14.5t2 14.5t8.5 21t19.5 18.5t34 8z" />
    <glyph glyph-name="slash" unicode="/" horiz-adv-x="399" 
d="M352 787h12.5t8 0.5t7.5 0.5h11q14 0 18.5 -4.5t-2.5 -22.5q-17 -47 -38.5 -109t-46 -131.5t-50 -143.5t-50 -144t-47 -132t-40.5 -109t-30.5 -74t-17.5 -27h-16.5t-5.5 -0.5t-6 -0.5h-16q-5 0 -0.5 23.5t16 63.5t28 92t36 108.5t39.5 114.5t38 109q24 69 49.5 138
t47.5 124t37 89.5t18 34.5z" />
    <glyph glyph-name="zero" unicode="0" horiz-adv-x="662" 
d="M329 634q-35 0 -66.5 -15.5t-55 -50t-37.5 -90.5t-14 -136t11.5 -135t32.5 -89.5t52 -50t70 -15.5q40 0 74 14.5t59 46.5t39 84.5t14 128.5q0 306 -179 308zM329 684q27 1 61.5 -4.5t70.5 -20t70 -39t61 -61t43 -86t16 -114.5q-1 -107 -36 -178t-85.5 -113.5t-107.5 -60
t-101 -16.5q-28 0 -61.5 6t-67.5 20t-66 37.5t-57 59t-40.5 84t-16.5 113.5q-2 100 29 170t78.5 114.5t104 65.5t105.5 23z" />
    <glyph glyph-name="one" unicode="1" horiz-adv-x="544" 
d="M351 682q18 -2 24 -14.5t6 -24.5q0 -4 -1 -37t-2 -81.5t-2.5 -106t-2.5 -111t-1 -96.5t1 -62q1 -29 4 -44t9 -23t16.5 -11.5t26.5 -9.5t31.5 -7t28.5 -1.5t22 -2t12 -8.5q6 -14 -5 -26t-24 -14q-6 -1 -28.5 -1t-53 0.5t-66.5 0.5t-69 -1q-69 -2 -119 -0.5t-79 -0.5
q-15 -1 -21.5 3t-6.5 9t5.5 10.5t14.5 7.5q12 1 33 7.5t41.5 16.5t36 23t16.5 28v29t-1 63t-1.5 80t-1.5 81t-1.5 65.5t-0.5 33.5q0 18 -8.5 19t-34.5 -9q-13 -5 -33 -12t-39.5 -12.5t-35 -8t-18.5 0.5q-4 4 -6.5 8.5t0 9t11 9t25.5 8.5t46.5 21.5t61.5 40t62 46.5t49 42
t30 30.5t18.5 20t14 10t16.5 1.5z" />
    <glyph glyph-name="two" unicode="2" horiz-adv-x="609" 
d="M336 662q61 1 106.5 -12.5t76.5 -34t48.5 -44.5t22.5 -45q10 -42 -7 -93.5t-65 -96.5q-31 -29 -68 -57.5t-71.5 -54t-63 -46t-42.5 -32.5t-25.5 -21t-18.5 -15t-7.5 -8t7.5 0q27 7 56 6t58.5 -5t59 -9.5t58.5 -6.5q28 -2 42.5 7.5t22 22.5t10.5 26.5t8 20.5t14.5 2
t15 -20t3 -38t-22.5 -52t-61.5 -43.5t-87 -19.5t-86 -3.5t-59.5 3.5q-18 2 -40.5 6t-44 7.5t-40 5t-28.5 -1.5t-22.5 -5.5t-23.5 -2t-19 5t-9 16.5q-2 10 14.5 22.5t41.5 26.5t54 29.5t52 32.5q16 11 40.5 30.5t52.5 44t56.5 53t51.5 59t37.5 61t15.5 59.5q1 55 -12 88.5
t-35 51.5t-50.5 24t-57.5 6q-28 0 -55 -11.5t-48 -29.5t-34 -40.5t-13 -44.5t4 -34t10 -17.5t13 -6.5t14 -1t8 -7t-2.5 -16.5t-11 -19t-17.5 -14.5q-11 -5 -35 -10.5t-48.5 -0.5t-44 27t-19.5 71q-1 49 26.5 87t72.5 64t103 39.5t119 14.5z" />
    <glyph glyph-name="three" unicode="3" horiz-adv-x="678" 
d="M346 684q49 0 100 -10t92 -28.5t67 -45t26 -59.5q0 -62 -28.5 -97t-70.5 -53q-15 -7 -27 -10.5t-1 -4.5q6 0 30 -7.5t51 -24t48.5 -44t21.5 -67.5q1 -54 -29.5 -98.5t-77.5 -76t-103 -49t-107 -17.5t-101 7t-92.5 21.5t-74 37t-46.5 54.5q-12 25 -10 48.5t14.5 42.5
t34 31.5t48.5 17.5q27 4 43 1t23.5 -9t7 -12.5t-7.5 -8.5q-14 -4 -23.5 -17t-9.5 -49q0 -18 14 -38.5t39.5 -37.5t61 -28t77.5 -10q85 2 130 44t45 127q0 43 -13 71t-31 43t-38 18.5t-34 -0.5q-14 -5 -31 -6t-33 0t-29 4.5t-18 8.5t-7.5 11.5t2 11.5t17 8t37.5 2q25 -2 48 9
t41 29t29 40t12 43q0 20 -7.5 42.5t-25 41.5t-44 31.5t-63.5 12.5q-57 0 -91.5 -19t-47.5 -46q-9 -19 -9 -34t5 -25.5t13 -16.5t15 -7q14 -2 10.5 -17t-21.5 -26q-9 -5 -31 -8t-44.5 2.5t-40 23.5t-17.5 54q0 37 25 67.5t65.5 53t91 35t100.5 12.5z" />
    <glyph glyph-name="four" unicode="4" horiz-adv-x="735" 
d="M409 553q-81 -78 -128.5 -124.5t-74.5 -72.5l-43 -41q-25 -23 -29.5 -37t10.5 -4q7 5 26.5 9.5t45 7.5t54 4t54.5 0q19 -1 38.5 -3.5t40.5 -5.5zM545 574q0 -32 -1 -70.5t-2 -79.5t-2 -82.5t-1 -78.5q17 -2 31 -4t25 -3q48 -3 67 4.5t17 14.5t1 18.5t20 11.5q9 0 16 -7.5
t7 -19t-10.5 -24.5t-36.5 -25q-21 -9 -37 -15.5t-31 -10t-31 -5t-38 -1.5v-73q0 -18 -0.5 -29.5t1 -19t6 -12t15.5 -7.5q22 -8 42.5 -11.5t34.5 -1.5t17 -4t-15 -17q-9 -6 -14.5 -10t-18 -6t-36 -3t-68.5 -1h-76h-51.5t-33 -0.5t-19.5 -1.5q-8 -1 -13.5 2.5t-7 9t1.5 10.5
t13 6q20 2 32 12.5t23 18.5l8 6l9 4.5t10 4.5l2 126q-35 1 -73.5 2t-75 1t-68.5 -0.5t-53 -1.5q-29 -2 -44.5 -4.5t-24 -3.5t-13.5 0.5t-13 7.5q-16 11 -19 25t11 16q5 1 27.5 20.5t55 49t71 66t75 72t67 65t47.5 46.5q51 51 82 77.5t42 36.5q5 4 13.5 7t16.5 1.5t13.5 -9.5
t5.5 -24v-26q0 -11 0.5 -24.5t0.5 -25.5z" />
    <glyph glyph-name="five" unicode="5" horiz-adv-x="639" 
d="M329 660q38 0 68.5 -2t50.5 -4l41 -5q22 -5 33 -3.5t17 5.5t9 9.5t9 9.5t16.5 1t14 -13.5t-5.5 -30t-43 -47.5q-34 -29 -81.5 -41.5t-94.5 -15.5t-88 0t-63 6q-25 3 -45 5.5t-34 4.5q1 -27 2.5 -55.5t3 -53t2.5 -41.5t1 -21q0 -15 0.5 -20t7.5 0q3 3 19 9t41.5 12
t59 10.5t71.5 4.5t83.5 -8t84.5 -28.5t65.5 -54t26.5 -84.5t-28 -90.5t-71.5 -66.5t-97 -41.5t-104.5 -14.5q-58 0 -107.5 5t-86 19.5t-57 40.5t-20.5 67q0 36 13 59.5t31.5 37t39 18.5t35.5 3t27 -9t18.5 -15.5t6 -16t-10.5 -10.5q-43 -14 -38 -62q1 -13 11.5 -29
t30.5 -29.5t49 -22.5t67 -7q72 3 111 38.5t45 95.5q3 27 -5 56.5t-28 53.5t-53 40t-79 16q-35 0 -61.5 -5t-45.5 -12t-32 -15.5t-20 -14.5q-14 -12 -27 -12.5t-11 14.5q0 5 -0.5 31t-2 63t-2.5 79t-2.5 78.5t-2 62.5t-0.5 30q-1 6 5 8t14 0t14 -7t5 -13q0 -4 -0.5 -10.5
t0.5 -16.5q2 2 5.5 4t7.5 5q12 10 32 18.5t44.5 14.5t52.5 9.5t56 3.5z" />
    <glyph glyph-name="six" unicode="6" horiz-adv-x="620" 
d="M377 673q74 -7 117.5 -33.5t60.5 -58.5t10 -64.5t-34 -51.5q-12 -9 -27.5 -10t-29.5 2t-24 9t-12 11q-2 6 2 10t10 9.5t11 14t5 23.5q0 14 -8.5 30.5t-23 31t-34 24t-41.5 9.5t-51.5 -15t-56 -51.5t-45 -97t-18.5 -150.5q0 -91 17.5 -143.5t43.5 -79t57.5 -33.5t58.5 -6
q27 0 49.5 12t38.5 32t25 46t9 55q0 37 -10.5 65.5t-28 47t-39.5 28t-45 9.5q-18 0 -36.5 -6.5t-34 -16.5t-27 -21.5t-16.5 -21.5q-9 -20 -9.5 -34.5t-5.5 -15.5q-2 -1 -7 -1.5t-9.5 1.5t-7.5 8.5t-2 18.5q3 35 22 62.5t48 46t65 28t73 8.5q75 -2 121.5 -42.5t50.5 -131.5
q2 -45 -20 -87.5t-58.5 -75t-84.5 -51t-97 -15.5q-36 2 -86.5 19t-97 53.5t-80.5 95t-37 144.5q-3 81 27.5 149.5t81 117.5t114 74t126.5 19z" />
    <glyph glyph-name="seven" unicode="7" horiz-adv-x="579" 
d="M295 653q34 0 76 -3t88 -3q22 0 36 2t22.5 4t12 4t5.5 2q2 1 7.5 -1t11 -5.5t8.5 -8.5t0 -9q-3 -5 -21.5 -35.5t-43 -76t-50.5 -100t-44 -107.5q-18 -54 -28.5 -93t-16 -67t-5.5 -47t3 -32q7 -26 15 -37.5t23 -7.5q8 2 15.5 6t14.5 7.5t12.5 4t8.5 -3.5t1.5 -11t-7 -14.5
t-14 -13.5t-19.5 -7q-19 -2 -34 -1.5t-28 1.5t-25.5 2.5t-26.5 1.5t-28.5 -1.5t-28 -3t-24 -2.5t-16.5 1q-19 7 24 94q7 14 25.5 47.5t43 76.5t51 90.5t50.5 89.5l42 73.5t24 42.5q18 32 24.5 53.5t-1.5 14.5q-4 -3 -22 -13.5t-44.5 -22.5t-58.5 -21t-64 -9q-58 0 -91 6
t-51.5 13.5t-27.5 13.5t-18 6q-18 0 -27 -19.5t-7 -40.5q2 -22 1 -32.5t-21 -10.5q-10 0 -13.5 2.5t-3.5 7.5t2 13t3 19q0 12 0.5 33.5t0.5 44t-0.5 42t-1.5 28.5q-1 8 2.5 12t9 4.5t11.5 -1t10 -4.5t18 -4.5t32 -2t36 0t32 0.5q27 0 51.5 4t58.5 4z" />
    <glyph glyph-name="eight" unicode="8" horiz-adv-x="579" 
d="M190 308q-38 -31 -53 -64.5t-15 -70.5q1 -60 41.5 -98.5t121.5 -38.5q40 0 68 10.5t45.5 26.5t25.5 34t8 33t-5 34t-20.5 37.5t-43.5 35.5t-74 29q-26 7 -51 14.5t-48 17.5zM338 425q20 20 37 41t20 43q3 23 -1.5 48t-19.5 45t-41 32.5t-66 11.5q-32 -1 -55 -15
t-36.5 -34t-16 -44.5t6.5 -46.5q6 -13 19 -22.5t34.5 -18t51 -18t67.5 -22.5zM67 488q0 50 21.5 88t56 62.5t77.5 36.5t87 9q50 -3 83.5 -17.5t53.5 -34t28.5 -41.5t8.5 -42q0 -9 -3 -25.5t-13 -36.5t-28 -41.5t-48 -39.5q170 -65 170 -195q0 -34 -17 -75t-54 -75.5t-96 -55
t-143 -13.5q-60 5 -100 18.5t-65.5 31t-39 37.5t-19 39t-6 34.5t-0.5 23.5q0 10 5 29t19.5 41t39.5 44.5t65 40.5q-38 25 -60.5 62.5t-22.5 94.5z" />
    <glyph glyph-name="nine" unicode="9" horiz-adv-x="573" 
d="M397 527q-10 25 -21.5 45.5t-26 35t-33.5 21t-44 4.5q-30 -3 -54.5 -19.5t-41.5 -42t-26.5 -58.5t-9.5 -68q0 -72 30 -107.5t75 -37.5q22 -1 48.5 10.5t50.5 28t41 35t20 31.5q7 20 6.5 42t-3.5 40q-2 11 -4.5 20.5t-6.5 19.5zM277 684q49 2 100 -12t91.5 -49t65.5 -95
t22 -150q-3 -101 -26 -172.5t-59.5 -118t-84.5 -69.5t-102 -26q-88 -5 -149 12.5t-93 71.5q-18 31 -21 57.5t4.5 47t22.5 34t34 16.5q38 7 60 -3t24 -23q1 -6 -2.5 -11.5t-9.5 -11t-12.5 -12t-10.5 -15.5q-5 -9 -5 -29t12 -40.5t40.5 -36t80.5 -15.5q54 0 89 28t55.5 67
t28.5 81t8 71q0 28 -3.5 42.5t-8.5 19.5t-10.5 3t-8.5 -6q-3 -5 -14.5 -21.5t-33.5 -34.5t-55.5 -33.5t-80.5 -16.5q-41 -2 -76.5 9.5t-62.5 36t-42.5 63.5t-15.5 92q0 54 19.5 98.5t53 77.5t79 52t97.5 21z" />
    <glyph glyph-name="colon" unicode=":" horiz-adv-x="173" 
d="M56 327q39 0 55.5 -19.5t16.5 -39.5q0 -10 -4 -20.5t-12.5 -19.5t-20.5 -15t-28 -6q-17 0 -28.5 5.5t-19 13.5t-11 18t-3.5 18t2.5 19.5t9 21.5t17 17t26.5 7zM70 121q19 0 31.5 -7.5t19 -17.5t9 -21.5t2.5 -18.5q0 -8 -2 -18t-8 -19.5t-18.5 -16t-33.5 -6.5
q-23 0 -36 8.5t-19 19t-7.5 21t-1.5 14.5t2 14.5t8.5 21t19.5 18.5t34 8z" />
    <glyph glyph-name="semicolon" unicode=";" horiz-adv-x="173" 
d="M67 120q26 0 45 -20t19 -52q0 -17 -5 -31t-12.5 -26t-16 -23t-15.5 -20t-13.5 -9t-10 5.5t-4 14.5t4.5 18q6 9 1 16t-14.5 15t-20 19t-15.5 29q-3 10 0.5 21.5t12 21t20 15.5t24.5 6zM56 327q39 0 55.5 -19.5t16.5 -39.5q0 -10 -4 -20.5t-12.5 -19.5t-20.5 -15t-28 -6
q-17 0 -28.5 5.5t-19 13.5t-11 18t-3.5 18t2.5 19.5t9 21.5t17 17t26.5 7z" />
    <glyph glyph-name="less" unicode="&#x3c;" horiz-adv-x="1322" 
d="M1004 562q78 -3 127 -16t79.5 -30t46 -35t25.5 -30t11 -22.5t-5 -14.5t-18.5 -0.5t-29.5 18.5q-21 18 -61.5 25t-93 0.5t-113.5 -26.5t-124 -55q-30 -17 -83.5 -39.5t-120 -46t-139.5 -44.5t-141.5 -34t-127 -15.5t-95.5 11.5q-20 -13 -42 -15t-41 6t-32 25.5t-14 44.5
q-1 26 12 45t33 28.5t43 9.5t43 -12q20 -13 26 -31.5t5 -36.5q-1 -11 -2.5 -21.5t-5.5 -21.5q18 -2 40.5 -0.5t49.5 8.5q45 11 108 39t145 87q89 64 161.5 103.5t132.5 61.5t109.5 28.5t91.5 5.5z" />
    <glyph glyph-name="equal" unicode="=" horiz-adv-x="350" 
d="M49 157q-11 1 -17 3t-6 16v22q0 13 1 14q1 5 3 9.5t6 4.5h261q5 0 13 -7.5t7 -24.5q0 -17 1.5 -22t-1.5 -12q-1 -3 -13 -4.5t-31 -2t-43 -0.5h-49q-29 0 -62 1t-70 3zM21 275q0 9 -0.5 22.5t-0.5 27.5t8.5 14h21.5h218q6 0 13 1.5t13.5 2t11 0t4.5 -4.5q0 -8 -1 -17.5
t-1 -18.5t1 -14t-1 -16q-1 -10 -14 -8t-27 2h-202q-18 0 -31 -3t-13 12z" />
    <glyph glyph-name="greater" unicode="&#x3e;" horiz-adv-x="3720" 
d="M1266 438q93 15 212.5 32t256 33.5t285 31.5t300 25.5t300.5 15t285.5 1t256.5 -17t214 -39.5q91 -25 153 -54.5t97 -54t45 -40.5t-3 -14q-8 1 -63.5 4.5t-142 8.5t-196 10.5t-225 9.5t-229 6.5t-208.5 1.5t-222.5 -2t-270.5 -2.5t-294.5 -4t-295.5 -6.5t-273 -10
t-227 -14q-88 -8 -190 -15.5t-205 -14.5t-200 -13t-174.5 -11t-129.5 -7.5t-65 -2.5q-19 0 -32.5 2.5t-12.5 6.5t21.5 8.5t71.5 8.5q32 2 105.5 7.5t173 14t216.5 19t235.5 23t230 26t200.5 27.5z" />
    <glyph glyph-name="question" unicode="?" horiz-adv-x="385" 
d="M181 97q25 0 42.5 -16.5t17.5 -39.5q0 -19 -17 -36t-43 -17t-44 14.5t-18 41.5q0 7 3 16.5t10.5 17.5t19.5 13.5t29 5.5zM73 611q9 0 20 -3q8 -2 17.5 -7.5t14.5 -16.5t5.5 -23.5t-5 -24t-16.5 -19.5t-29 -11q-14 -2 -26.5 3.5t-22 16.5t-15 27t-4.5 34q2 50 34.5 79
t76.5 40.5t90.5 6.5t78.5 -23q53 -30 71 -85.5t3 -116.5q-14 -57 -44.5 -97t-62 -71.5t-57 -59t-29.5 -58.5q-3 -21 5 -30t18.5 -12.5t19 -5t7.5 -7.5t-7 -9t-13.5 -4t-15.5 0.5t-12 3.5q-12 3 -24 16t-16 34t3.5 50t34.5 64q31 40 51 78.5t31 72.5t14 61t0 45q-6 41 -24 65
t-40.5 35t-47 11t-44.5 -8t-31.5 -21.5t-8.5 -29.5z" />
    <glyph glyph-name="at" unicode="@" horiz-adv-x="604" 
d="M287 307q-10 -2 -18 -11t-11.5 -22.5t-3 -28.5t7.5 -29q7 -15 18.5 -28.5t24 -22t26 -10t24.5 6.5q13 11 17.5 18.5t6.5 14.5q-2 5 -5.5 19t-8.5 28q-6 17 -9 29t-5 14q-7 6 -24 16t-40 6zM412 34q0 1 0.5 3t-0.5 6q1 3 4 8t8 9q11 10 25.5 7t17.5 -15q5 -15 -5 -29
t-32 -12q-54 -24 -110.5 -27t-108.5 11q-54 13 -97 46t-69 78.5t-31.5 100.5t14.5 114q21 60 59 100.5t86 63.5t101.5 28t106.5 -7q56 -13 102 -47.5t74 -81.5t35 -102t-15 -109q-14 -35 -45.5 -58.5t-79.5 -18.5q-17 2 -27.5 10t-19.5 19l-9 21q-3 3 -4 6.5t-3 7.5l-2 -7
q-2 -2 -5 -4t-6 -6q-7 -5 -14.5 -9.5t-21.5 -9.5q-23 -8 -45.5 -4t-41.5 17t-32.5 32.5t-18.5 42.5t1 44t19.5 37t33 25t41.5 8q11 -1 20.5 -2.5t16.5 -5.5q6 -2 13 -8q-9 24 -25 39t-32.5 22.5t-32 8.5t-22.5 -3q1 -2 1 -11t-9 -22q-5 -7 -14 -9.5t-18 0.5t-15 11t-4 23
q2 16 14 25.5t28.5 13.5t34 4t29.5 -3q31 -8 54 -23t38.5 -34t25.5 -40t16 -42q6 -20 10.5 -40t9.5 -35q10 -34 35 -40q12 -3 27 1t28.5 15.5t23 31t11.5 46.5q1 15 -3.5 39.5t-16 51.5t-31 54.5t-48.5 49t-69 34t-92 10.5q-38 -2 -79 -19.5t-74 -50.5t-52 -81t-12 -111
q7 -62 32 -104.5t62 -68t83 -35t94 -6.5q35 3 57 16z" />
    <glyph glyph-name="A" unicode="A" horiz-adv-x="942" 
d="M383 665q10 20 16 29t10.5 12t9 1.5t12.5 -2.5q16 -2 34 -23.5t39 -53.5l357 -561q10 -16 16 -22t10.5 -7.5t8.5 0t10 1.5t8.5 -6.5t0.5 -14t-8 -13.5t-18 -6h-209q-9 0 -15 3.5t-9 8.5t-1 10.5t10 9.5q16 8 23.5 12.5t1.5 19.5q-3 6 -21 32.5t-44 62.5l-420 2
q-17 -34 -28 -58t-14 -33q-4 -10 1 -16.5t13.5 -11t18.5 -7t17 -3.5q7 -2 12 -7t5.5 -10.5t-4.5 -10t-17 -4.5t-40 0.5t-59 1t-57 0t-33 -1.5q-8 -2 -13 3t-5.5 12.5t4.5 14.5t18 10q26 6 42.5 11t25.5 19zM580 221q-17 23 -34 46.5t-31.5 44t-26 38t-18.5 28.5
q-16 25 -32 51.5t-29 47.5t-22 32.5t-10 7.5q-1 -3 -15 -31.5t-35 -71.5t-45.5 -94t-47.5 -99h346z" />
    <glyph glyph-name="B" unicode="B" horiz-adv-x="705" 
d="M101 666q12 0 46 0.5t76 1t86 1t77 0.5t65 -1.5t61 -7.5t54 -18t45 -33t30 -46t11.5 -49t-4.5 -46t-19 -37q-26 -30 -62 -51t-72 -21h-34.5t-50.5 0.5t-57.5 1t-55 1t-44 0.5h-23.5q-15 0 -19 -3t-4 -11v-261q0 -14 2 -29t12 -15q4 0 10.5 -0.5t23 -1t47.5 0t86 2.5
t85 13t44 29.5t17 43.5t3 54t-7.5 53.5t-17.5 42.5t-20.5 29t-17.5 13t-8.5 7t5.5 11t24 11t47 8q27 2 52.5 -13t45 -40.5t31 -57t10.5 -61.5q0 -27 -12 -56.5t-32 -55t-47 -44.5t-58 -25q-30 -6 -74 -8t-89 -1t-85.5 3t-64.5 4t-55 1.5t-60.5 -1.5t-52.5 -2.5t-30 -1.5
q-15 0 -16 10.5t10 18.5q12 9 26 16.5t14 24.5q0 6 0.5 48t1.5 102.5t2 129.5t2 128.5t1.5 100t0.5 44.5q0 11 -13 14.5t-24 5.5q-5 1 -5.5 5t2 8t7 8t9.5 5q11 2 24.5 -0.5t37.5 -2.5zM239 637q-19 0 -24.5 -8.5t-5.5 -16.5v-184q0 -8 -0.5 -18.5t7.5 -10.5h210
q23 0 41 21.5t28.5 51t11.5 59.5t-9 47q-20 34 -55 46.5t-77 12.5h-127z" />
    <glyph glyph-name="C" unicode="C" horiz-adv-x="711" 
d="M517 657q15 -2 28 7t21 32q3 9 11 11.5t17 -3t18 -19.5t14 -38q4 -19 12.5 -36t18.5 -32t19 -27t14 -21t1 -16t-13.5 -8.5t-23 4t-26.5 20.5q-10 12 -33 28.5t-55.5 32t-73 26t-85.5 10.5q-43 0 -81 -18.5t-67 -54t-48 -86.5t-23 -116q-4 -53 6 -105.5t36.5 -96t71.5 -73
t111 -36.5q56 -6 98.5 7t72.5 33t47.5 40.5t22.5 28.5q4 8 11 9.5t12.5 -3.5t6.5 -15.5t-7 -26.5q-29 -61 -107 -93.5t-187 -32.5q-54 0 -116.5 23t-115.5 69.5t-88 116.5t-35 165q0 63 18 111.5t46.5 84.5t65.5 60.5t74.5 40t72.5 22t61 6.5q39 0 70 -5t53.5 -10.5
t35.5 -10.5t18 -5z" />
    <glyph glyph-name="D" unicode="D" horiz-adv-x="678" 
d="M520 322q0 55 -7.5 111.5t-25 100.5t-45.5 71t-69 24q-32 -2 -59.5 -8t-47.5 -14q-12 -5 -23 -9.5t-21 -9.5v-542q0 -3 14.5 -3.5t36 0t45.5 2t44 1.5q38 0 58 3.5t31 17.5q5 7 16.5 26.5t23 51.5t20.5 76.5t9 100.5zM655 262q0 -62 -23 -111t-52.5 -83t-58 -52
t-38.5 -18h-183q-17 0 -43.5 0.5t-57 1t-62 1t-58 1t-45 1t-23.5 0.5q-8 0 -9.5 5t1 11t8 10.5t13.5 3.5q16 -2 30 2t14 16v562q0 16 -11 18.5t-23 2.5q-6 0 -11.5 5.5t-7 12.5t2.5 12.5t16 5.5h160h108h51t63 -4.5t66 -14.5t61 -29q37 -26 59 -62.5t34 -82.5t15.5 -100
t3.5 -115z" />
    <glyph glyph-name="E" unicode="E" horiz-adv-x="602" 
d="M417 670q11 0 19 2.5t17 10.5t15 -1t17 -22q5 -6 13 -18t16.5 -24.5t15 -23t8.5 -14.5q3 -8 0.5 -15.5t-10.5 -5.5t-20 14l-27 27t-32 17.5t-31 2.5h-22.5t-40.5 -0.5t-49 -0.5t-48 -0.5t-37.5 -0.5h-17.5q-9 0 -9 -10v-89q0 -9 -1 -13t3 -4h213q9 0 10 6t-1 17t11.5 12
t27.5 -14q7 -8 19 -21.5t24 -28t23 -27t16 -17.5q9 -10 4.5 -20.5t-13.5 -9.5q-10 1 -17.5 7.5t-24.5 23.5t-33.5 17.5t-31.5 0.5h-227q-11 0 -11 -10v-379q0 -6 3 -10.5t12 -4.5h116h42.5h40.5t34 1.5t23 4.5t20 11.5t25.5 18t26.5 19.5t22 16t15.5 6.5t10.5 -2.5t5.5 -7.5
t-0.5 -8.5q-6 -8 -20 -28t-26 -36q-23 -29 -34.5 -47t-16.5 -34q-5 -11 -16 -5.5t-16 16.5t-8.5 19t-11.5 8q-5 0 -24.5 0.5t-44 0.5t-48.5 0.5t-37 0.5h-29.5t-48.5 0.5t-57 1t-56 1t-44.5 0.5h-22.5q-13 0 -11 13.5t14 19.5q12 5 25 15.5t13 25.5q0 5 0.5 45.5t0.5 99
t0.5 126.5t0.5 126t-0.5 98t-1.5 44q-1 7 -6.5 9.5t-13 4t-16 3.5t-14.5 7q-13 10 -11 19.5t13 10.5h31.5t69.5 0.5t89.5 0.5t92 0.5t77 0.5h44.5z" />
    <glyph glyph-name="F" unicode="F" horiz-adv-x="675" 
d="M483 670q26 0 42 -0.5t27 11.5q11 11 24.5 10t24.5 -18t25.5 -39t28.5 -36q7 -7 8.5 -15.5t-0.5 -14.5t-6.5 -9t-10.5 1t-21 11.5t-34 15.5t-39 16.5t-35 13.5q-31 10 -55 10h-35h-213v-139h283q9 0 12 3t5 7t4.5 8t10.5 5q6 0 15 -8t20 -20t22.5 -26t21.5 -26
q9 -11 9 -21.5t-4.5 -17.5t-12.5 -9t-16 6q-8 7 -15.5 15.5t-16.5 16t-20 12t-27 4.5h-291v-327q0 -29 6 -42t18 -15q13 -2 23 -13.5t10 -18.5q0 -10 -4.5 -14.5t-12 -6t-16.5 -1.5h-18q-17 0 -34.5 2t-31.5 2q-6 0 -18 -0.5t-24.5 -1.5t-24 -1.5t-17.5 -0.5q-13 0 -26 4
t-13 22q0 7 7 12t15.5 10.5t15.5 12t7 15.5q0 6 -0.5 44t-0.5 91.5t-1 115t-1 116t-0.5 94t-0.5 48.5q0 14 -6.5 22.5t-15.5 13.5t-18.5 7.5t-15.5 4.5t-10.5 8.5t-3.5 13t9 11.5t26 5h446z" />
    <glyph glyph-name="G" unicode="G" horiz-adv-x="706" 
d="M515 669q7 0 11 3.5t7 8t6.5 8.5t10.5 4q8 0 22.5 -14.5t28.5 -33.5q6 -10 15.5 -21t17.5 -22t13 -20t2 -14q-5 -10 -16 -17.5t-23 4.5q-6 6 -22 17.5t-40 24t-55.5 25t-69.5 20.5t-69 4.5t-55.5 -14t-43.5 -25t-33 -28.5t-31 -53t-29 -92.5t-15 -116t12 -122.5
q10 -41 31.5 -67t48.5 -41t56 -21.5t54.5 -7.5t43 1t22.5 4q7 3 16.5 12t17.5 21.5t14 28t6 31.5q0 15 0.5 35t1 39t-0.5 34t-4 21q-6 11 -7 20t13 9q6 0 21 -1.5t34 -3t39.5 -2t37.5 0.5q33 2 55 0t24 -11q1 -9 -7.5 -25.5t-15.5 -27.5q-3 -5 -4.5 -19.5t-1.5 -33t1 -39.5
t2 -39q1 -19 3.5 -36t2.5 -29.5t-5 -20t-18 -7.5q-14 0 -28.5 6.5t-28.5 15t-27 15t-25 6.5t-26 -11t-36.5 -24.5t-55.5 -24.5t-82 -11q-15 0 -44.5 5t-65.5 18t-74 36t-69.5 59.5t-52.5 88.5t-24 122q-3 83 17 142.5t54 100t76.5 65t84.5 37.5t77.5 17t56.5 4q60 0 98 -9
t50 -9z" />
    <glyph glyph-name="H" unicode="H" horiz-adv-x="639" 
d="M496 674q32 0 59 -1.5t41 0.5q7 1 12.5 -3.5t8.5 -11t2.5 -12.5t-4.5 -7q-10 -2 -21 -11t-11 -23v-444q0 -21 -1 -40t-1 -34.5t1.5 -25.5t6.5 -12q14 -5 21 -10t8 -19t-11.5 -17t-38.5 -3q-13 0 -33.5 -0.5t-41 -0.5h-38t-24.5 1q-8 1 -12 7t-4.5 13t2 13t8.5 8
q24 9 24 36l-4 364l-274 5v-390q0 -5 5.5 -8t12.5 -6t13.5 -6.5t7.5 -8.5q2 -11 -3.5 -19t-22.5 -8t-54.5 0.5t-83.5 -1.5q-17 -1 -25 1t-12 6t-4 9.5v11.5t6.5 11t14 9.5t14 10t6.5 12.5l1 505q0 9 0.5 18.5t0 17.5t-3 13t-9.5 5q-9 0 -16.5 7.5t-9.5 16t4.5 15t24.5 5.5
q37 -2 75 -2t70 2q13 1 18 -5.5t5 -15t-4.5 -16t-10.5 -8.5q-12 -3 -16 -19.5t-4 -42.5v-55l273 -5l-1 97q0 14 -3 22.5t-13 9.5q-15 1 -20.5 7.5t-5.5 13.5t4 12.5t10 5.5h81z" />
    <glyph glyph-name="I" unicode="I" horiz-adv-x="261" 
d="M108 670q18 0 38.5 1.5t37.5 2.5t29 1t13 -3q2 -7 3 -17t-9 -10t-16.5 -5.5t-6.5 -13.5v-567q0 -11 6 -15.5t13.5 -7t13.5 -5.5t6 -11q0 -14 -4 -18.5t-17 -4.5t-40 1t-50 1t-34 -2t-31 -2h-11t-12 1.5t-10 6t-4 14.5q0 8 5 10.5t11.5 5t11.5 9t5 22.5q0 4 -0.5 45
t-1 100.5t-1.5 128t-1.5 128.5t-1 102t-0.5 48q0 17 -11.5 19.5t-29.5 2.5q-5 0 -8 6t-3 12.5t2.5 12.5t7.5 6q7 0 19.5 -1t26.5 -1.5t28.5 -1.5t25.5 -1z" />
    <glyph glyph-name="J" unicode="J" horiz-adv-x="544" 
d="M76 212q31 2 52.5 -12t31 -34t7 -41.5t-17.5 -33.5q-3 -2 -8.5 -13t-2 -22.5t21 -20t60.5 -5.5t70.5 20.5t44 41t24 48.5t11.5 43t5.5 56.5t1.5 81t-0.5 79.5t-1.5 52q0 15 0.5 43.5t0 57t-2.5 50t-8 23.5q-7 2 -12 9.5t-7 15t-1 13.5t7 6q12 2 35.5 0t62.5 0t59.5 1
t21.5 -18q1 -9 -7.5 -20.5t-10.5 -22.5q-1 -5 -0.5 -34.5t1.5 -68t2 -79t1 -67.5q0 -48 -4.5 -102t-23 -103t-55.5 -88.5t-101 -58.5q-65 -19 -112 -20.5t-79.5 5.5t-51.5 18t-28 17q-20 14 -36 39t-16 57q0 33 17.5 59t48.5 28z" />
    <glyph glyph-name="K" unicode="K" horiz-adv-x="637" 
d="M458 670q8 0 17 -0.5t17 0.5h39t27 -6q4 -6 -4.5 -17.5t-30.5 -11.5q-21 0 -35 -10.5t-27 -22.5q-6 -6 -25.5 -28t-42 -48t-42.5 -49.5t-27 -31.5l-45 -52q11 -15 26.5 -35.5t31 -40.5t29 -38t21.5 -28q7 -10 19.5 -27.5t27.5 -39t30.5 -44t29 -41.5t23 -32t11.5 -15
q7 -7 25 -9.5t32 -7.5t18.5 -10t3.5 -16q-2 -11 -8.5 -13.5t-26.5 -2.5q-11 0 -26 1t-31 2.5t-30.5 2.5t-23.5 1t-22 -1t-27 -2.5t-26 -2.5t-19 -1q-8 0 -13 4t-7.5 9.5t-3 10.5t2.5 8q8 6 17 17.5t0 23.5q-3 4 -14.5 21t-27.5 40.5t-34 51t-35 52.5t-30.5 45t-20.5 29
l-27 -31v-27q0 -7 -0.5 -33.5t-0.5 -56.5t-0.5 -56.5t-0.5 -32.5q0 -12 9.5 -21t21.5 -14q6 -3 8 -9t1 -12.5t-4.5 -12t-7.5 -6.5t-13.5 -0.5t-21 1.5l-23 2t-18.5 1q-14 2 -33.5 -0.5t-33.5 -3.5q-26 -2 -26 19q0 11 9.5 30t9.5 39v40.5t0.5 84t1 106.5t1 108.5t0.5 91
v53.5q0 21 -4.5 34t-11.5 20.5t-15 12t-15 9.5q-8 5 -9 11t2.5 10.5t9 7.5t10.5 3q8 -2 17 -3t17 -2q14 -2 28.5 -3t22.5 -1q16 0 32 2t39 5q22 2 31.5 -5.5t7.5 -22.5q-1 -8 -5.5 -12.5t-10 -7.5t-10.5 -5.5t-7 -5.5q-4 -6 -3 -17.5t1 -27.5q0 -8 -1 -36t-2 -60t-2 -59
t-1 -33v-10q11 12 29.5 32.5t41 45t46 50t43.5 47t34.5 37t18.5 19.5q14 14 8 21t-21 15q-15 9 -17 12t0 13q2 11 23 10t59 -1h19z" />
    <glyph glyph-name="L" unicode="L" horiz-adv-x="721" 
d="M106 673h24t15 0.5t12 1.5t16 2q20 2 28 -9.5t6 -28.5q-1 -9 -5 -15.5t-8.5 -12.5t-8.5 -12.5t-5 -15.5t-0.5 -38t2 -66t2 -75t-0.5 -65q-1 -28 -0.5 -75t1.5 -95q0 -28 0.5 -56.5t0.5 -59.5h41.5t40.5 -1q34 -1 71.5 -1.5t63.5 -2.5q27 -2 50.5 -1.5t45.5 5t43 14
t44 26.5q22 16 38.5 31t29 25.5t23 14.5t21.5 -1q22 -10 14 -29.5t-37 -48.5q-14 -14 -26.5 -33.5t-24 -38.5t-22 -33t-20.5 -17t-16 0.5t-11 9.5t-11 12.5t-16 9.5q-11 3 -49.5 4.5t-86.5 2t-96 0.5h-77q-34 0 -67 -1t-60.5 -1.5t-46.5 -1t-26 0.5q-14 2 -16 15.5t10 24.5
t21.5 17.5t9.5 23.5v486q0 26 -3 36t-15 18q-6 4 -10 13.5t-5.5 19.5t0.5 18t8 8q12 0 39.5 -2.5t48.5 -2.5z" />
    <glyph glyph-name="M" unicode="M" horiz-adv-x="935" 
d="M536 511q10 26 19.5 51.5t17 46t12.5 34t6 16.5q3 7 13 12t22.5 4t25 -10t19.5 -30l18.5 -55.5t34 -102.5t41.5 -126t41.5 -124.5t34 -98.5t18.5 -49q11 -23 24.5 -30t25.5 -5q6 1 10.5 -5.5t6 -14.5t-1.5 -15.5t-13 -8.5t-35 -0.5t-56.5 0.5t-66 -0.5t-62.5 -3.5
q-11 -1 -15.5 5t-4.5 13.5t3.5 15t9.5 9.5q7 2 16.5 3t16.5 4.5t9 11.5t-5 23q-5 10 -16 39.5t-25 68.5t-29.5 82.5t-28.5 81t-21.5 64t-9.5 31.5q-5 14 -12 8.5t-21 -41.5q-6 -18 -17.5 -49.5t-23.5 -65.5t-22.5 -64.5t-14.5 -46.5q-2 -5 -9 -10.5t-16.5 -6t-20.5 6
t-21 27.5q-10 20 -29.5 57.5t-40.5 76.5t-38 70.5t-21 39.5q-10 13 -12.5 4.5t-9.5 -26.5q-2 -6 -10 -34t-19 -67t-23 -83.5t-23 -83.5t-19 -66t-10 -31q-5 -15 4.5 -18.5t25.5 -3.5q9 0 14 -6.5t6.5 -14t-1 -14t-8.5 -6.5q-29 -2 -52.5 -1t-40.5 1h-85q-8 0 -13 6.5
t-6.5 14t2 14t13.5 6.5q20 0 33 -0.5t21.5 1.5t13.5 7.5t10 17.5q2 6 10 32.5t20 66t27 89t30.5 101t30 101.5t26.5 91.5t20 70t10 37.5q3 13 13 17t21.5 2t21.5 -8.5t14 -14.5l10 -20t18.5 -38.5t23.5 -49.5t25 -52.5t22.5 -48t17.5 -35.5l7 -14t8.5 -14.5t7.5 -9t5 1.5z
" />
    <glyph glyph-name="N" unicode="N" horiz-adv-x="656" 
d="M549 671q21 0 35.5 -2t31.5 0t21.5 -3.5t7.5 -13.5q3 -7 -6.5 -15.5t-20.5 -9.5q-12 -1 -20.5 -6.5t-8.5 -12.5q0 -4 -0.5 -29.5t-0.5 -58.5t-0.5 -65.5t-0.5 -50.5v-44t0.5 -73.5t1 -87t1 -85t0.5 -67v-33.5q0 -9 -5 -12.5t-11.5 -4t-13 1.5t-10.5 5q-8 6 -30 34t-53 59
l-340 344q-8 8 -11 12t-3 -1v-370q0 -16 13 -28.5t31 -16.5q9 -2 12 -7.5t1.5 -11.5t-5.5 -10.5t-8 -4.5q-9 0 -32.5 -1t-58.5 -1t-47 2t-17 9q-5 6 4 15t22 10t22 8.5t9 20.5v34t0.5 62.5t0.5 69v55.5v44t-0.5 68t-0.5 79t-0.5 76.5t-0.5 61v32.5q0 10 4.5 13.5t10.5 3.5
t12.5 -3t10.5 -7l425 -444q9 -9 13 -8.5t4 6.5v396q0 14 -14 19.5t-29 7.5q-16 3 -16.5 10t7.5 18q8 10 25 10.5t38 0.5z" />
    <glyph glyph-name="O" unicode="O" horiz-adv-x="713" 
d="M566 132q37 41 44.5 90.5t-6.5 100t-47 97.5t-76 83q-40 33 -86.5 57t-93.5 32t-91.5 -3.5t-80.5 -49.5q-35 -37 -44.5 -82t0.5 -91.5t36 -92t61 -82.5q39 -42 90 -72t103.5 -41t102.5 0.5t88 53.5zM698 359q4 -73 -20.5 -139t-70.5 -116.5t-110 -81t-138 -31.5
q-70 -2 -133.5 24t-112 72t-78 107.5t-31.5 131.5q-3 72 23.5 136.5t73.5 113.5t110.5 78t134.5 30q72 1 134 -23.5t109 -68t75.5 -103.5t33.5 -130z" />
    <glyph glyph-name="P" unicode="P" horiz-adv-x="604" 
d="M191 234q0 -7 -0.5 -29.5t-1 -48t-0.5 -47.5t2 -28q2 -13 10 -20t22 -13q7 -3 14 -10t10.5 -14.5t2.5 -14t-9 -9.5t-24 -3.5t-35 0.5t-39 2t-35 1q-17 0 -32.5 -0.5t-26.5 -1.5q-7 -1 -13.5 -1h-11.5q-11 0 -21 11.5t-6 21.5q1 5 7.5 9t14.5 7.5t17 6t15 5.5q7 3 10 13.5
t4 23.5t0.5 25.5t-0.5 19.5v441q0 7 1 14t0 13t-6 10t-16 4q-46 2 -41 28q1 6 2 10t6 5.5t16.5 2t32.5 0.5q22 0 67.5 0.5t96.5 0.5h97t69 -1q22 -1 56 -10t66 -31.5t54.5 -62t22.5 -101.5t-21 -99t-51 -56.5t-64.5 -26.5t-61.5 -9t-54.5 -2.5t-51 -0.5t-39.5 0.5t-20 0.5
q-17 0 -26 -10.5t-9 -25.5zM190 349q0 -11 3 -21t13 -10h21t39 0.5t46 2.5t43 7q19 4 39.5 15.5t36.5 29.5t25 42.5t6 54.5q-4 30 -11.5 55.5t-21 44.5t-34 30.5t-50.5 13.5q-29 2 -57 3t-50 0.5t-35 -3t-13 -6.5v-259z" />
    <glyph glyph-name="Q" unicode="Q" horiz-adv-x="755" 
d="M376 685q71 0 135.5 -25t113.5 -71t78 -112.5t29 -148.5q0 -83 -25.5 -140.5t-55.5 -92.5q-18 -20 -38 -37t-43 -30q3 -14 12.5 -27t23 -24.5t28.5 -20t30 -14.5q14 -5 22.5 -2.5t14.5 6.5t11 7.5t13 -0.5q8 -3 18.5 -22t14.5 -44.5t-4 -52t-36 -44.5q-29 -18 -59.5 -9
t-59 34.5t-53.5 62t-42 74.5q-34 76 -67 107.5t-54 29.5q-10 -1 -14 -5t-5.5 -8.5l-2.5 -7.5t-5 -2t-5 7.5t4 14.5t17 15.5t33 10.5q22 3 43 -1.5t38 -12.5t29 -16.5t15 -12.5q0 -1 11 12t24.5 45t25 86t11.5 134t-22 136t-55.5 91t-74 50.5t-76.5 15.5t-74.5 -13t-70 -47
t-51.5 -94.5t-20 -154.5q0 -65 12.5 -113t31.5 -82t42.5 -56t45.5 -34.5t40.5 -17t27.5 -4.5q13 0 28.5 -1.5t28.5 -4.5t21.5 -7.5t8.5 -10.5q0 -12 -20 -11t-51 1q-10 0 -42 1.5t-73 10t-86 28t-83 55t-62.5 90.5t-24.5 136t20 140t52 100.5t73 67.5t82 40.5t79.5 19.5
t66.5 5z" />
    <glyph glyph-name="R" unicode="R" horiz-adv-x="767" 
d="M538 483q1 45 -11 73t-34.5 43t-55 20t-71.5 5q-29 0 -60.5 -0.5t-58.5 -2.5l-62 -3l-1 -280l80 3q34 2 73 2t71 -1q34 -1 58 4t39.5 20t23 43.5t9.5 73.5zM738 154q3 0 8.5 -13t7 -32t-3 -40.5t-20.5 -37.5q-14 -14 -37 -25.5t-56 -10t-76.5 21.5t-98.5 70
q-110 100 -164.5 148t-67.5 52q-14 4 -30.5 5.5t-16.5 -3.5v-235q0 -8 13.5 -12.5t21.5 -5.5q4 0 8 -5t5.5 -11.5t0 -12.5t-8.5 -8q-6 -2 -18.5 -2t-27 0.5t-28.5 1t-23 0.5h-24t-28 -0.5t-25.5 -1t-16.5 -1.5q-9 -2 -16 6.5t-3 15.5q2 3 8 8t12.5 11t11.5 14t5 18v548
q0 11 -12 19.5t-24 8.5q-6 0 -10 6t-4 13.5t5.5 13.5t17.5 6q23 0 64 -6.5t107 -6.5h283q15 0 37 -3.5t45.5 -12t47 -23.5t41.5 -38.5t29 -56t10 -76.5q-1 -46 -20.5 -78t-51 -52t-72 -30t-83.5 -12.5t-85.5 1t-78.5 10.5q-6 1 -4.5 -2t7 -8t14.5 -10.5t19 -8.5
q51 -17 98.5 -41.5t90 -48t79 -40t66.5 -16.5q19 0 31 4.5t19.5 10t12 10t9.5 4.5z" />
    <glyph glyph-name="S" unicode="S" horiz-adv-x="648" 
d="M329 -8q-34 0 -64.5 3.5t-55.5 9.5t-43 12.5t-27 12.5q-13 10 -27 5q-6 -1 -11 -6q5 -15 5 -17q5 -17 -17 -26q-7 -3 -11.5 0.5t-9 12.5t-9.5 23.5t-13 33.5q-5 12 -16.5 31t-23.5 38.5t-22.5 35.5t-13.5 23t-0.5 13t7 10t10 5t8.5 -2q6 -5 14.5 -15.5t16.5 -21.5
q19 -24 44.5 -45.5t59.5 -38.5t76 -28t94 -13q117 -5 179 33q34 21 48.5 48t11 54t-24 51.5t-57.5 41.5q-33 15 -76 25.5t-88 21t-89 24.5t-79.5 36.5t-58.5 56t-26 83.5q-2 22 5.5 44.5t20.5 42t29.5 34t33.5 22.5q46 20 94 23t93 -5t84.5 -25t68.5 -37q9 -6 11 -2t0 12
t-6.5 18t-8.5 16q-3 4 0.5 7.5t10 5t13 -0.5t9.5 -9q7 -17 18 -35t22 -35t21 -32t16 -25q6 -11 4 -20t-8 -13.5t-14 -4t-14 8.5q-6 7 -14.5 17.5t-22.5 22.5t-34 24.5t-47 24.5q-16 7 -45 13.5t-63 9.5t-69.5 1t-64 -11t-46.5 -27.5t-17 -48.5q0 -34 23.5 -55t61 -34.5
t85 -22.5t96 -18t94 -20.5t79.5 -31.5q26 -15 43 -35t27 -41.5t13 -44.5t2 -45q-2 -32 -14.5 -56.5t-31 -44t-40 -34t-40.5 -25.5q-23 -13 -48 -20.5t-50.5 -11.5t-49 -5.5t-41.5 -1.5z" />
    <glyph glyph-name="T" unicode="T" horiz-adv-x="842" 
d="M164 671h48.5h94t116.5 -0.5t115.5 0t91 1t44.5 1.5q21 3 29 8t19 16q12 12 22.5 9.5t27.5 -31.5q8 -14 17.5 -28t18 -26.5t15 -22.5t8.5 -16q3 -6 0.5 -17t-9 -20t-15 -12t-17.5 7t-23.5 24.5t-32.5 28.5t-37 24t-36 10h-153v-548q0 -18 11 -25t26 -12q8 -3 12 -11
t4 -16t-4 -14.5t-12 -6.5q-14 0 -41 5.5t-73 5.5q-27 0 -41.5 -1t-24 -2.5t-17.5 -2.5t-23 -1t-21 3.5t-7.5 9t-0.5 11.5t1 11t10 10t21.5 11t21.5 13t10 16l2 544h-170q-11 0 -26 -9t-30 -21.5t-28.5 -26t-22.5 -23.5q-18 -20 -39 -21.5t-35 8.5q-7 5 -8 10.5t2.5 14.5
t11 22t18.5 33q11 19 19.5 37t17 31.5t17 22t18.5 8.5t14.5 -6.5t9 -14.5t11.5 -14.5t22 -6.5z" />
    <glyph glyph-name="U" unicode="U" horiz-adv-x="594" 
d="M29 671h23.5h36.5t39.5 1t32.5 3q38 5 53.5 -2t17.5 -21t-9 -22.5t-19 -10.5t-14 -7.5t-7 -20.5q-1 -5 -1.5 -26.5t-0.5 -51.5t0.5 -65.5t0.5 -68.5t0.5 -60.5t0.5 -41.5t0.5 -34t4.5 -43t11.5 -46t22 -42t36.5 -31t54 -13q48 -2 80 15.5t50.5 42t26.5 49t8 37.5
q0 5 0.5 32t0.5 64.5t0.5 80.5t0.5 81.5t-0.5 66.5t-1.5 36q-2 23 -7.5 39t-28.5 22q-12 3 -15.5 8.5t-3 10.5t4 9.5t6.5 5.5q8 2 26.5 3.5t55.5 1.5q18 0 29.5 -1t17.5 -3.5t8.5 -5t3.5 -5.5q1 -6 -6 -15.5t-17 -11.5q-10 -3 -16 -8t-4 -14q1 -4 1.5 -30t0 -65t-1 -85
t-1 -90t-2 -80.5t-2.5 -56.5q-2 -29 -17 -66t-44 -70t-73 -55.5t-103 -21.5q-58 1 -100 27.5t-69 61t-41 69.5t-17 53q-2 12 -2.5 41t-1 67t0 80t1 79.5t1.5 66t2 39.5q0 17 -3 26.5t-8 15t-12.5 8.5t-17.5 8q-11 4 -13.5 11t-0.5 13.5t8 11t13 4.5z" />
    <glyph glyph-name="V" unicode="V" horiz-adv-x="752" 
d="M221 671q6 0 9.5 -5t4.5 -11.5t-1 -12.5t-8 -7q-11 -2 -15 -13t2 -27q1 -5 10.5 -24.5t24 -48.5t32.5 -64.5t37 -72.5l99 -194q23 54 44.5 102.5t41.5 93.5q16 37 32.5 73.5t30 66.5l22.5 50t11 25q8 18 9 24t-9 9q-6 1 -7.5 7t0.5 12.5t7.5 11.5t14.5 5h77q20 0 34 -5.5
t14 -14.5q0 -18 -26 -18q-7 0 -16 -1t-17.5 -3t-14.5 -5.5t-7 -8.5q-1 -3 -12.5 -28.5t-30 -66t-42 -91.5t-47.5 -104.5t-47.5 -104.5t-42 -92.5t-30 -68t-12.5 -30.5q-7 -17 -14 -25t-21 -8q-8 0 -15 -0.5t-16 16.5q-3 6 -22.5 48t-48 103t-61 131.5t-61.5 132.5
t-49.5 107.5t-24.5 55.5q-12 31 -21 42.5t-26 13.5q-9 1 -11.5 5t-1.5 8.5t4 8t6 3.5h94h117z" />
    <glyph glyph-name="W" unicode="W" horiz-adv-x="930" 
d="M91 673q18 -1 36 -1h34.5t30.5 -1t22 -4q6 -3 9.5 -12t4.5 -18t-1.5 -15t-9.5 -3q-14 6 -14.5 -6.5t11.5 -48.5q4 -12 15.5 -44.5t27 -74.5t32 -87t31 -82t24.5 -60t12 -20t10.5 20t20.5 41.5t26.5 53t27.5 55t23 47.5t14 30q12 26 24.5 26t23.5 -20q4 -7 14.5 -29
t24.5 -50.5t29.5 -59.5t29 -56.5t23 -41t11.5 -12.5t13.5 32.5t27.5 72.5t35 93.5t35.5 95t28 76.5t13.5 39q7 20 -2 29.5t-29 10.5q-6 1 -10 5t-4 8.5t5 9t17 6.5q11 2 25.5 2t29.5 -0.5t29 -1t24 1.5q10 1 15 -3t5.5 -10t-2 -12t-7.5 -7q-10 -3 -24.5 -10.5t-18.5 -16.5
q-1 -2 -10.5 -27t-24 -65t-33.5 -91t-38.5 -104.5t-38.5 -105.5t-34.5 -95.5t-26 -73t-13.5 -38.5q-6 -18 -11.5 -23.5t-12 -2.5t-13.5 12.5t-16 20.5q-5 6 -13 21t-18 35.5t-21.5 44.5t-23.5 49l-59 125q-17 -37 -33.5 -70t-30.5 -64q-12 -26 -24.5 -51.5t-23 -46.5
l-18 -36t-10.5 -20q-12 -20 -27 -17t-25 24q-3 7 -16.5 44t-32 90t-40 114.5t-41 117.5t-35 99.5t-21.5 60.5q-18 51 -28.5 67.5t-23.5 16.5t-20.5 7t-0.5 23q3 8 7 11t13 3.5t24 -1t41 -2.5z" />
    <glyph glyph-name="X" unicode="X" horiz-adv-x="758" 
d="M123 672q42 -2 77.5 2.5t51.5 4.5q7 0 11 -6t4.5 -13t-1.5 -13t-6 -6q-7 1 -13.5 -4.5t-1.5 -13.5q1 -2 13 -18.5t31.5 -43t45.5 -60.5t55 -71l170 203l-22 3q-9 2 -18 2t-15 -1t-9 2t-4 7.5t-0.5 10t1.5 9.5q1 3 12.5 4t26.5 1t30.5 -1t24.5 -1t15 -1t12 -1.5t14 0
t20 2.5q25 5 37 -1t14 -14t-3.5 -20t-16.5 -10q-13 2 -32 -2.5t-29 -9.5q-2 -1 -18 -19.5t-43 -49t-62 -71t-74 -84.5q34 -45 67 -89.5t60 -80.5t45.5 -60.5t23.5 -30.5q10 -12 21 -26t21 -26.5t19 -22t15 -12.5t12 -3t10.5 -1t7 -4.5t2.5 -13.5q0 -9 -7 -13t-17.5 -5
t-23 -0.5t-23.5 0.5h-36.5t-52.5 0.5t-50 0.5h-30t-12 5t-6.5 11t-0.5 10.5t6 3.5q10 -2 19 6.5t6 15.5q-1 1 -15 20t-36.5 50.5t-52.5 72.5t-63 86l-199 -231l20 -2q8 -1 17 -1.5t17 -0.5q26 0 26 -23q0 -13 -15 -19.5t-33 -3.5q-9 1 -24 2.5t-32 2.5t-33.5 1t-27.5 -1
q-23 -2 -28.5 2.5t-5.5 12.5t8.5 17.5t22.5 9.5q17 0 25 3.5t17 14.5l215 256q-42 56 -82.5 111t-73 98.5t-53.5 71.5t-23 30q-8 7 -23.5 5t-34.5 -2q-9 0 -10.5 5.5t2.5 12.5t12 13t17 7t16.5 1.5t17.5 0t23.5 -1.5t34.5 -2z" />
    <glyph glyph-name="Y" unicode="Y" horiz-adv-x="658" 
d="M13 672h69.5t69.5 2q18 1 22 -3.5t6 -9.5t-2.5 -8.5t-9.5 -7.5q-8 -8 -9 -12.5t4 -14.5q2 -3 15 -21.5t30.5 -44.5t38 -55t37.5 -54t29 -42t13 -18q3 -5 5.5 -9.5t4.5 -3.5t14 20t29 44q5 8 16.5 25t25.5 38.5t29 44t27.5 42t21 33t9.5 16.5q3 8 -3 12.5t-11 6.5
t-4.5 8.5t4.5 9.5q6 7 25 4q5 -1 19.5 -2t31.5 -1.5t32.5 0t22.5 1.5q13 2 15.5 -0.5t4.5 -10.5t-1 -10t-17 -7q-14 -4 -25.5 -6t-28.5 -13q-7 -5 -17.5 -15.5t-21.5 -24t-21.5 -27.5t-17.5 -25q-5 -8 -16.5 -25.5t-25.5 -40t-29.5 -47t-28 -45.5t-20.5 -36t-8 -18
q-1 -5 -2 -35t-1.5 -67.5t-0.5 -73.5v-53q0 -34 8.5 -47.5t19.5 -18.5t13 -8t3 -9t0.5 -7.5t-8.5 -2.5q-9 0 -20 1t-33 1h-103q-11 0 -13 2t-4 10q-4 13 12 20q7 2 12.5 11t5.5 20q0 6 1 25.5t2 43t1.5 46.5t0.5 36q-1 26 -2.5 48t-6.5 32q-1 3 -13.5 23.5t-31.5 50
t-40.5 64.5t-41.5 65.5t-34.5 53.5t-18.5 29q-13 20 -26.5 37t-23.5 19t-12.5 4.5t-3.5 10.5q-1 7 -1 13.5t8 6.5z" />
    <glyph glyph-name="Z" unicode="Z" horiz-adv-x="803" 
d="M166 700q0 -21 17 -23t46 -4q14 -1 49.5 -1h78t86 0.5t73.5 0.5q31 0 60 -1.5t53 -2.5t42 -1t26 3t15 1.5t9.5 -8.5t-1 -19t-15.5 -30t-43.5 -58.5t-71.5 -91t-82 -104.5t-75 -99q-66 -91 -103.5 -134.5t-52.5 -55.5q-8 -6 -3 -9t18.5 -4.5t35 -1t46.5 1.5l60 2.5t75.5 6
t77 12t64.5 21.5q27 13 45.5 25t32 22t22 18t15.5 13q13 8 16 -4.5t-15 -29.5q-9 -9 -24.5 -26.5t-32 -37.5t-32 -39.5t-24.5 -31.5q-17 -24 -26.5 -30.5t-16.5 -0.5q-4 3 -4.5 8t-1 9.5t-2.5 7.5t-8 2q-7 -1 -28.5 -2t-51.5 -2t-64.5 -1.5t-66.5 -0.5q-22 0 -55 -0.5
t-70.5 -0.5t-76.5 -0.5t-72.5 -0.5t-58.5 0.5t-35 1.5q-15 2 -14 8.5t11 15t24.5 18t26.5 17.5t32.5 28t44 45.5t47 52.5t41.5 50q12 15 37.5 48t57 74t64.5 84.5t61.5 80t47 60.5t21.5 27q8 8 -8.5 11.5t-74.5 5.5q-29 1 -59.5 2.5t-58 2t-49.5 -0.5t-33 -4t-34 -18.5
t-48.5 -34t-48 -36t-32.5 -24.5t-16 -3.5t-8 12t0.5 18.5t9.5 16q13 14 30.5 41.5t29.5 59.5q6 16 14 27t15.5 16t13 5t5.5 -5z" />
    <glyph glyph-name="bracketleft" unicode="[" horiz-adv-x="857" 
d="M19 299l20 20t41 23t69.5 8t107.5 -25q64 -23 128.5 -35t121 -15.5t101 -0.5t69.5 9q36 9 51.5 31.5t15.5 47t-14 44.5t-37 23q-11 2 -13 -2t-4 -2q-9 6 -7 14.5t10.5 16.5t21.5 13t28 3q52 -7 80.5 -43t34 -81.5t-12.5 -90.5t-60 -71q-28 -17 -70 -24t-105 4
q-49 9 -101 24t-102 32.5t-96.5 35t-84.5 31.5t-65.5 22t-39.5 7q-23 -3 -38.5 -10.5t-25.5 -16t-16.5 -15t-12.5 -6.5q-11 0 -12.5 3.5t1.5 8t8 9.5z" />
    <glyph glyph-name="backslash" unicode="\" horiz-adv-x="359" 
d="M34 787q3 0 18 -34.5t36.5 -89.5t47 -124t50.5 -138q18 -51 38.5 -109t39.5 -115t36 -109t28 -91.5t15.5 -63t-0.5 -23.5h-16t-6 0.5t-5.5 0.5h-16.5q-7 0 -27 47t-48 123t-61 172t-66.5 192.5t-64 185t-53.5 150.5q-7 18 -2.5 22.5t18.5 4.5h11t7.5 -0.5t8 -0.5h12.5z
" />
    <glyph glyph-name="bracketright" unicode="]" horiz-adv-x="1138" 
d="M300 533q75 1 151 -18t147.5 -49t135 -66.5t114.5 -69.5t92.5 -46t72.5 -14t51 6.5t27 15.5t14.5 4t7 -13t-13 -21t-46.5 -20q-27 -7 -63.5 -2.5t-78.5 16.5t-88 29.5t-90.5 36t-86.5 37t-77 32.5q-52 21 -105.5 29t-101 4.5t-85.5 -17.5t-59 -37t-25 -46t2 -41t18 -29.5
t23 -11.5q23 0 19 -17t-37 -29q-11 -4 -30.5 -8t-43 -4.5t-47 4t-43 17.5t-32 36.5t-12.5 60.5q0 56 30.5 98.5t75 72t94.5 44.5t90 16z" />
    <glyph glyph-name="asciicircum" unicode="^" 
 />
    <glyph glyph-name="underscore" unicode="_" 
 />
    <glyph glyph-name="grave" unicode="`" 
 />
    <glyph glyph-name="a" unicode="a" horiz-adv-x="773" 
d="M443 171q-27 42 -56 86.5t-58 83.5q-21 0 -44.5 -3t-45.5 -11t-40 -22t-28 -36q-17 -37 -9.5 -73.5t29.5 -64.5t54.5 -43.5t66.5 -10.5q48 8 80 35.5t51 58.5zM765 64q4 -5 0 -16.5t-15 -24.5t-30 -23t-46 -11q-55 -3 -92 17.5t-69 62.5q-11 14 -22.5 31.5t-25.5 37.5
q-32 -63 -78 -98t-96 -45t-100.5 3.5t-90.5 48.5q-42 37 -52 83t1.5 90.5t39.5 80t63 51.5q40 18 81 20.5t72 0.5q-14 19 -28 34.5t-28 28.5q-31 27 -65.5 38t-63.5 0q1 0 2 -5.5t2 -13.5t1 -16.5t-1 -14.5q-2 -6 -6.5 -14.5t-12.5 -17t-19 -14.5t-25 -6q-28 0 -43.5 20
t-15.5 46q0 13 9 27.5t27 26.5t45 18.5t63 5.5q22 -1 50.5 -5.5t62.5 -19t72.5 -41t79.5 -71.5t81.5 -89t76 -80.5t64 -64t44.5 -39.5q22 -17 36.5 -24t24.5 -9.5t16 -3.5t11 -5z" />
    <glyph glyph-name="b" unicode="b" horiz-adv-x="582" 
d="M75 777q16 1 37.5 1.5t41 0t32.5 -3t13 -6.5q0 -9 -4 -19.5t-15 -13.5q-11 -4 -12 -16.5t-2 -29.5v-23.5t-0.5 -53.5t-1.5 -75.5t-2 -89.5q8 10 20 23t31 24t45 18.5t61 6.5q34 -1 77 -17.5t80 -50t62 -86.5t24 -126q-1 -62 -24.5 -107.5t-58.5 -75.5t-76.5 -45
t-77.5 -16q-41 -1 -69.5 6t-48 20.5t-31 33t-17.5 42.5l-1 -75q0 -11 -11 -16.5t-33 -7.5q-11 -1 -26 -1.5t-30 0t-28 1.5t-20 2t-9 6.5t-0.5 12t6 12t10.5 7.5t10.5 4t7.5 8t4.5 19t1.5 37v62t0.5 107t0.5 128.5t0.5 125.5t0.5 99v49q0 23 -7 37.5t-19 30.5q-12 15 5.5 22
t52.5 9zM159 176q6 -22 27.5 -46t50.5 -40.5t62 -21t62 12.5q28 17 50.5 58.5t29.5 104.5q4 36 -1.5 74.5t-22.5 70t-45.5 52t-69.5 20.5q-23 0 -44 -7.5t-39.5 -19.5t-33 -26t-23.5 -27z" />
    <glyph glyph-name="c" unicode="c" horiz-adv-x="533" 
d="M381 500q9 4 17 12t16 13.5t16 3.5t16 -18q3 -6 11 -21t17.5 -32t18.5 -33.5t14 -26.5q4 -10 0 -14.5t-13 -4t-21.5 7t-24.5 18.5q-25 24 -67.5 45.5t-103.5 21.5q-24 0 -49.5 -15t-46.5 -45t-34.5 -74t-13.5 -102q0 -59 13 -98.5t34 -64t47.5 -35t52.5 -10.5
q54 0 89 18.5t58 43.5q10 11 16.5 22t12 20t10.5 15t13 7q7 1 8.5 -13.5t-6.5 -32.5q-15 -33 -40.5 -55t-55 -35.5t-58.5 -19.5t-51 -6q-16 0 -42 2t-56 9.5t-61 23.5t-56 44.5t-40.5 70.5t-15.5 103t15.5 104.5t40 73.5t54.5 48.5t58.5 28.5t52.5 13t36 3q30 0 50 -4t33 -8
t21 -6t15 2z" />
    <glyph glyph-name="d" unicode="d" horiz-adv-x="691" 
d="M489 368q-10 11 -28.5 27t-44 31t-58.5 25.5t-73 10.5q-34 0 -58.5 -12t-41.5 -31t-27 -42.5t-15.5 -47t-7.5 -44t-2 -33.5q0 -20 7.5 -53t26 -65t49 -55.5t77.5 -23.5q39 0 67.5 8.5t51 23.5t40.5 34.5t37 42.5v204zM659 23q9 -25 -35 -30q-9 0 -27 1.5t-37.5 3
t-37.5 1.5t-27 -3q-9 -2 -15.5 1.5t-9.5 9t-2.5 12t5.5 11.5q6 5 11 13.5t5 19.5v30q-16 -16 -36.5 -32t-45 -28.5t-53 -20.5t-61.5 -8q-63 0 -116.5 20t-92.5 55t-60.5 84t-21.5 107t23 104t61 78t86.5 49t99.5 17q38 0 71.5 -10t61.5 -24t49 -29.5t35 -27.5v198
q-8 3 -12 7q-12 9 -12 23q-1 9 7 12t20 3t24.5 -1t20.5 -1q17 -2 42 -0.5t39 0.5q14 -2 22.5 -10t4.5 -22q-4 -9 -12.5 -10.5t-8.5 -9.5v-567q0 -9 5 -12t11 -4.5t11.5 -3t7.5 -6.5z" />
    <glyph glyph-name="e" unicode="e" horiz-adv-x="632" 
d="M464 326q4 0 3 22t-13.5 49t-40.5 49.5t-78 24.5q-36 1 -64.5 -9t-49 -25.5t-34 -34t-20.5 -35t-7.5 -28t4.5 -12.5zM606 319v-26t-13 -12h-435q-7 0 -7.5 -16.5t6.5 -42t21.5 -55.5t38.5 -56.5t58.5 -45t80.5 -21.5q43 -3 79 6.5t63 24t45 29t25 20.5t11.5 5t6.5 -6.5
t1.5 -14t-3.5 -16.5t-18.5 -25.5t-46 -34.5t-77 -30t-112.5 -13q-81 1 -142 22t-102.5 56.5t-63 81t-22.5 94.5q0 42 17 89.5t54.5 88t97.5 67.5t146 27q57 0 100.5 -13.5t76 -33.5t54.5 -44.5t35.5 -46t19 -38t5.5 -20.5z" />
    <glyph glyph-name="f" unicode="f" horiz-adv-x="368" 
d="M229 534h21t20 1q21 2 31.5 0t12.5 -11q2 -10 -6 -18t-19 -10q-5 -2 -23.5 -1t-43.5 2q-1 -10 -1.5 -17.5t-0.5 -12.5q0 -12 -0.5 -47t-0.5 -80v-95.5t1 -92.5t2.5 -71t4.5 -32q9 -8 21.5 -17.5t12.5 -21.5q0 -6 -7 -8.5t-17.5 -3t-23 0.5t-23.5 2t-28.5 1.5t-35.5 0.5
t-33.5 -1t-22.5 -3q-14 -5 -23 4.5t-9 20.5q0 6 6.5 12t14 12.5t14 13t6.5 12.5q0 7 1 39.5t2 85t2 122.5t1 151q0 6 0.5 12t0.5 13q-30 -1 -49.5 1.5t-30.5 4.5q-7 1 -9.5 6.5t-1 11.5t7 10.5t14.5 4.5q11 0 30.5 -1t44.5 -2q15 71 62 134t113 110t144 74.5t155 28.5
q28 0 58 -6t57 -16.5t47 -24.5t28 -30t10 -34t-2.5 -34t-17 -28.5t-33.5 -16.5q-22 -5 -38 0t-27 15t-17 23t-7 25q-2 15 6 25.5t17 17.5q11 8 25 13q-5 11 -18 20q-11 8 -33 14.5t-60 6.5q-58 0 -103 -15.5t-80 -41t-60.5 -58t-43 -68t-28.5 -70t-17 -63.5z" />
    <glyph glyph-name="g" unicode="g" horiz-adv-x="675" 
d="M517 243q4 55 -7.5 97.5t-36 71.5t-60 45t-79.5 18q-27 1 -56.5 -11t-54.5 -38.5t-41.5 -68.5t-17.5 -100t16.5 -99t46 -67t63.5 -37.5t70 -9.5t62 13t46.5 34t31.5 60.5t17 91.5zM612 -284q-4 -14 -17 -35t-43 -41t-81.5 -34t-132.5 -14q-72 0 -126 4.5t-89.5 18.5
t-53 41t-17.5 71q0 42 21 60.5t47.5 22.5t50 -1.5t29.5 -11.5t5.5 -10.5t-5 -10t-11 -12.5t-12.5 -19t-1 -28.5t21 -32.5t44.5 -27t69.5 -11q85 0 130.5 15.5t45.5 50.5q0 17 -7 31.5t-27 27t-56 23t-93 20.5q-57 9 -95.5 21t-61.5 25.5t-33.5 28t-11.5 29.5q-2 23 18 43
t47 25q6 1 13 2t13.5 0.5t12 -3t7.5 -8.5q1 -3 -2.5 -4.5t-10 -3.5t-15 -5.5t-17.5 -11.5t-12.5 -18t0.5 -20.5t16.5 -20t35.5 -15.5q23 -7 56 -10.5t72 -7.5t82.5 -10t88.5 -18q35 -10 57.5 -24t34.5 -30t14.5 -32.5t-1.5 -29.5zM661 257q0 -70 -30.5 -120.5t-75 -83.5
t-95.5 -48.5t-93 -15.5q-28 0 -66 3.5t-78 13t-78.5 27t-69 45.5t-49 68.5t-18.5 95.5q1 84 25.5 138t69.5 85t108 42t140 8q56 -2 111.5 -16.5t99.5 -45t71.5 -79t27.5 -117.5zM562 634q-8 -11 -20.5 -11.5t-26 1t-26.5 1.5t-22 -10q-10 -11 -15.5 -19.5t-9 -15t-6.5 -11.5
t-8 -9q-5 -5 -11 -2.5t-8 5.5q-5 6 -5.5 30t7 51.5t24 52t46.5 31.5t50 -2t30 -25t10 -35t-9 -32z" />
    <glyph glyph-name="h" unicode="h" horiz-adv-x="684" 
d="M159 492q23 0 55 -0.5t61 -0.5q24 0 61 -6t78.5 -26.5t81.5 -60.5t69 -107q21 -49 34.5 -92.5t26 -78t27 -59.5t38.5 -36q22 -11 15.5 -24.5t-37.5 -18.5q-20 -3 -47.5 -1.5t-57.5 22.5t-61 68t-58 135q-22 72 -42 119.5t-49.5 75.5t-75.5 39.5t-119 12.5v-385
q0 -14 2.5 -22t5 -12.5t5 -8.5t2.5 -10q0 -12 -20.5 -14t-45.5 -2h-91q-7 0 -10 4t-3 9.5t3 9.5t9 4q11 2 14.5 16.5t3.5 55.5v547q0 20 -5 24.5t-17 7.5q-13 3 -10.5 8.5t11.5 5.5h124q29 0 34 -8t-2 -18q-6 -11 -8 -16.5t-2 -19.5v-137z" />
    <glyph glyph-name="i" unicode="i" horiz-adv-x="262" 
d="M105 507q14 0 23 0.5t31 0.5q24 0 29 -11.5t5 -29.5v-424q9 -2 18 -6q7 -3 13.5 -7.5t8.5 -11.5q2 -8 2 -14.5t-9 -6.5t-35 1t-56 3q-29 2 -54.5 0t-45.5 -3q-15 -1 -15.5 5t-1.5 11q-1 9 4.5 14t13 8t14 4.5t6.5 3.5v434h-31q-3 0 -5 4.5t-2.5 10t1 10t6.5 4.5h80z
M118 706q20 0 34 -6t22.5 -15.5t12 -21t3.5 -22.5q0 -23 -21.5 -40t-50.5 -17t-49.5 18.5t-20.5 45.5t20 42.5t50 15.5z" />
    <glyph glyph-name="j" unicode="j" horiz-adv-x="233" 
d="M110 714q22 1 38.5 -8.5t26 -25t11.5 -34t-6 -34.5t-26.5 -26.5t-49.5 -10.5q-41 0 -56.5 21t-11.5 47t24 47.5t50 23.5zM180 449v-32v-71.5v-98.5t0.5 -112t0.5 -112.5v-101v-76v-38.5q0 -27 -8.5 -58.5t-25.5 -58.5t-41.5 -45t-55.5 -18t-49.5 7t-28 16.5t-11 18.5
t0.5 12q1 3 13 9t26 19t26.5 35t14.5 57q3 35 4 77.5t1 86t-0.5 85t-0.5 75.5q0 22 0.5 53t1 64l1 66t1 60.5t1 46t0.5 23.5q0 7 -6 11t-13 7.5t-13.5 7.5t-7.5 10q-2 14 2.5 26t21.5 12q9 0 29 0.5t42 0.5h40t22 -1q6 -1 9 -8t3.5 -16.5t0 -20t-0.5 -18.5z" />
    <glyph glyph-name="k" unicode="k" horiz-adv-x="637" 
d="M167 236q19 17 50.5 45t63.5 57t58 53t34 33q20 23 13 34t-20 13q-7 0 -13.5 5t-9.5 11.5t-1.5 11.5t10.5 5h169q26 0 32 -9.5t-5 -12.5q-12 -3 -29 -4.5t-41 -22.5q-7 -5 -26 -22.5t-45 -42.5q9 -18 24 -51t31 -67.5t29.5 -65t19.5 -43.5q15 -34 31 -62.5t42 -44.5
q13 -8 21.5 -12.5t14 -8t8 -8.5t2.5 -14q1 -9 -10.5 -12.5t-29 -3.5t-37.5 1.5t-36 1.5h-29.5h-32.5t-29.5 -0.5t-20.5 -2.5q-8 -2 -13.5 1.5t-8 9.5t-1 12.5t9.5 10.5q16 8 22 20.5t-2 29.5q-3 7 -16.5 33t-30.5 59t-34.5 65.5t-28.5 53.5l-135 -127v-116q0 -10 4.5 -14.5
t9.5 -8t9.5 -7t4.5 -10.5q0 -8 -10.5 -10t-26.5 -1.5t-34 2t-33 1.5t-29.5 -1.5t-26.5 -2t-19.5 1.5t-8.5 10q0 10 10 18.5t10 24.5v592q0 9 -4 11t-8.5 2.5t-8.5 2t-4 9.5q0 16 23 18.5t69 2.5q34 0 55 -1t32 -4t14.5 -7.5t3.5 -10.5t-5 -9t-11 -6t-11 -7.5t-5 -14.5v-394z
" />
    <glyph glyph-name="l" unicode="l" horiz-adv-x="216" 
d="M45 681q0 12 -1 19t-4.5 12.5t-10.5 11t-20 15.5q-14 11 -10.5 20.5t17.5 9.5h133q14 0 20 -4t6 -22v-669q0 -11 3 -17.5t7.5 -11t9.5 -7.5t8 -6q4 -3 5 -8.5t-1.5 -11.5t-8.5 -10.5t-16 -4.5t-22 1t-22.5 2.5t-19.5 2.5t-13 1q-8 0 -19.5 -1.5t-29.5 -4.5t-29 4t-11 22
q0 7 4.5 11.5t10 9t10 11.5t4.5 21v604z" />
    <glyph glyph-name="m" unicode="m" horiz-adv-x="1025" 
d="M114 514q16 0 30 0.5t30 1t36.5 0.5t50.5 -2q45 -3 87 -34t75 -73q6 10 18 26t33 31.5t51.5 28t72.5 14.5q52 3 91.5 -23t69.5 -63.5t52.5 -77.5t41.5 -67t42.5 -62.5t45.5 -67.5t40 -55.5t27 -27.5q10 -3 11.5 -12t-5 -19t-21.5 -17.5t-39 -7.5t-45.5 10.5t-42 29.5
t-40 44t-38.5 54q-18 28 -44 74t-53.5 91.5t-54 81.5t-46.5 45q-19 9 -41.5 8.5t-43.5 -8.5t-38.5 -22t-26.5 -32q6 -8 10.5 -17t9.5 -17q11 -19 26.5 -46t32.5 -56.5t35 -60t34 -55.5t28.5 -42.5t19.5 -22.5q10 -8 17.5 -18.5t8.5 -20.5t-7 -17.5t-30 -7.5
q-22 -1 -45.5 -0.5t-46 6.5t-44 19t-38.5 39q-12 17 -26.5 45.5t-30 61.5t-31.5 68.5t-29 67t-23 55.5l-15 36q-15 36 -32.5 47t-47.5 11q-28 0 -37 -1.5t-9 -11.5v-396q0 -6 6.5 -7t15 -1.5t17 -1.5t12.5 -6q8 -11 0 -22.5t-16 -11.5h-66h-30.5t-34 -0.5t-29.5 -0.5h-17
q-5 -1 -8.5 4t-5 12.5t-0.5 14.5t6 10q9 8 19.5 14.5t10.5 23.5v366q0 14 -11.5 20t-25.5 14q-8 3 -8 9t4 12.5t10.5 11t11.5 4.5h83z" />
    <glyph glyph-name="n" unicode="n" horiz-adv-x="959" 
d="M47 512q13 0 21.5 -1.5t16 -2.5t17.5 -1.5t26 1.5q10 1 37 3t64.5 1.5t81 -4t86.5 -14t81.5 -29t65.5 -47.5q45 -50 95.5 -104.5t96.5 -102.5t81.5 -82.5t52.5 -44.5q32 -19 48.5 -25t16.5 -19q0 -12 -16.5 -24.5t-56.5 -17.5q-39 -5 -75.5 7.5t-73 42t-74.5 75
t-80 105.5t-81.5 102t-73.5 69t-61 40t-45 16t-35.5 4t-31.5 -0.5t-22.5 -5t-8.5 -8.5v-355q0 -17 0.5 -27.5t13.5 -10.5t17 -11.5t4 -23.5q0 -11 -5.5 -14t-21.5 -3h-149q-20 0 -26.5 12t-4.5 23q1 5 6 8t10.5 6.5t10 8t4.5 11.5v340q0 18 -4 28t-10.5 16t-15 10.5
t-16.5 12.5q-16 15 -4 25.5t38 10.5z" />
    <glyph glyph-name="o" unicode="o" horiz-adv-x="623" 
d="M457 277q-29 31 -65 60t-73 51t-72.5 34.5t-63.5 11.5q-27 -1 -54.5 -14t-43.5 -37t-15 -58.5t31 -78.5t76.5 -77.5t95 -55t92 -30t66.5 -1.5q25 7 43.5 27t24 47t-3.5 58.5t-38 62.5zM582 225q0 -54 -26 -97.5t-68 -74.5t-95 -48t-107 -17q-55 0 -106.5 23.5t-91.5 63.5
t-64 92.5t-24 109.5t23 102t61 76t87.5 47.5t102.5 16.5q70 0 126.5 -26t97 -67.5t62.5 -94t22 -106.5z" />
    <glyph glyph-name="p" unicode="p" horiz-adv-x="650" 
d="M84 519q25 0 40 -2t23.5 -6t11 -10t2.5 -14v-45q13 10 31.5 22.5t41.5 23.5t49.5 18.5t56.5 7.5q38 0 84.5 -9.5t87 -35.5t68 -73.5t27.5 -123.5q0 -51 -14 -91.5t-36 -71.5t-50 -53.5t-55.5 -36.5t-52 -20.5t-40.5 -6.5q-21 0 -43.5 2.5t-47 10.5t-51 22.5t-56.5 38.5
v-197v-25t-1 -23.5t-4 -17t-10 -6.5q-18 0 -36.5 -1t-50.5 -1t-39.5 6t-8.5 18q0 6 3 8.5t6.5 5.5t6.5 8.5t3 16.5v524q0 14 0.5 31.5t0 32.5t-2.5 25.5t-8 10.5q-11 0 -14.5 9t-1.5 20q1 5 22 6.5t58 1.5zM161 137q13 -14 33.5 -31.5t46 -32t56 -24t63.5 -7.5
q63 3 101 61.5t38 167.5q0 53 -19 90t-46 60t-55.5 33t-47.5 10h-35t-42.5 -6.5t-46.5 -22t-46 -45.5v-253z" />
    <glyph glyph-name="q" unicode="q" horiz-adv-x="636" 
d="M523 507q27 4 43.5 2t27.5 -2q12 0 19.5 -8.5t-6.5 -16.5q-16 -9 -27 -17t-11 -26v-599q0 -14 10.5 -23t11.5 -19q1 -6 -10 -7.5t-26.5 -1t-32.5 2t-29 1.5q-23 0 -30.5 5t-7.5 33v247q-30 -32 -74 -56.5t-115 -28.5q-59 -3 -107.5 15.5t-83.5 53.5t-53.5 83.5
t-17.5 105.5q1 62 28 110t68.5 80t92 48t98.5 15q28 -1 52.5 -8.5t45.5 -18t37.5 -22t28.5 -20.5v23q0 7 -1 16.5t-1 17.5t2 14t8 6q12 0 28.5 -3.5t31.5 -1.5zM455 371q-11 15 -25.5 31t-34 28.5t-43.5 20.5t-53 7q-57 -2 -90 -29.5t-51 -66t-25 -81t-11 -73.5
q-5 -34 1 -66t23 -56.5t45 -39t68 -13.5q33 1 62.5 14.5t54.5 33t45 42t34 41.5v207z" />
    <glyph glyph-name="r" unicode="r" horiz-adv-x="553" 
d="M93 0q-14 0 -29.5 -1.5t-29 -1.5t-22.5 3t-9 12q0 12 4.5 17.5t10.5 11t10.5 13t4.5 24.5v384q0 5 -4.5 7t-10.5 3.5t-10.5 3.5t-4.5 7q0 4 -0.5 8t4 6.5t16 4t36.5 1.5q49 0 71.5 -2.5t22.5 -24.5v-145q19 22 50 54.5t68 63t75.5 52t73.5 21.5q36 0 57 -10t32 -23
t14.5 -26t3.5 -20t-2.5 -16.5t-8.5 -18.5t-17 -16.5t-28 -10.5q-21 -4 -38.5 2.5t-28 20t-12.5 32.5t8 40q0 -1 -14.5 -5.5t-45 -26t-77 -66t-110.5 -125.5v-168q0 -17 5 -25.5t11.5 -15t11.5 -13t5 -19.5q0 -15 -25.5 -13.5t-67.5 1.5z" />
    <glyph glyph-name="s" unicode="s" horiz-adv-x="630" 
d="M473 487q6 2 7.5 9t1.5 14.5t1 13t7 5.5q12 -1 19 -6t14.5 -14.5t18.5 -24.5t31 -36q29 -30 32 -50t-9 -23q-13 -3 -34 13t-60 49q-10 8 -31 17t-48 16t-56 11t-54 1t-42 -13.5t-20 -32.5q-2 -14 6 -27t24.5 -24.5t40 -19.5t52.5 -11q43 -5 84.5 -18.5t73 -36.5t51 -55
t19.5 -73q0 -84 -49.5 -128.5t-133.5 -51.5q-24 -2 -54 0t-58.5 6t-52 9.5t-34.5 10.5q-23 10 -44 5t-35 -19q-7 -7 -16 -10.5t-17 -3t-14.5 5.5t-8.5 14t-9 22t-15.5 26t-17.5 25t-16 21t-13.5 16t-9.5 13t0 10.5t16 7.5q12 2 23.5 -4.5t25 -17.5t29.5 -24.5t37 -25.5
q13 -7 38 -16.5t56.5 -17.5t67 -14t69.5 -6q42 0 80 8t54 35q20 33 13 59t-29 44t-52.5 29t-57.5 14q-38 4 -75.5 16.5t-67.5 32.5t-48.5 49t-18.5 66t13.5 64.5t36.5 45t53 25.5t63 6q29 -2 54 -7.5t44 -11.5t30.5 -10t14.5 -2z" />
    <glyph glyph-name="t" unicode="t" horiz-adv-x="243" 
d="M-19 469q-16 1 -21.5 6.5t-5.5 17.5q0 11 22 15.5t69 22.5q24 9 38 24t22 31t12 30.5t8 22.5t10 12.5t12 3t10 -11t4 -28.5v-101h45q7 0 9.5 -7.5t1 -16t-6.5 -16t-13 -7.5h-36v-287q0 -60 3.5 -87t17.5 -32q19 -7 27 -17t7 -20t-9.5 -18.5t-21.5 -13.5q-14 -5 -39.5 -6
t-51 14t-45 50.5t-21.5 104.5q-2 53 -2 107t0.5 98t1 73.5t0.5 33.5z" />
    <glyph glyph-name="u" unicode="u" horiz-adv-x="714" 
d="M87 503q37 0 61.5 0.5t24.5 -12.5q-1 -12 -4 -16.5t-6 -8.5t-5 -10.5t-2 -22.5v-23t-0.5 -46.5t-0.5 -60t-0.5 -63.5t-0.5 -57.5v-40.5q0 -45 -2 -65.5t4 -21.5q66 -5 101.5 8.5t58.5 44.5t42 79t52 112q32 62 55 99.5t42.5 59t39.5 30.5t46 14q31 5 54 1.5t36.5 -10.5
t16.5 -15t-5 -11q-22 -9 -38 -28.5t-35.5 -53t-47.5 -82.5t-74 -116q-47 -68 -89 -105.5t-77.5 -55t-64 -20.5t-48.5 -3h-49t-57.5 -0.5t-52.5 -1.5t-33 -2t-16.5 3.5t-10.5 10.5t-2 11.5t9 6.5q15 3 17.5 15.5t2.5 27.5v361q0 12 -4 19.5t-8.5 13.5t-8 11t-3.5 12t6.5 10
t18 3.5t26 -0.5t31.5 -1z" />
    <glyph glyph-name="v" unicode="v" horiz-adv-x="629" 
d="M136 510q16 4 27 -3.5t9 -13.5t1.5 -23t9.5 -30q1 -3 8 -16.5t17 -33.5t23 -44t26 -49l69 -130q19 35 36.5 66t32.5 60l75 142q8 16 11 23t-4 7q-8 0 -12 2.5t-4 12.5t13.5 17t28.5 7q14 0 27.5 -0.5t31.5 3.5t25 -4.5t5 -17.5q-1 -10 -14.5 -13t-23.5 -5
q-5 -1 -15 -15.5t-23.5 -38t-29.5 -54.5t-33 -65q-18 -35 -39.5 -82t-40.5 -90.5t-32 -75.5t-13 -38q0 -7 -4.5 -10t-11 -2t-13 4.5t-10.5 10.5t-14 22t-23 35t-27 43.5t-26 48.5q-8 16 -21.5 44t-29.5 60.5t-32 66.5t-30 61.5t-23.5 46t-11.5 20.5q-6 6 -19 11t-22 7
q-5 0 -7 5t-1 11t6 11t14 5q15 0 32 -0.5t33 -1t29 0t20 2.5z" />
    <glyph glyph-name="w" unicode="w" horiz-adv-x="878" 
d="M93 502q42 -4 67.5 -3t51.5 3q13 1 18.5 -6t5.5 -15.5t-3.5 -16t-7.5 -7.5q-10 0 -18 -8t0 -19l60 -107l52 -96l40 74q16 29 30 58t17 41t10 19.5t15 10t16 -0.5t13 -11q2 -5 9 -17.5t17.5 -30.5t22.5 -39t24 -43l63 -113l56 120q11 23 22 45.5t20 41t15.5 31.5l8.5 17
q9 15 -2 27.5t-30 14.5q-9 1 -13 5.5t-5.5 9.5t-1 10.5t1.5 9.5t11 4t24 -1.5t29.5 -3.5t27.5 -2q24 0 43.5 3t43.5 5q12 1 14.5 -6t-1 -15.5t-10.5 -16t-13 -7.5q-13 0 -31 -4t-26 -13q-3 -3 -16.5 -35t-33 -78t-42 -100l-42.5 -102t-35 -83t-19 -43q-14 -25 -26 -28
t-29 18q-4 5 -12.5 18t-19 30.5t-23.5 38.5l-26 42q-15 25 -31.5 52t-33.5 57q-14 -29 -27.5 -55.5t-24.5 -50.5q-10 -20 -19.5 -40.5t-17.5 -38t-13.5 -30t-6.5 -16.5q-6 -17 -20 -8.5t-22 30.5q-2 5 -10.5 26t-21 51.5t-28 68t-31.5 75.5l-83 201l-22 6q-9 2 -18 4.5
t-14 4.5q-6 2 -8.5 9t-2 15t3 14t7.5 6q9 0 25 -1.5t56 -5.5z" />
    <glyph glyph-name="x" unicode="x" horiz-adv-x="612" 
d="M126 509q19 -2 43 2t39 6t20 -9t5 -22q0 -10 -6.5 -18.5t-3.5 -17.5q1 -3 25 -35.5t59 -78.5q30 35 51 59t25 28q12 11 20 24t-1 19t-8.5 20t4.5 21q3 7 21 8.5t38 1.5h97q18 0 18.5 -5.5t2.5 -14.5q2 -8 -0.5 -22t-11.5 -13q-5 0 -14.5 -1.5t-20 -3.5t-20 -4t-13.5 -4
q-2 -1 -15 -14.5t-34 -36t-47.5 -51.5t-54.5 -60q27 -36 53.5 -71.5t48.5 -65t37.5 -50t19.5 -25.5q7 -11 11.5 -17t9.5 -9.5t11.5 -5t17.5 -2.5q22 -3 25 -11t1 -20q0 -6 -6.5 -8.5t-16.5 -3t-21.5 0.5t-21.5 3q-21 4 -43.5 1.5t-53.5 -4.5q-32 -2 -49.5 1t-17.5 22
q0 7 5.5 10.5t10.5 6t8 5.5t-2 9q-4 5 -21 29t-39 56q-5 8 -17 24.5l-28 38.5q-23 -26 -43.5 -49t-36 -40t-25.5 -28t-11 -12q-6 -8 -9 -14t3 -8q5 -2 11.5 -12t7.5 -16q2 -6 -4 -13t-20 -7t-27.5 1t-27.5 3q-14 1 -29 -2t-32 -3q-16 0 -19 8t-3 24q0 15 16.5 18t31.5 3
q-2 0 0 0.5t7 1.5q3 2 7.5 4.5t10.5 7.5q3 3 17.5 19.5t36.5 41.5t49 56.5t55 64.5q-23 30 -47 63t-43.5 61t-32.5 47t-14 22q-7 8 -29 10t-43 10q-11 4 -13.5 11t0 14.5t9.5 13.5t15 8q9 1 20.5 1.5t24.5 0.5t25.5 -1t21.5 -2z" />
    <glyph glyph-name="y" unicode="y" horiz-adv-x="813" 
d="M174 506q18 1 41.5 1t45 -1.5t37.5 -4.5t18 -8q1 -5 0 -11.5t-3.5 -12.5t-7 -10t-10.5 -3q-11 2 -14 -9t8 -34q3 -7 13.5 -28t24.5 -50t31 -62t32.5 -64t28.5 -56t20 -37q40 60 75 118t62 106l58 104l-19 8q-19 8 -33 8q-7 0 -9.5 5.5t-2 12t3.5 12t8 5.5h74
q36 0 57.5 -1t43.5 5q10 3 16 0t8 -9t2.5 -13t0.5 -13q0 -5 -7.5 -8.5t-18 -6t-22 -4.5t-18.5 -3q-9 -2 -30 -31.5t-49.5 -74t-60.5 -97.5t-62 -103q-54 -89 -115 -160t-126 -126.5t-130.5 -95t-128 -65.5t-119.5 -38t-103 -12q-70 0 -110.5 17t-61.5 40t-26.5 46t-5.5 35
t3 28.5t12.5 32.5t26.5 28.5t46 15.5q18 2 36.5 -3t34.5 -16t27 -27.5t14 -37.5q4 -26 -10 -43t-31 -27q-20 -11 -46 -17q-6 -9 4 -16q8 -6 32 -10.5t75 -4.5t102 12t103.5 36t108 61.5t116.5 88.5q24 20 48.5 46.5t50.5 58.5l-231 463l-17 2q-8 1 -16 1.5t-15 0.5
q-14 0 -23.5 1.5t-17.5 18.5t5 27.5t30 10.5t43 -2t73 0z" />
    <glyph glyph-name="z" unicode="z" horiz-adv-x="620" 
d="M74 504h33.5t69 0.5t87 1.5t88 1.5t72 1.5t38.5 2q12 1 17.5 1t8.5 -2t4.5 -6.5t4.5 -11.5q3 -8 -0.5 -17t-10.5 -18t-16 -18l-16 -16q-5 -5 -22.5 -27t-41 -53.5t-51 -67.5t-52 -69.5t-43.5 -60t-26 -37.5q-21 -33 -30.5 -41t-1.5 -8h166q32 0 49.5 -0.5t28 0t17 3
t15.5 7.5t23 15t28 21.5t27 23t20 19.5t13.5 8.5t10.5 -3.5t4.5 -11t-5.5 -15t-16.5 -23.5t-21.5 -33.5t-19.5 -34.5t-9.5 -25.5q-2 -17 -14.5 -22.5t-23.5 -2.5q-5 1 -7 4t-3.5 6t-3.5 5t-8 2q-4 0 -29.5 -0.5t-62.5 -0.5t-80.5 -1t-82 -1t-67.5 -0.5t-38 -0.5
q-32 -1 -54 -0.5t-32 9.5q-13 12 -4 28t27 42q6 9 27.5 38t50.5 67.5t62 81.5t61 80.5t48 63.5t24 31q11 14 13 21.5t-11 7.5h-20t-37 -0.5t-45.5 -1t-45.5 -1.5t-36.5 -2t-18.5 -2q-5 -2 -15 -12t-21 -22.5t-21 -24.5l-15 -18q-11 -13 -21.5 -9t-8.5 15q3 12 7 24.5t9 41.5
q5 28 6 47.5t13 21.5q6 0 9.5 -3.5l7 -7t8 -7t11.5 -3.5z" />
    <glyph glyph-name="braceleft" unicode="{" 
 />
    <glyph glyph-name="bar" unicode="|" horiz-adv-x="142" 
d="M40 791h12.5t8 0.5t7.5 0.5h11q14 0 19.5 -4.5t5.5 -22.5q0 -47 1 -109t2 -132t2.5 -143.5t2.5 -143.5t1 -132t-1.5 -109t-4 -74t-7.5 -27h-16.5t-5.5 -0.5t-6 -0.5h-16q-4 0 -7.5 23.5t-6.5 63t-5.5 91.5t-4.5 108.5t-3 114.5t-1 110q0 70 0.5 139t2 124t4 89t5.5 34z
" />
    <glyph glyph-name="braceright" unicode="}" 
 />
    <glyph glyph-name="asciitilde" unicode="~" horiz-adv-x="410" 
d="M388 230q-12 -20 -37.5 -34.5t-70.5 -16.5q-28 -1 -48.5 8.5t-37.5 22.5t-33 24t-35 13q-18 2 -32.5 -2t-24.5 -11t-15.5 -14.5t-6.5 -13.5q-1 -5 -6.5 -7.5t-11.5 -1.5q-3 1 -9 3.5t-6 10.5q0 9 7.5 25t22.5 31.5t38 26.5t55 10q28 -1 46.5 -8t32 -15t26 -16t29.5 -11
q21 -4 34.5 -0.5t23.5 11.5t19 19.5t21 23.5q4 4 10.5 3t12 -5t9.5 -9.5t4 -8.5q-2 -16 -5 -30t-12 -28z" />
    <glyph glyph-name="uni007F" 
 />
    <glyph glyph-name="uni0081" 
 />
    <glyph glyph-name="uni008D" 
 />
    <glyph glyph-name="uni008E" 
 />
    <glyph glyph-name="uni008F" 
 />
    <glyph glyph-name="uni0090" 
 />
    <glyph glyph-name="uni009D" 
 />
    <glyph glyph-name="uni009E" 
 />
    <glyph glyph-name="uni00A0" unicode="&#xa0;" 
 />
    <glyph glyph-name="exclamdown" unicode="&#xa1;" horiz-adv-x="160" 
d="M59 -12q-30 0 -45.5 15t-20 42t-0.5 63.5t13 78.5q9 45 16.5 78.5t12 71t7 86.5t2.5 125q0 7 6.5 12.5t15 7t15.5 -3t7 -16.5q2 -61 3.5 -104.5t4 -75t5 -54t5.5 -42t7 -39t9 -44.5q7 -36 10 -72t-2.5 -64.5t-22 -46.5t-48.5 -18zM66 716q25 0 41 -16.5t16 -39.5
q0 -19 -15.5 -36t-41.5 -17t-41.5 14.5t-15.5 40.5q0 8 2.5 17.5t9 17.5t17.5 13.5t28 5.5z" />
    <glyph glyph-name="cent" unicode="&#xa2;" 
 />
    <glyph glyph-name="sterling" unicode="&#xa3;" 
 />
    <glyph glyph-name="currency" unicode="&#xa4;" 
 />
    <glyph glyph-name="yen" unicode="&#xa5;" 
 />
    <glyph glyph-name="brokenbar" unicode="&#xa6;" 
 />
    <glyph glyph-name="section" unicode="&#xa7;" 
 />
    <glyph glyph-name="dieresis" unicode="&#xa8;" 
 />
    <glyph glyph-name="copyright" unicode="&#xa9;" 
 />
    <glyph glyph-name="ordfeminine" unicode="&#xaa;" horiz-adv-x="182" 
d="M110 627q-7 10 -13.5 20.5t-13.5 19.5q-10 0 -21.5 -3t-16.5 -14q-6 -18 5.5 -33t28.5 -12q11 2 18.5 8t12.5 14zM185 602q2 -2 -3.5 -10.5t-17.5 -7.5q-24 1 -38 19q-2 3 -5 7t-6 9q-16 -29 -41 -34t-45 13q-10 9 -12.5 20t0 21t9 18t15.5 12q9 5 18.5 5.5t17.5 -0.5
q-4 5 -7.5 9t-5.5 6q-17 15 -30 9v-5v-7q0 -2 -4 -7t-10 -5q-7 0 -10.5 5t-3.5 11t8 12.5t25 5.5q11 0 27 -5.5t36 -26.5q20 -22 37.5 -40.5t25.5 -23.5q10 -8 14 -8t6 -2z" />
    <glyph glyph-name="guillemotleft" unicode="&#xab;" horiz-adv-x="364" 
d="M170 245q38 25 62.5 45.5t41.5 37.5q18 18 30 33t26 29l2 1h2q7 0 8.5 -4t1.5 -8l-5 -17q-5 -9 -12 -20.5t-17 -25.5q-16 -23 -33 -45t-25 -33q8 -11 25 -33t33 -45q10 -14 17 -25.5t12 -20.5l5 -17q0 -4 -1.5 -8t-8.5 -4h-2l-2 1q-14 14 -26 29t-30 35q-17 16 -41.5 36
t-62.5 45q-6 0 -6 7t6 7q38 25 62.5 45.5t41.5 37.5q18 18 30 33t26 29l2 1h2q7 0 8.5 -4t1.5 -8l-5 -17q-5 -9 -12 -20.5t-17 -25.5q-16 -23 -33 -45t-25 -33q8 -11 25 -33t33 -45q10 -14 17 -25.5t12 -20.5l5 -17q0 -4 -1.5 -8t-8.5 -4h-2l-2 1q-14 14 -26 29t-30 35
q-17 16 -41.5 36t-62.5 45q-6 0 -6 7t6 7zM23 245q40 25 65 45.5t42 37.5q17 18 29.5 33t26.5 29l2 1h1q7 0 9 -4t2 -8l-5 -17q-5 -9 -13 -20.5t-16 -25.5q-17 -23 -33.5 -45t-26.5 -33q10 -11 26.5 -33t33.5 -45q8 -14 16 -25.5t13 -20.5l5 -17q0 -4 -2 -8t-9 -4h-1l-2 1
q-14 14 -26.5 29t-29.5 35q-17 16 -42 36t-65 45l-2 2q-1 1 -1 5t1 5l2 2q40 25 65 45.5t42 37.5q17 18 29.5 33t26.5 29l2 1h1q7 0 9 -4t2 -8l-5 -17q-5 -9 -13 -20.5t-16 -25.5q-17 -23 -33.5 -45t-26.5 -33q10 -11 26.5 -33t33.5 -45q8 -14 16 -25.5t13 -20.5l5 -17
q0 -4 -2 -8t-9 -4h-1l-2 1q-14 14 -26.5 29t-29.5 35q-17 16 -42 36t-65 45l-2 2q-1 1 -1 5t1 5z" />
    <glyph glyph-name="logicalnot" unicode="&#xac;" 
 />
    <glyph glyph-name="uni00AD" unicode="&#xad;" 
 />
    <glyph glyph-name="registered" unicode="&#xae;" 
 />
    <glyph glyph-name="macron" unicode="&#xaf;" 
 />
    <glyph glyph-name="degree" unicode="&#xb0;" horiz-adv-x="182" 
d="M116 646q0 12 -8.5 20.5t-20.5 8.5q-17 0 -23.5 -10t-6.5 -18q0 -14 8.5 -21.5t21.5 -7.5q12 0 20.5 8.5t8.5 19.5zM150 647q0 -23 -8.5 -36t-19 -19t-21 -7.5t-14.5 -1.5q-5 0 -15 2t-20.5 8.5t-18.5 19.5t-8 34q0 19 7.5 31.5t17.5 19t21 9t18 2.5t17.5 -2t20.5 -8
t16.5 -18.5t6.5 -33.5z" />
    <glyph glyph-name="plusminus" unicode="&#xb1;" 
 />
    <glyph glyph-name="twosuperior" unicode="&#xb2;" 
 />
    <glyph glyph-name="threesuperior" unicode="&#xb3;" 
 />
    <glyph glyph-name="acute" unicode="&#xb4;" 
 />
    <glyph glyph-name="mu" unicode="&#xb5;" 
 />
    <glyph glyph-name="paragraph" unicode="&#xb6;" 
 />
    <glyph glyph-name="periodcentered" unicode="&#xb7;" 
 />
    <glyph glyph-name="cedilla" unicode="&#xb8;" 
 />
    <glyph glyph-name="onesuperior" unicode="&#xb9;" 
 />
    <glyph glyph-name="ordmasculine" unicode="&#xba;" horiz-adv-x="157" 
d="M118 652q-14 15 -33 26t-32 11q-6 0 -12.5 -3t-10 -9t-3.5 -14t7 -18q7 -11 18 -19t22.5 -13t21.5 -7t15 0q11 3 16 17t-9 29zM147 640q0 -26 -22 -41t-48 -15t-46.5 20.5t-20.5 47.5t19.5 42t44.5 15q33 0 53 -22t20 -47z" />
    <glyph glyph-name="guillemotright" unicode="&#xbb;" horiz-adv-x="364" 
d="M194 245q6 0 6 -7t-6 -7q-38 -25 -62.5 -45t-41.5 -36q-18 -20 -30 -35t-26 -29l-2 -1h-2q-7 0 -8.5 4t-1.5 8l5 17q5 9 12 20.5t17 25.5q16 23 33 45t25 33q-8 11 -25 33t-33 45q-10 14 -17 25.5t-12 20.5l-5 17q0 4 1.5 8t8.5 4h2l2 -1q14 -14 26 -29t30 -33
q17 -17 41.5 -37.5t62.5 -45.5q6 0 6 -7t-6 -7q-38 -25 -62.5 -45t-41.5 -36q-18 -20 -30 -35t-26 -29l-2 -1h-2q-7 0 -8.5 4t-1.5 8l5 17q5 9 12 20.5t17 25.5q16 23 33 45t25 33q-8 11 -25 33t-33 45q-10 14 -17 25.5t-12 20.5l-5 17q0 4 1.5 8t8.5 4h2l2 -1
q14 -14 26 -29t30 -33q17 -17 41.5 -37.5t62.5 -45.5zM341 245q0 -1 1 -2q2 -2 2 -5t-2 -5q-1 -1 -1 -2q-40 -25 -65 -45t-42 -36q-17 -20 -29.5 -35t-26.5 -29l-2 -1h-1q-7 0 -9 4t-2 8l5 17q5 9 13 20.5t16 25.5q17 23 33.5 45t26.5 33q-10 11 -26.5 33t-33.5 45
q-8 14 -16 25.5t-13 20.5l-5 17q0 4 2 8t9 4h1l2 -1q14 -14 26.5 -29t29.5 -33q17 -17 42 -37.5t65 -45.5q0 -1 1 -2q2 -2 2 -5t-2 -5q-1 -1 -1 -2q-40 -25 -65 -45t-42 -36q-17 -20 -29.5 -35t-26.5 -29l-2 -1h-1q-7 0 -9 4t-2 8l5 17q5 9 13 20.5t16 25.5q17 23 33.5 45
t26.5 33q-10 11 -26.5 33t-33.5 45q-8 14 -16 25.5t-13 20.5l-5 17q0 4 2 8t9 4h1l2 -1q14 -14 26.5 -29t29.5 -33q17 -17 42 -37.5t65 -45.5z" />
    <glyph glyph-name="onequarter" unicode="&#xbc;" 
 />
    <glyph glyph-name="onehalf" unicode="&#xbd;" 
 />
    <glyph glyph-name="threequarters" unicode="&#xbe;" 
 />
    <glyph glyph-name="questiondown" unicode="&#xbf;" horiz-adv-x="385" 
d="M197 581q-25 0 -42.5 16.5t-17.5 39.5q0 19 17 36t43 17t43.5 -14.5t17.5 -40.5q0 -8 -3 -17.5t-10 -17.5t-19 -13.5t-29 -5.5zM304 67q-10 0 -20 3q-8 2 -17 7.5t-14 16.5q-5 10 -5 22.5t5 24t16 20t28 11.5q14 2 26.5 -3.5t22 -17t15 -27t5.5 -33.5q-1 -50 -33 -79.5
t-76.5 -40.5t-92 -6t-79.5 23q-26 15 -43.5 37t-26.5 48.5t-9.5 56.5t6.5 60q9 38 26 68t37.5 55t42 46t40 40.5t31.5 38t16 39.5t-5 29.5t-18.5 12t-19.5 5t-7 8.5q1 7 7 9.5t13.5 2.5t15 -1t12.5 -2q12 -4 24 -17t16.5 -33.5t-3.5 -49t-35 -64.5q-32 -41 -51.5 -80
t-30 -72.5t-13.5 -60t-1 -44.5q5 -41 22 -65.5t39.5 -36t47.5 -11t45 8t32 21.5t9 30z" />
    <glyph glyph-name="Agrave" unicode="&#xc0;" horiz-adv-x="942" 
d="M305 799q-27 19 -31 42t7 38.5t33.5 18.5t48.5 -18q11 -9 20.5 -22.5t17.5 -28t14 -28.5t9 -23q7 -19 2 -24.5t-25 1.5q-17 6 -45 17t-51 27zM383 665q10 20 16 29t10.5 12t9 1.5t12.5 -2.5q16 -2 34 -23.5t39 -53.5l357 -561q10 -16 16 -22t10.5 -7.5t8.5 0t10 1.5
t8.5 -6.5t0.5 -14t-8 -13.5t-18 -6h-209q-9 0 -15 3.5t-9 8.5t-1 10.5t10 9.5q16 8 23.5 12.5t1.5 19.5q-3 6 -21 32.5t-44 62.5l-420 2q-17 -34 -28 -58t-14 -33q-4 -10 1 -16.5t13.5 -11t18.5 -7t17 -3.5q7 -2 12 -7t5.5 -10.5t-4.5 -10t-17 -4.5t-40 0.5t-59 1t-57 0
t-33 -1.5q-8 -2 -13 3t-5.5 12.5t4.5 14.5t18 10q26 6 42.5 11t25.5 19zM580 221q-17 23 -34 46.5t-31.5 44t-26 38t-18.5 28.5q-16 25 -32 51.5t-29 47.5t-22 32.5t-10 7.5q-1 -3 -15 -31.5t-35 -71.5t-45.5 -94t-47.5 -99h346z" />
    <glyph glyph-name="Aacute" unicode="&#xc1;" horiz-adv-x="942" 
d="M551 799q-23 -16 -51.5 -27t-44.5 -17q-20 -8 -24.5 -2t1.5 25q3 9 8.5 23t13.5 28.5t17.5 28t20.5 22.5q25 21 48 18t34 -18.5t7.5 -38.5t-30.5 -42zM383 665q10 20 16 29t10.5 12t9 1.5t12.5 -2.5q16 -2 34 -23.5t39 -53.5l357 -561q10 -16 16 -22t10.5 -7.5t8.5 0
t10 1.5t8.5 -6.5t0.5 -14t-8 -13.5t-18 -6h-209q-9 0 -15 3.5t-9 8.5t-1 10.5t10 9.5q16 8 23.5 12.5t1.5 19.5q-3 6 -21 32.5t-44 62.5l-420 2q-17 -34 -28 -58t-14 -33q-4 -10 1 -16.5t13.5 -11t18.5 -7t17 -3.5q7 -2 12 -7t5.5 -10.5t-4.5 -10t-17 -4.5t-40 0.5t-59 1
t-57 0t-33 -1.5q-8 -2 -13 3t-5.5 12.5t4.5 14.5t18 10q26 6 42.5 11t25.5 19zM580 221q-17 23 -34 46.5t-31.5 44t-26 38t-18.5 28.5q-16 25 -32 51.5t-29 47.5t-22 32.5t-10 7.5q-1 -3 -15 -31.5t-35 -71.5t-45.5 -94t-47.5 -99h346z" />
    <glyph glyph-name="Acircumflex" unicode="&#xc2;" horiz-adv-x="942" 
d="M391 758q-12 -12 -23 -19.5t-22 3.5l-17 17q-5 5 -1 12.5t12 18.5q18 26 36 55t43 52q6 6 11 4t10 -7.5t9.5 -12t7.5 -9.5q30 -36 52 -62.5t20 -41.5q-1 -2 -4.5 -7l-7 -10t-7 -9t-4.5 -5q-2 -2 -14 7t-26 21q-8 7 -17.5 14.5t-19.5 17.5zM383 665q10 20 16 29t10.5 12
t9 1.5t12.5 -2.5q16 -2 34 -23.5t39 -53.5l357 -561q10 -16 16 -22t10.5 -7.5t8.5 0t10 1.5t8.5 -6.5t0.5 -14t-8 -13.5t-18 -6h-209q-9 0 -15 3.5t-9 8.5t-1 10.5t10 9.5q16 8 23.5 12.5t1.5 19.5q-3 6 -21 32.5t-44 62.5l-420 2q-17 -34 -28 -58t-14 -33q-4 -10 1 -16.5
t13.5 -11t18.5 -7t17 -3.5q7 -2 12 -7t5.5 -10.5t-4.5 -10t-17 -4.5t-40 0.5t-59 1t-57 0t-33 -1.5q-8 -2 -13 3t-5.5 12.5t4.5 14.5t18 10q26 6 42.5 11t25.5 19zM580 221q-17 23 -34 46.5t-31.5 44t-26 38t-18.5 28.5q-16 25 -32 51.5t-29 47.5t-22 32.5t-10 7.5
q-1 -3 -15 -31.5t-35 -71.5t-45.5 -94t-47.5 -99h346z" />
    <glyph glyph-name="Atilde" unicode="&#xc3;" horiz-adv-x="942" 
d="M610 796q-13 -20 -38.5 -34.5t-70.5 -16.5q-28 -1 -48 8.5t-37 22.5t-33 24t-35 13t-33.5 -2t-24 -10.5t-15 -14t-6.5 -13.5q-2 -5 -7.5 -8t-11.5 -1q-3 0 -8.5 3t-5.5 11t7 24t22 31.5t38.5 26.5t55.5 10q28 -1 46 -7.5t32 -15t26.5 -16t29.5 -10.5q21 -4 34.5 -0.5
t23 11.5t18.5 19.5t21 23.5q4 4 10 2.5t12 -5.5t10 -9t4 -8q-1 -16 -4.5 -30.5t-11.5 -28.5zM383 665q10 20 16 29t10.5 12t9 1.5t12.5 -2.5q16 -2 34 -23.5t39 -53.5l357 -561q10 -16 16 -22t10.5 -7.5t8.5 0t10 1.5t8.5 -6.5t0.5 -14t-8 -13.5t-18 -6h-209q-9 0 -15 3.5
t-9 8.5t-1 10.5t10 9.5q16 8 23.5 12.5t1.5 19.5q-3 6 -21 32.5t-44 62.5l-420 2q-17 -34 -28 -58t-14 -33q-4 -10 1 -16.5t13.5 -11t18.5 -7t17 -3.5q7 -2 12 -7t5.5 -10.5t-4.5 -10t-17 -4.5t-40 0.5t-59 1t-57 0t-33 -1.5q-8 -2 -13 3t-5.5 12.5t4.5 14.5t18 10
q26 6 42.5 11t25.5 19zM580 221q-17 23 -34 46.5t-31.5 44t-26 38t-18.5 28.5q-16 25 -32 51.5t-29 47.5t-22 32.5t-10 7.5q-1 -3 -15 -31.5t-35 -71.5t-45.5 -94t-47.5 -99h346z" />
    <glyph glyph-name="Adieresis" unicode="&#xc4;" horiz-adv-x="942" 
d="M266 807q0 20 7.5 32t17.5 19t21 9t19 2q7 0 17.5 -1.5t20 -8t16 -19t6.5 -33.5q0 -23 -8.5 -36t-19 -19t-21 -7t-14.5 -1q-5 0 -15 2t-20.5 8.5t-18.5 19t-8 33.5zM509 869q28 0 48 -18.5t20 -44.5q0 -21 -19.5 -40t-48.5 -19t-49 16t-20 46q0 9 3.5 19.5t11.5 19.5
t21 15t33 6zM383 665q10 20 16 29t10.5 12t9 1.5t12.5 -2.5q16 -2 34 -23.5t39 -53.5l357 -561q10 -16 16 -22t10.5 -7.5t8.5 0t10 1.5t8.5 -6.5t0.5 -14t-8 -13.5t-18 -6h-209q-9 0 -15 3.5t-9 8.5t-1 10.5t10 9.5q16 8 23.5 12.5t1.5 19.5q-3 6 -21 32.5t-44 62.5l-420 2
q-17 -34 -28 -58t-14 -33q-4 -10 1 -16.5t13.5 -11t18.5 -7t17 -3.5q7 -2 12 -7t5.5 -10.5t-4.5 -10t-17 -4.5t-40 0.5t-59 1t-57 0t-33 -1.5q-8 -2 -13 3t-5.5 12.5t4.5 14.5t18 10q26 6 42.5 11t25.5 19zM580 221q-17 23 -34 46.5t-31.5 44t-26 38t-18.5 28.5
q-16 25 -32 51.5t-29 47.5t-22 32.5t-10 7.5q-1 -3 -15 -31.5t-35 -71.5t-45.5 -94t-47.5 -99h346z" />
    <glyph glyph-name="Aring" unicode="&#xc5;" horiz-adv-x="942" 
d="M455 807q0 13 -8.5 21.5t-20.5 8.5q-17 0 -23.5 -10t-6.5 -18q0 -14 8.5 -22t21.5 -8q12 0 20.5 9t8.5 19zM489 808q0 -23 -8.5 -36t-19 -19t-21 -7t-14.5 -1q-5 0 -15 2t-20.5 8.5t-18.5 19t-8 33.5q0 20 7.5 32t17.5 19t21 9t19 2q7 0 17.5 -1.5t20 -8t16 -19
t6.5 -33.5zM383 665q10 20 16 29t10.5 12t9 1.5t12.5 -2.5q16 -2 34 -23.5t39 -53.5l357 -561q10 -16 16 -22t10.5 -7.5t8.5 0t10 1.5t8.5 -6.5t0.5 -14t-8 -13.5t-18 -6h-209q-9 0 -15 3.5t-9 8.5t-1 10.5t10 9.5q16 8 23.5 12.5t1.5 19.5q-3 6 -21 32.5t-44 62.5l-420 2
q-17 -34 -28 -58t-14 -33q-4 -10 1 -16.5t13.5 -11t18.5 -7t17 -3.5q7 -2 12 -7t5.5 -10.5t-4.5 -10t-17 -4.5t-40 0.5t-59 1t-57 0t-33 -1.5q-8 -2 -13 3t-5.5 12.5t4.5 14.5t18 10q26 6 42.5 11t25.5 19zM580 221q-17 23 -34 46.5t-31.5 44t-26 38t-18.5 28.5
q-16 25 -32 51.5t-29 47.5t-22 32.5t-10 7.5q-1 -3 -15 -31.5t-35 -71.5t-45.5 -94t-47.5 -99h346z" />
    <glyph glyph-name="AE" unicode="&#xc6;" horiz-adv-x="982" 
d="M469 610q-1 -2 -13 -22.5t-30.5 -53t-41.5 -73.5t-46 -83.5t-44.5 -83.5t-36.5 -73h216zM473 158l-245 2q-17 -34 -30.5 -58t-16.5 -33q-4 -10 1 -16.5t13.5 -11t18.5 -7t17 -3.5q7 -2 12 -7t5.5 -10.5t-4.5 -10t-17 -4.5t-42.5 0.5t-64 1t-62 0.5t-35.5 -2q-8 -2 -13 3
t-5.5 12t4.5 14.5t18 10.5q26 6 43 10.5t25 19.5l311 590q6 10 19 10h30h66t84.5 0.5t87 0.5h73.5h43t19 2.5t17 10.5t15 -1t17 -22q5 -6 13 -18t16.5 -24.5t15 -23t8.5 -14.5q3 -8 0.5 -15.5t-10.5 -5.5t-20 14l-27 27t-32 17.5t-31 2.5h-22.5t-40.5 -0.5t-49 -0.5
t-48 -0.5t-37.5 -0.5h-17.5q-9 0 -9 -10v-89q0 -9 -1 -13t3 -4h213q9 0 10 6t-1 17t11.5 12t27.5 -14q7 -8 19 -21.5t24 -28t23 -27t16 -17.5q9 -10 4.5 -20.5t-13.5 -9.5q-10 1 -17.5 7.5t-24.5 23.5t-33.5 17.5t-31.5 0.5h-227q-11 0 -11 -10v-379q0 -6 3 -10.5t12 -4.5
h116h42.5h40.5t34 1.5t23 4.5t20 11.5t25.5 18t26.5 19.5t22 16t15.5 6.5t10.5 -2.5t5.5 -7.5t-0.5 -8.5q-6 -8 -20 -28t-26 -36q-23 -29 -34.5 -47t-16.5 -34q-5 -11 -16 -5.5t-16 16.5t-8.5 19t-11.5 8q-5 0 -24.5 0.5t-44 0.5t-48.5 0.5t-37 0.5h-28.5t-44.5 0.5t-52.5 1
t-51 1t-40.5 0.5h-21q-13 0 -11 13.5t14 19.5q12 5 25 15t13 26v83z" />
    <glyph glyph-name="Ccedilla" unicode="&#xc7;" horiz-adv-x="711" 
d="M415 -66q-20 0 -27.5 -3.5t-19.5 -4.5q-3 0 -3.5 6t0.5 15.5t3 20.5t4 21h-15q-54 0 -116.5 23t-115.5 69.5t-88 116.5t-35 165q0 63 18 111.5t46.5 84.5t65.5 60.5t74.5 40t72.5 22t61 6.5q39 0 70 -5t53.5 -10.5t35.5 -10.5t18 -5q15 -2 28 7t21 32q3 9 11 11.5t17 -3
t18 -19.5t14 -38q4 -19 12.5 -36t18.5 -32t19 -27t14 -21t1 -16t-13.5 -8.5t-23 4t-26.5 20.5q-10 12 -33 28.5t-55.5 32t-73 26t-85.5 10.5q-43 0 -81 -18.5t-67 -54t-48 -86.5t-23 -116q-4 -53 6 -105.5t36.5 -96t71.5 -73t111 -36.5q56 -6 98.5 7t72.5 33t47.5 40.5
t22.5 28.5q4 8 11 9.5t12.5 -3.5t6.5 -15.5t-7 -26.5q-26 -55 -93 -87t-161 -38q-2 -7 -3.5 -13.5t-3.5 -11.5l-4 -12l11 2q5 1 10.5 2t12.5 0q26 -2 35.5 -15t9.5 -31t-10.5 -29.5t-36.5 -11.5t-30.5 7t-6.5 13q-2 7 3 9q4 2 8.5 -3.5t21.5 -5.5q12 0 17.5 7t5 15t-6 15
t-15.5 7z" />
    <glyph glyph-name="Egrave" unicode="&#xc8;" horiz-adv-x="602" 
d="M163 799q-28 19 -31.5 42t8 38.5t34 18.5t47.5 -18q10 -9 20 -22.5t17.5 -28t13.5 -28t9 -23.5q6 -19 1.5 -25t-24.5 2q-16 6 -44 17t-51 27zM417 670q11 0 19 2.5t17 10.5t15 -1t17 -22q5 -6 13 -18t16.5 -24.5t15 -23t8.5 -14.5q3 -8 0.5 -15.5t-10.5 -5.5t-20 14
l-27 27t-32 17.5t-31 2.5h-22.5t-40.5 -0.5t-49 -0.5t-48 -0.5t-37.5 -0.5h-17.5q-9 0 -9 -10v-89q0 -9 -1 -13t3 -4h213q9 0 10 6t-1 17t11.5 12t27.5 -14q7 -8 19 -21.5t24 -28t23 -27t16 -17.5q9 -10 4.5 -20.5t-13.5 -9.5q-10 1 -17.5 7.5t-24.5 23.5t-33.5 17.5
t-31.5 0.5h-227q-11 0 -11 -10v-379q0 -6 3 -10.5t12 -4.5h116h42.5h40.5t34 1.5t23 4.5t20 11.5t25.5 18t26.5 19.5t22 16t15.5 6.5t10.5 -2.5t5.5 -7.5t-0.5 -8.5q-6 -8 -20 -28t-26 -36q-23 -29 -34.5 -47t-16.5 -34q-5 -11 -16 -5.5t-16 16.5t-8.5 19t-11.5 8
q-5 0 -24.5 0.5t-44 0.5t-48.5 0.5t-37 0.5h-29.5t-48.5 0.5t-57 1t-56 1t-44.5 0.5h-22.5q-13 0 -11 13.5t14 19.5q12 5 25 15.5t13 25.5q0 5 0.5 45.5t0.5 99t0.5 126.5t0.5 126t-0.5 98t-1.5 44q-1 7 -6.5 9.5t-13 4t-16 3.5t-14.5 7q-13 10 -11 19.5t13 10.5h31.5
t69.5 0.5t89.5 0.5t92 0.5t77 0.5h44.5z" />
    <glyph glyph-name="Eacute" unicode="&#xc9;" horiz-adv-x="602" 
d="M342 799q-23 -16 -51.5 -27t-44.5 -17q-20 -8 -24.5 -2t1.5 25q3 9 8.5 23t13.5 28.5t17.5 28t20.5 22.5q25 21 48 18t34 -18.5t7.5 -38.5t-30.5 -42zM417 670q11 0 19 2.5t17 10.5t15 -1t17 -22q5 -6 13 -18t16.5 -24.5t15 -23t8.5 -14.5q3 -8 0.5 -15.5t-10.5 -5.5
t-20 14l-27 27t-32 17.5t-31 2.5h-22.5t-40.5 -0.5t-49 -0.5t-48 -0.5t-37.5 -0.5h-17.5q-9 0 -9 -10v-89q0 -9 -1 -13t3 -4h213q9 0 10 6t-1 17t11.5 12t27.5 -14q7 -8 19 -21.5t24 -28t23 -27t16 -17.5q9 -10 4.5 -20.5t-13.5 -9.5q-10 1 -17.5 7.5t-24.5 23.5t-33.5 17.5
t-31.5 0.5h-227q-11 0 -11 -10v-379q0 -6 3 -10.5t12 -4.5h116h42.5h40.5t34 1.5t23 4.5t20 11.5t25.5 18t26.5 19.5t22 16t15.5 6.5t10.5 -2.5t5.5 -7.5t-0.5 -8.5q-6 -8 -20 -28t-26 -36q-23 -29 -34.5 -47t-16.5 -34q-5 -11 -16 -5.5t-16 16.5t-8.5 19t-11.5 8
q-5 0 -24.5 0.5t-44 0.5t-48.5 0.5t-37 0.5h-29.5t-48.5 0.5t-57 1t-56 1t-44.5 0.5h-22.5q-13 0 -11 13.5t14 19.5q12 5 25 15.5t13 25.5q0 5 0.5 45.5t0.5 99t0.5 126.5t0.5 126t-0.5 98t-1.5 44q-1 7 -6.5 9.5t-13 4t-16 3.5t-14.5 7q-13 10 -11 19.5t13 10.5h31.5
t69.5 0.5t89.5 0.5t92 0.5t77 0.5h44.5z" />
    <glyph glyph-name="Ecircumflex" unicode="&#xca;" horiz-adv-x="602" 
d="M203 758q-12 -12 -22.5 -19.5t-21.5 3.5l-17 17q-5 5 -0.5 12.5t11.5 18.5q17 26 36 54.5t43 52.5q5 5 10.5 3t10.5 -7t9.5 -11.5t7.5 -9.5q15 -17 28.5 -32.5t23.5 -29t15.5 -24.5t3.5 -18q0 -2 -3.5 -7t-7.5 -10t-7.5 -9t-4.5 -5q-2 -2 -14 7t-26 21q-8 7 -17 14.5
t-19 17.5zM417 670q11 0 19 2.5t17 10.5t15 -1t17 -22q5 -6 13 -18t16.5 -24.5t15 -23t8.5 -14.5q3 -8 0.5 -15.5t-10.5 -5.5t-20 14l-27 27t-32 17.5t-31 2.5h-22.5t-40.5 -0.5t-49 -0.5t-48 -0.5t-37.5 -0.5h-17.5q-9 0 -9 -10v-89q0 -9 -1 -13t3 -4h213q9 0 10 6t-1 17
t11.5 12t27.5 -14q7 -8 19 -21.5t24 -28t23 -27t16 -17.5q9 -10 4.5 -20.5t-13.5 -9.5q-10 1 -17.5 7.5t-24.5 23.5t-33.5 17.5t-31.5 0.5h-227q-11 0 -11 -10v-379q0 -6 3 -10.5t12 -4.5h116h42.5h40.5t34 1.5t23 4.5t20 11.5t25.5 18t26.5 19.5t22 16t15.5 6.5t10.5 -2.5
t5.5 -7.5t-0.5 -8.5q-6 -8 -20 -28t-26 -36q-23 -29 -34.5 -47t-16.5 -34q-5 -11 -16 -5.5t-16 16.5t-8.5 19t-11.5 8q-5 0 -24.5 0.5t-44 0.5t-48.5 0.5t-37 0.5h-29.5t-48.5 0.5t-57 1t-56 1t-44.5 0.5h-22.5q-13 0 -11 13.5t14 19.5q12 5 25 15.5t13 25.5q0 5 0.5 45.5
t0.5 99t0.5 126.5t0.5 126t-0.5 98t-1.5 44q-1 7 -6.5 9.5t-13 4t-16 3.5t-14.5 7q-13 10 -11 19.5t13 10.5h31.5t69.5 0.5t89.5 0.5t92 0.5t77 0.5h44.5z" />
    <glyph glyph-name="Edieresis" unicode="&#xcb;" horiz-adv-x="602" 
d="M75 807q0 20 7.5 32t17.5 19t21 9t19 2q7 0 17.5 -1.5t20 -8t16 -19t6.5 -33.5q0 -23 -8.5 -36t-19 -19t-21 -7t-14.5 -1q-5 0 -15 2t-20.5 8.5t-18.5 19t-8 33.5zM318 869q28 0 48 -18.5t20 -44.5q0 -21 -19.5 -40t-48.5 -19t-49 16t-20 46q0 9 3.5 19.5t11.5 19.5
t21 15t33 6zM417 670q11 0 19 2.5t17 10.5t15 -1t17 -22q5 -6 13 -18t16.5 -24.5t15 -23t8.5 -14.5q3 -8 0.5 -15.5t-10.5 -5.5t-20 14l-27 27t-32 17.5t-31 2.5h-22.5t-40.5 -0.5t-49 -0.5t-48 -0.5t-37.5 -0.5h-17.5q-9 0 -9 -10v-89q0 -9 -1 -13t3 -4h213q9 0 10 6t-1 17
t11.5 12t27.5 -14q7 -8 19 -21.5t24 -28t23 -27t16 -17.5q9 -10 4.5 -20.5t-13.5 -9.5q-10 1 -17.5 7.5t-24.5 23.5t-33.5 17.5t-31.5 0.5h-227q-11 0 -11 -10v-379q0 -6 3 -10.5t12 -4.5h116h42.5h40.5t34 1.5t23 4.5t20 11.5t25.5 18t26.5 19.5t22 16t15.5 6.5t10.5 -2.5
t5.5 -7.5t-0.5 -8.5q-6 -8 -20 -28t-26 -36q-23 -29 -34.5 -47t-16.5 -34q-5 -11 -16 -5.5t-16 16.5t-8.5 19t-11.5 8q-5 0 -24.5 0.5t-44 0.5t-48.5 0.5t-37 0.5h-29.5t-48.5 0.5t-57 1t-56 1t-44.5 0.5h-22.5q-13 0 -11 13.5t14 19.5q12 5 25 15.5t13 25.5q0 5 0.5 45.5
t0.5 99t0.5 126.5t0.5 126t-0.5 98t-1.5 44q-1 7 -6.5 9.5t-13 4t-16 3.5t-14.5 7q-13 10 -11 19.5t13 10.5h31.5t69.5 0.5t89.5 0.5t92 0.5t77 0.5h44.5z" />
    <glyph glyph-name="Igrave" unicode="&#xcc;" horiz-adv-x="261" 
d="M30 799q-27 19 -30.5 42t8 38.5t33.5 18.5t47 -18q10 -9 20 -22.5t18 -28t14 -28.5t9 -23q7 -19 2 -24.5t-25 1.5q-17 6 -45 17t-51 27zM144 670q18 0 38.5 1.5t37.5 2.5t29 1t13 -3q2 -7 3 -17t-9 -10t-16.5 -5.5t-6.5 -13.5v-567q0 -11 6 -15.5t13.5 -7t13.5 -5.5
t6 -11q0 -14 -4 -18.5t-17 -4.5t-40 1t-50 1t-34 -2t-31 -2h-11t-12 1.5t-10 6t-4 14.5q0 8 5 10.5t11.5 5t11.5 9t5 22.5q0 4 -0.5 45t-1 100.5t-1.5 128t-1.5 128.5t-1 102t-0.5 48q0 17 -11.5 19.5t-29.5 2.5q-5 0 -8 6t-3 12.5t2.5 12.5t7.5 6q7 0 19.5 -1t26.5 -1.5
t28.5 -1.5t25.5 -1z" />
    <glyph glyph-name="Iacute" unicode="&#xcd;" horiz-adv-x="261" 
d="M220 799q-23 -16 -51 -27t-45 -17q-20 -7 -25 -1.5t2 24.5q3 9 9 23t14 28.5t17.5 28t20.5 22.5q25 21 47.5 18t34 -18.5t7.5 -38.5t-31 -42zM108 670q18 0 38.5 1.5t37.5 2.5t29 1t13 -3q2 -7 3 -17t-9 -10t-16.5 -5.5t-6.5 -13.5v-567q0 -11 6 -15.5t13.5 -7t13.5 -5.5
t6 -11q0 -14 -4 -18.5t-17 -4.5t-40 1t-50 1t-34 -2t-31 -2h-11t-12 1.5t-10 6t-4 14.5q0 8 5 10.5t11.5 5t11.5 9t5 22.5q0 4 -0.5 45t-1 100.5t-1.5 128t-1.5 128.5t-1 102t-0.5 48q0 17 -11.5 19.5t-29.5 2.5q-5 0 -8 6t-3 12.5t2.5 12.5t7.5 6q7 0 19.5 -1t26.5 -1.5
t28.5 -1.5t25.5 -1z" />
    <glyph glyph-name="Icircumflex" unicode="&#xce;" horiz-adv-x="261" 
d="M70 758q-12 -12 -23 -19.5t-22 3.5l-17 17q-5 5 -1 12.5t12 18.5q18 26 37 54.5t43 52.5q5 5 10.5 3t10.5 -7t9.5 -11.5t7.5 -9.5q14 -17 27.5 -32.5t24 -29t16 -24.5t3.5 -18q0 -2 -3.5 -7t-7.5 -10t-7.5 -9t-4.5 -5q-2 -2 -14 7t-26 21q-8 7 -17 14.5t-19 17.5z
M108 670q18 0 38.5 1.5t37.5 2.5t29 1t13 -3q2 -7 3 -17t-9 -10t-16.5 -5.5t-6.5 -13.5v-567q0 -11 6 -15.5t13.5 -7t13.5 -5.5t6 -11q0 -14 -4 -18.5t-17 -4.5t-40 1t-50 1t-34 -2t-31 -2h-11t-12 1.5t-10 6t-4 14.5q0 8 5 10.5t11.5 5t11.5 9t5 22.5q0 4 -0.5 45t-1 100.5
t-1.5 128t-1.5 128.5t-1 102t-0.5 48q0 17 -11.5 19.5t-29.5 2.5q-5 0 -8 6t-3 12.5t2.5 12.5t7.5 6q7 0 19.5 -1t26.5 -1.5t28.5 -1.5t25.5 -1z" />
    <glyph glyph-name="Idieresis" unicode="&#xcf;" horiz-adv-x="261" 
d="M-3 807q0 20 7.5 32t17.5 19t21 9t18 2t17.5 -1.5t20.5 -8t16.5 -19t6.5 -33.5q0 -23 -8.5 -36t-19.5 -19t-21.5 -7t-14.5 -1t-14 2t-20.5 8.5t-18.5 19t-8 33.5zM239 869q29 0 49 -18.5t20 -44.5q0 -21 -20 -40t-49 -19t-49 16t-20 46q0 9 3.5 19.5t11.5 19.5t21 15
t33 6zM138 670q18 0 38.5 1.5t37.5 2.5t29 1t13 -3q2 -7 3 -17t-9 -10t-16.5 -5.5t-6.5 -13.5v-567q0 -11 6 -15.5t13.5 -7t13.5 -5.5t6 -11q0 -14 -4 -18.5t-17 -4.5t-40 1t-50 1t-34 -2t-31 -2h-11t-12 1.5t-10 6t-4 14.5q0 8 5 10.5t11.5 5t11.5 9t5 22.5q0 4 -0.5 45
t-1 100.5t-1.5 128t-1.5 128.5t-1 102t-0.5 48q0 17 -11.5 19.5t-29.5 2.5q-5 0 -8 6t-3 12.5t2.5 12.5t7.5 6q7 0 19.5 -1t26.5 -1.5t28.5 -1.5t25.5 -1z" />
    <glyph glyph-name="Eth" unicode="&#xd0;" 
 />
    <glyph glyph-name="Ntilde" unicode="&#xd1;" horiz-adv-x="656" 
d="M404 680q-27 0 -49.5 12t-44 25.5t-43.5 24.5t-49 10q-29 -2 -44.5 -18.5t-29.5 -39.5q-5 -8 -11 -8t-11 3.5t-8 9t-1 9.5q16 42 44 68.5t76 29.5q28 2 56 -5t52 -15q14 -5 31.5 -13.5t43.5 -6.5q11 1 23 6t21.5 11t17 12t9.5 9q3 4 10 3.5t12 -2.5q3 -2 7.5 -6t4.5 -10
q0 -4 -2 -21.5t-13.5 -37t-35 -35t-66.5 -15.5zM645 652q3 -7 -6.5 -15.5t-20.5 -9.5q-12 -1 -20.5 -6.5t-8.5 -12.5q0 -4 -0.5 -29.5t-0.5 -58.5t-0.5 -65.5t-0.5 -50.5v-44t0.5 -73.5t1 -87t1 -85t0.5 -67v-33.5q0 -9 -5 -12.5t-11.5 -4t-13 1.5t-10.5 5q-8 6 -29.5 33.5
t-53.5 59.5l-340 344q-8 8 -11 12t-3 -1v-370q0 -16 13 -28.5t31 -16.5q9 -2 12 -7.5t1.5 -11.5t-5.5 -10.5t-8 -4.5q-9 0 -32.5 -1t-58.5 -1t-47 2t-17 9q-5 6 4 15t22 10t22 8.5t9 20.5v34t0.5 62.5t0.5 69v55.5v44t-0.5 68t-0.5 79t-0.5 76.5t-0.5 61v32.5q0 10 4.5 13.5
t10.5 3.5t12.5 -3t10.5 -7l425 -444q9 -9 13 -8.5t4 6.5v396q0 14 -14 19.5t-29 7.5q-16 3 -16.5 10t7.5 18q8 10 25 10.5t38 0.5t35.5 -2t31.5 0t21.5 -3.5t7.5 -13.5z" />
    <glyph glyph-name="Ograve" unicode="&#xd2;" horiz-adv-x="713" 
d="M274 799q-27 19 -31 42t7.5 39t33.5 18.5t48 -18.5q10 -9 20 -22t17.5 -27.5t13.5 -28.5t9 -24q6 -19 2 -24.5t-24 1.5q-17 6 -45 17t-51 27zM566 132q37 41 44.5 90.5t-6.5 100t-47 97.5t-76 83q-40 33 -86.5 57t-93.5 32t-91.5 -3.5t-80.5 -49.5q-35 -37 -44.5 -82
t0.5 -91.5t36 -92t61 -82.5q39 -42 90 -72t103.5 -41t102.5 0.5t88 53.5zM698 359q4 -73 -20.5 -139t-70.5 -116.5t-110 -81t-138 -31.5q-70 -2 -133.5 24t-112 72t-78 107.5t-31.5 131.5q-3 72 23.5 136.5t73.5 113.5t110.5 78t134.5 30q72 1 134 -23.5t109 -68
t75.5 -103.5t33.5 -130z" />
    <glyph glyph-name="Oacute" unicode="&#xd3;" horiz-adv-x="713" 
d="M436 799q-23 -16 -51 -27t-45 -17q-20 -7 -24.5 -1.5t1.5 24.5q3 9 8.5 23t13.5 28.5t17.5 28t20.5 22.5q25 21 48 18t34 -18.5t7.5 -38.5t-30.5 -42zM566 132q37 41 44.5 90.5t-6.5 100t-47 97.5t-76 83q-40 33 -86.5 57t-93.5 32t-91.5 -3.5t-80.5 -49.5
q-35 -37 -44.5 -82t0.5 -91.5t36 -92t61 -82.5q39 -42 90 -72t103.5 -41t102.5 0.5t88 53.5zM698 359q4 -73 -20.5 -139t-70.5 -116.5t-110 -81t-138 -31.5q-70 -2 -133.5 24t-112 72t-78 107.5t-31.5 131.5q-3 72 23.5 136.5t73.5 113.5t110.5 78t134.5 30q72 1 134 -23.5
t109 -68t75.5 -103.5t33.5 -130z" />
    <glyph glyph-name="Ocircumflex" unicode="&#xd4;" horiz-adv-x="713" 
d="M304 758q-12 -12 -23 -19.5t-22 3.5l-17 17q-5 5 -1 12.5t12 18.5q18 26 37 54.5t43 52.5q5 5 10.5 3t10.5 -7.5t9 -11.5t7 -9q15 -17 28.5 -32.5t24 -29t16 -24.5t3.5 -18q0 -2 -3.5 -7t-7.5 -10t-7.5 -9t-4.5 -5q-2 -2 -14 7t-26 21q-8 7 -17 14.5t-19 17.5zM566 132
q37 41 44.5 90.5t-6.5 100t-47 97.5t-76 83q-40 33 -86.5 57t-93.5 32t-91.5 -3.5t-80.5 -49.5q-35 -37 -44.5 -82t0.5 -91.5t36 -92t61 -82.5q39 -42 90 -72t103.5 -41t102.5 0.5t88 53.5zM698 359q4 -73 -20.5 -139t-70.5 -116.5t-110 -81t-138 -31.5q-70 -2 -133.5 24
t-112 72t-78 107.5t-31.5 131.5q-3 72 23.5 136.5t73.5 113.5t110.5 78t134.5 30q72 1 134 -23.5t109 -68t75.5 -103.5t33.5 -130z" />
    <glyph glyph-name="Otilde" unicode="&#xd5;" horiz-adv-x="713" 
d="M566 132q37 41 44.5 90.5t-6.5 100t-47 97.5t-76 83q-40 33 -86.5 57t-93.5 32t-91.5 -3.5t-80.5 -49.5q-35 -37 -44.5 -82t0.5 -91.5t36 -92t61 -82.5q39 -42 90 -72t103.5 -41t102.5 0.5t88 53.5zM698 359q4 -73 -20.5 -139t-70.5 -116.5t-110 -81t-138 -31.5
q-70 -2 -133.5 24t-112 72t-78 107.5t-31.5 131.5q-3 72 23.5 136.5t73.5 113.5t110.5 78t134.5 30q72 1 134 -23.5t109 -68t75.5 -103.5t33.5 -130z" />
    <glyph glyph-name="Odieresis" unicode="&#xd6;" horiz-adv-x="713" 
d="M188 807q0 20 7.5 32t17.5 19t21 9t19 2q7 0 17.5 -1.5t20 -8t16 -19t6.5 -33.5q0 -23 -8.5 -36t-19 -19t-21 -7t-14.5 -1q-5 0 -15 2t-20.5 8.5t-18.5 19t-8 33.5zM431 869q28 0 48 -18.5t20 -44.5q0 -21 -19.5 -40t-48.5 -19t-49 16t-20 46q0 9 3.5 19.5t11.5 19.5
t21 15t33 6zM566 132q37 41 44.5 90.5t-6.5 100t-47 97.5t-76 83q-40 33 -86.5 57t-93.5 32t-91.5 -3.5t-80.5 -49.5q-35 -37 -44.5 -82t0.5 -91.5t36 -92t61 -82.5q39 -42 90 -72t103.5 -41t102.5 0.5t88 53.5zM698 359q4 -73 -20.5 -139t-70.5 -116.5t-110 -81t-138 -31.5
q-70 -2 -133.5 24t-112 72t-78 107.5t-31.5 131.5q-3 72 23.5 136.5t73.5 113.5t110.5 78t134.5 30q72 1 134 -23.5t109 -68t75.5 -103.5t33.5 -130z" />
    <glyph glyph-name="multiply" unicode="&#xd7;" horiz-adv-x="350" 
d="M26 102q-3 0 5 12.5t23.5 32.5t36.5 45.5t43 51.5q-13 17 -27 34.5t-25 31.5t-18.5 24t-8.5 12q-3 3 -6.5 9t-6.5 12t-4 10.5t3 5.5q9 2 14 1.5t15 -2.5q11 -2 14.5 -0.5t11.5 1.5q3 0 7.5 -5t9 -11t8.5 -11.5t5 -6.5q0 -1 15 -19.5t32 -40.5q30 35 53 61.5t30 32.5
q3 4 10.5 4.5t16.5 -0.5t17 -2.5t11 -1.5q5 -1 4 -5.5t-4 -10.5t-7 -12t-5 -9q-6 -12 -30 -42.5t-54 -66.5q14 -17 27.5 -33t24.5 -29t18.5 -22t9.5 -12q2 -4 7 -11t9 -13.5t5 -11t-5 -3.5q-11 2 -29.5 0t-35.5 -2q-1 0 -9 9.5t-19 23t-23 29.5l-21 28q-32 -37 -56 -63.5
t-27 -26.5q-17 0 -35.5 -0.5t-29.5 2.5z" />
    <glyph glyph-name="Oslash" unicode="&#xd8;" horiz-adv-x="713" 
d="M616 690q6 -6 9.5 -9t6 -5t5.5 -4t8 -7q11 -11 11.5 -17t-11.5 -20q-10 -11 -21 -23t-23 -25q42 -45 67 -100t30 -121q4 -73 -20.5 -139t-70.5 -116.5t-110 -81t-138 -31.5q-63 -2 -120 18t-103 56q-35 -37 -57.5 -57.5t-26.5 -16.5q-9 9 -12 11.5t-4.5 3.5t-4.5 3.5
t-12 11.5q-4 4 14.5 29.5t50.5 65.5q-35 43 -56.5 96.5t-23.5 113.5q-2 72 24 136.5t72.5 113.5t110 78t135.5 30q57 1 106.5 -14t91.5 -43q31 31 50.5 48t21.5 15zM509 478q-35 -39 -72 -81t-74.5 -84t-73.5 -82t-69 -76q38 -32 84.5 -53.5t93.5 -27.5t91 7t77 51
q34 39 43 84t-1 90.5t-36.5 89.5t-62.5 82zM164 211q45 51 92 103.5t89 100.5q26 29 52 57.5t52 55.5q-39 27 -81.5 45t-85 21.5t-82 -9t-71.5 -46.5q-33 -35 -43 -76.5t-3 -85t28.5 -86.5t52.5 -80z" />
    <glyph glyph-name="Ugrave" unicode="&#xd9;" horiz-adv-x="594" 
d="M231 799q-27 19 -31 42t7 38.5t33.5 18.5t48.5 -18q11 -9 20.5 -22.5t17.5 -28t14 -28.5t9 -23q7 -19 2 -24.5t-25 1.5q-17 6 -45 17t-51 27zM29 671h23.5h36.5t39.5 1t32.5 3q38 5 53.5 -2t17.5 -21t-9 -22.5t-19 -10.5t-14 -7.5t-7 -20.5q-1 -5 -1.5 -26.5t-0.5 -51.5
t0.5 -65.5t0.5 -68.5t0.5 -60.5t0.5 -41.5t0.5 -34t4.5 -43t11.5 -46t22 -42t36.5 -31t54 -13q48 -2 80 15.5t50.5 42t26.5 49t8 37.5q0 5 0.5 32t0.5 64.5t0.5 80.5t0.5 81.5t-0.5 66.5t-1.5 36q-2 23 -7.5 39t-28.5 22q-12 3 -15.5 8.5t-3 10.5t4 9.5t6.5 5.5
q8 2 26.5 3.5t55.5 1.5q18 0 29.5 -1t17.5 -3.5t8.5 -5t3.5 -5.5q1 -6 -6 -15.5t-17 -11.5q-10 -3 -16 -8t-4 -14q1 -4 1.5 -30t0 -65t-1 -85t-1 -90t-2 -80.5t-2.5 -56.5q-2 -29 -17 -66t-44 -70t-73 -55.5t-103 -21.5q-58 1 -100 27.5t-69 61t-41 69.5t-17 53
q-2 12 -2.5 41t-1 67t0 80t1 79.5t1.5 66t2 39.5q0 17 -3 26.5t-8 15t-12.5 8.5t-17.5 8q-11 4 -13.5 11t-0.5 13.5t8 11t13 4.5z" />
    <glyph glyph-name="Uacute" unicode="&#xda;" horiz-adv-x="594" 
d="M436 799q-23 -16 -51 -27t-45 -17q-20 -7 -24.5 -1.5t1.5 24.5q3 9 8.5 23t13.5 28.5t17.5 28t20.5 22.5q25 21 48 18t34 -18.5t7.5 -38.5t-30.5 -42zM29 671h23.5h36.5t39.5 1t32.5 3q38 5 53.5 -2t17.5 -21t-9 -22.5t-19 -10.5t-14 -7.5t-7 -20.5q-1 -5 -1.5 -26.5
t-0.5 -51.5t0.5 -65.5t0.5 -68.5t0.5 -60.5t0.5 -41.5t0.5 -34t4.5 -43t11.5 -46t22 -42t36.5 -31t54 -13q48 -2 80 15.5t50.5 42t26.5 49t8 37.5q0 5 0.5 32t0.5 64.5t0.5 80.5t0.5 81.5t-0.5 66.5t-1.5 36q-2 23 -7.5 39t-28.5 22q-12 3 -15.5 8.5t-3 10.5t4 9.5t6.5 5.5
q8 2 26.5 3.5t55.5 1.5q18 0 29.5 -1t17.5 -3.5t8.5 -5t3.5 -5.5q1 -6 -6 -15.5t-17 -11.5q-10 -3 -16 -8t-4 -14q1 -4 1.5 -30t0 -65t-1 -85t-1 -90t-2 -80.5t-2.5 -56.5q-2 -29 -17 -66t-44 -70t-73 -55.5t-103 -21.5q-58 1 -100 27.5t-69 61t-41 69.5t-17 53
q-2 12 -2.5 41t-1 67t0 80t1 79.5t1.5 66t2 39.5q0 17 -3 26.5t-8 15t-12.5 8.5t-17.5 8q-11 4 -13.5 11t-0.5 13.5t8 11t13 4.5z" />
    <glyph glyph-name="Ucircumflex" unicode="&#xdb;" horiz-adv-x="594" 
d="M284 758q-12 -13 -23 -20t-22 4l-17 17q-5 5 -1 12.5t12 18.5q18 26 36 55t43 52q6 6 11 4t10 -7.5t9.5 -12t7.5 -9.5q30 -36 52 -62.5t20 -41.5q-1 -2 -4.5 -7l-7 -10t-7 -9t-4.5 -5q-2 -2 -14 7t-26 21q-8 7 -17.5 14.5t-19.5 17.5zM29 671h23.5h36.5t39.5 1t32.5 3
q38 5 53.5 -2t17.5 -21t-9 -22.5t-19 -10.5t-14 -7.5t-7 -20.5q-1 -5 -1.5 -26.5t-0.5 -51.5t0.5 -65.5t0.5 -68.5t0.5 -60.5t0.5 -41.5t0.5 -34t4.5 -43t11.5 -46t22 -42t36.5 -31t54 -13q48 -2 80 15.5t50.5 42t26.5 49t8 37.5q0 5 0.5 32t0.5 64.5t0.5 80.5t0.5 81.5
t-0.5 66.5t-1.5 36q-2 23 -7.5 39t-28.5 22q-12 3 -15.5 8.5t-3 10.5t4 9.5t6.5 5.5q8 2 26.5 3.5t55.5 1.5q18 0 29.5 -1t17.5 -3.5t8.5 -5t3.5 -5.5q1 -6 -6 -15.5t-17 -11.5q-10 -3 -16 -8t-4 -14q1 -4 1.5 -30t0 -65t-1 -85t-1 -90t-2 -80.5t-2.5 -56.5q-2 -29 -17 -66
t-44 -70t-73 -55.5t-103 -21.5q-58 1 -100 27.5t-69 61t-41 69.5t-17 53q-2 12 -2.5 41t-1 67t0 80t1 79.5t1.5 66t2 39.5q0 17 -3 26.5t-8 15t-12.5 8.5t-17.5 8q-11 4 -13.5 11t-0.5 13.5t8 11t13 4.5z" />
    <glyph glyph-name="Udieresis" unicode="&#xdc;" horiz-adv-x="594" 
d="M148 807q0 20 7.5 32t18 19t21.5 9t18 2t17.5 -1.5t20 -8t16 -19t6.5 -33.5q0 -23 -8.5 -36t-19 -19t-21 -7t-14.5 -1q-5 0 -15 2t-20.5 8.5t-18.5 19t-8 33.5zM391 869q28 0 48 -18.5t20 -44.5q0 -21 -19.5 -40t-48.5 -19t-49 16t-20 46q0 9 3.5 19.5t11.5 19.5t21 15
t33 6zM29 671h23.5h36.5t39.5 1t32.5 3q38 5 53.5 -2t17.5 -21t-9 -22.5t-19 -10.5t-14 -7.5t-7 -20.5q-1 -5 -1.5 -26.5t-0.5 -51.5t0.5 -65.5t0.5 -68.5t0.5 -60.5t0.5 -41.5t0.5 -34t4.5 -43t11.5 -46t22 -42t36.5 -31t54 -13q48 -2 80 15.5t50.5 42t26.5 49t8 37.5
q0 5 0.5 32t0.5 64.5t0.5 80.5t0.5 81.5t-0.5 66.5t-1.5 36q-2 23 -7.5 39t-28.5 22q-12 3 -15.5 8.5t-3 10.5t4 9.5t6.5 5.5q8 2 26.5 3.5t55.5 1.5q18 0 29.5 -1t17.5 -3.5t8.5 -5t3.5 -5.5q1 -6 -6 -15.5t-17 -11.5q-10 -3 -16 -8t-4 -14q1 -4 1.5 -30t0 -65t-1 -85
t-1 -90t-2 -80.5t-2.5 -56.5q-2 -29 -17 -66t-44 -70t-73 -55.5t-103 -21.5q-58 1 -100 27.5t-69 61t-41 69.5t-17 53q-2 12 -2.5 41t-1 67t0 80t1 79.5t1.5 66t2 39.5q0 17 -3 26.5t-8 15t-12.5 8.5t-17.5 8q-11 4 -13.5 11t-0.5 13.5t8 11t13 4.5z" />
    <glyph glyph-name="Yacute" unicode="&#xdd;" horiz-adv-x="658" 
d="M451 799q-23 -16 -51.5 -27t-44.5 -17q-20 -8 -24.5 -2t1.5 25q3 9 8.5 23t13.5 28.5t17.5 28t20.5 22.5q25 21 48 18t34 -18.5t7.5 -38.5t-30.5 -42zM13 672h69.5t69.5 2q18 1 22 -3.5t6 -9.5t-2.5 -8.5t-9.5 -7.5q-8 -8 -9 -12.5t4 -14.5q2 -3 15 -21.5t30.5 -44.5
t38 -55t37.5 -54t29 -42t13 -18q3 -5 5.5 -9.5t4.5 -3.5t14 20t29 44q5 8 16.5 25t25.5 38.5t29 44t27.5 42t21 33t9.5 16.5q3 8 -3 12.5t-11 6.5t-4.5 8.5t4.5 9.5q6 7 25 4q5 -1 19.5 -2t31.5 -1.5t32.5 0t22.5 1.5q13 2 15.5 -0.5t4.5 -10.5t-1 -10t-17 -7
q-14 -4 -25.5 -6t-28.5 -13q-7 -5 -17.5 -15.5t-21.5 -24t-21.5 -27.5t-17.5 -25q-5 -8 -16.5 -25.5t-25.5 -40t-29.5 -47t-28 -45.5t-20.5 -36t-8 -18q-1 -5 -2 -35t-1.5 -67.5t-0.5 -73.5v-53q0 -34 8.5 -47.5t19.5 -18.5t13 -8t3 -9t0.5 -7.5t-8.5 -2.5q-9 0 -20 1t-33 1
h-103q-11 0 -13 2t-4 10q-4 13 12 20q7 2 12.5 11t5.5 20q0 6 1 25.5t2 43t1.5 46.5t0.5 36q-1 26 -2.5 48t-6.5 32q-1 3 -13.5 23.5t-31.5 50t-40.5 64.5t-41.5 65.5t-34.5 53.5t-18.5 29q-13 20 -26.5 37t-23.5 19t-12.5 4.5t-3.5 10.5q-1 7 -1 13.5t8 6.5z" />
    <glyph glyph-name="Thorn" unicode="&#xde;" 
 />
    <glyph glyph-name="germandbls" unicode="&#xdf;" horiz-adv-x="598" 
d="M540 495q-1 -46 -23.5 -74.5t-57 -43t-76.5 -15.5t-81 8q-40 9 -61 15.5t-32 11.5q-10 5 -15 10l-1 -70q-2 -6 -22 -1q-11 3 -29 0t-27 -5q-8 -2 -10.5 0t-2.5 8v31t-0.5 63t-1 68t-1.5 47q-2 27 -12 36t-19 5q-9 -5 -10 -3l-3 6q-2 5 -1.5 6t5.5 6q2 1 23.5 13.5
t56 27.5t79 27t94.5 12q49 0 91 -12t73 -35.5t48 -59t16 -82.5zM577 190q-2 -59 -27.5 -97.5t-63.5 -62t-82.5 -32.5t-83.5 -8q-37 1 -71.5 9.5t-62.5 19t-46.5 20t-22.5 11.5q-14 7 -30 19.5t-30.5 30.5t-24.5 41.5t-11 53.5q-2 43 15.5 69.5t41 40.5t45.5 18.5t29 4.5
q35 0 55 -9t29.5 -20t11.5 -21t2 -13t-1 -9.5t-5 -13.5t-12 -13t-21 -7q-14 -1 -23.5 3t-15 9.5t-8 11t-2.5 7.5q1 5 4 5.5t5 3.5q1 2 1.5 8t-2.5 12t-10 10.5t-21 3.5q-26 -2 -44 -13t-29 -26t-15.5 -31t-4.5 -28q2 -53 39 -92q33 -35 83 -52.5t101 -20.5q39 -2 76.5 6
t67 27.5t47.5 50.5t20 75q1 43 -13.5 73.5t-34 50.5t-36.5 30t-20 13q3 0 18 -1t26 0t20 3.5t13 1.5q16 -3 38 -17t41.5 -36.5t32.5 -53t12 -66.5zM216 63q3 -5 2 -10t-21 0q-15 3 -30 10t-28 15t-23.5 15.5t-15.5 11.5q-11 8 -13 15t0 10q1 3 7 3q3 0 4 -1q0 3 1 4
q1 2 1 5.5t1 10.5q1 6 1.5 27t1.5 44l2 59q0 1 11 3.5t20 2.5q20 0 25 -9q4 -5 1.5 -10t-4.5 -6q-4 0 -5 -6q0 -17 11.5 -25t20.5 -11q9 -2 11 -3.5t2 -9.5q0 -3 1 -17t1.5 -30.5t1.5 -32.5t1 -23q2 -15 6 -26t6 -16zM455 519q0 4 -0.5 13t-3.5 21t-10 26.5t-20 29.5
q-16 18 -40 30.5t-50 18t-50.5 3.5t-40.5 -12q-17 -11 -26 -27.5t-14 -33.5t-6 -31.5t-1 -20.5v-58v-21t1 -23q7 -11 24 -18q13 -7 35 -12t54 -5q47 0 76 17t45 38.5t21.5 40.5t5.5 24z" />
    <glyph glyph-name="agrave" unicode="&#xe0;" horiz-adv-x="773" 
d="M443 171q-27 42 -56 86.5t-58 83.5q-21 0 -44.5 -3t-45.5 -11t-40 -22t-28 -36q-17 -37 -9.5 -73.5t29.5 -64.5t54.5 -43.5t66.5 -10.5q48 8 80 35.5t51 58.5zM765 64q4 -5 0 -16.5t-15 -24.5t-30 -23t-46 -11q-55 -3 -92 17.5t-69 62.5q-11 14 -22.5 31.5t-25.5 37.5
q-32 -63 -78 -98t-96 -45t-100.5 3.5t-90.5 48.5q-42 37 -52 83t1.5 90.5t39.5 80t63 51.5q40 18 81 20.5t72 0.5q-14 19 -28 34.5t-28 28.5q-31 27 -65.5 38t-63.5 0q1 0 2 -5.5t2 -13.5t1 -16.5t-1 -14.5q-2 -6 -6.5 -14.5t-12.5 -17t-19 -14.5t-25 -6q-28 0 -43.5 20
t-15.5 46q0 13 9 27.5t27 26.5t45 18.5t63 5.5q22 -1 50.5 -5.5t62.5 -19t72.5 -41t79.5 -71.5t81.5 -89t76 -80.5t64 -64t44.5 -39.5q22 -17 36.5 -24t24.5 -9.5t16 -3.5t11 -5zM162 585q7 -19 2 -24.5t-25 1.5q-17 6 -45 17t-51 27q-27 19 -31 42t7 38.5t33.5 18.5
t48.5 -18q11 -9 20.5 -22.5t17.5 -28t14 -28.5t9 -23z" />
    <glyph glyph-name="aacute" unicode="&#xe1;" horiz-adv-x="773" 
d="M443 171q-27 42 -56 86.5t-58 83.5q-21 0 -44.5 -3t-45.5 -11t-40 -22t-28 -36q-17 -37 -9.5 -73.5t29.5 -64.5t54.5 -43.5t66.5 -10.5q48 8 80 35.5t51 58.5zM765 64q4 -5 0 -16.5t-15 -24.5t-30 -23t-46 -11q-55 -3 -92 17.5t-69 62.5q-11 14 -22.5 31.5t-25.5 37.5
q-32 -63 -78 -98t-96 -45t-100.5 3.5t-90.5 48.5q-42 37 -52 83t1.5 90.5t39.5 80t63 51.5q40 18 81 20.5t72 0.5q-14 19 -28 34.5t-28 28.5q-31 27 -65.5 38t-63.5 0q1 0 2 -5.5t2 -13.5t1 -16.5t-1 -14.5q-2 -6 -6.5 -14.5t-12.5 -17t-19 -14.5t-25 -6q-28 0 -43.5 20
t-15.5 46q0 13 9 27.5t27 26.5t45 18.5t63 5.5q22 -1 50.5 -5.5t62.5 -19t72.5 -41t79.5 -71.5t81.5 -89t76 -80.5t64 -64t44.5 -39.5q22 -17 36.5 -24t24.5 -9.5t16 -3.5t11 -5zM276 606q-23 -17 -51 -27.5t-45 -16.5q-20 -7 -24.5 -1.5t1.5 24.5q3 9 8.5 23t13.5 28.5
t17.5 28t20.5 22.5q25 21 47.5 18.5t34 -18.5t8 -39t-30.5 -42z" />
    <glyph glyph-name="acircumflex" unicode="&#xe2;" horiz-adv-x="773" 
d="M443 171q-27 42 -56 86.5t-58 83.5q-21 0 -44.5 -3t-45.5 -11t-40 -22t-28 -36q-17 -37 -9.5 -73.5t29.5 -64.5t54.5 -43.5t66.5 -10.5q48 8 80 35.5t51 58.5zM765 64q4 -5 0 -16.5t-15 -24.5t-30 -23t-46 -11q-55 -3 -92 17.5t-69 62.5q-11 14 -22.5 31.5t-25.5 37.5
q-32 -63 -78 -98t-96 -45t-100.5 3.5t-90.5 48.5q-42 37 -52 83t1.5 90.5t39.5 80t63 51.5q40 18 81 20.5t72 0.5q-14 19 -28 34.5t-28 28.5q-31 27 -65.5 38t-63.5 0q1 0 2 -5.5t2 -13.5t1 -16.5t-1 -14.5q-2 -6 -6.5 -14.5t-12.5 -17t-19 -14.5t-25 -6q-28 0 -43.5 20
t-15.5 46q0 13 9 27.5t27 26.5t45 18.5t63 5.5q22 -1 50.5 -5.5t62.5 -19t72.5 -41t79.5 -71.5t81.5 -89t76 -80.5t64 -64t44.5 -39.5q22 -17 36.5 -24t24.5 -9.5t16 -3.5t11 -5zM147 581q-12 -12 -23 -19t-22 3l-4 4t-2 2.5t-3 3.5l-7 7t-0.5 12.5t11.5 18.5q17 27 36 55
t43 52q4 4 9.5 2t10.5 -6.5t10 -10.5t8 -10q13 -17 26.5 -32.5t24 -29t16.5 -24.5t4 -18q0 -2 -3.5 -7t-7.5 -10t-7.5 -9t-4.5 -5q-2 -2 -14 8t-26 21q-8 7 -17 14.5t-19 16.5z" />
    <glyph glyph-name="atilde" unicode="&#xe3;" horiz-adv-x="773" 
d="M456 171q-27 42 -56 86.5t-58 83.5q-21 0 -44.5 -3t-45.5 -11t-40 -22t-28 -36q-17 -37 -9.5 -73.5t29.5 -64.5t54.5 -43.5t66.5 -10.5q48 8 80 35.5t51 58.5zM778 64q4 -5 0 -16.5t-15 -24.5t-30 -23t-46 -11q-55 -3 -92 17.5t-69 62.5q-11 14 -22.5 31.5t-25.5 37.5
q-32 -63 -78 -98t-96 -45t-100.5 3.5t-90.5 48.5q-42 37 -52 83t1.5 90.5t39.5 80t63 51.5q40 18 81 20.5t72 0.5q-14 19 -28 34.5t-28 28.5q-31 27 -65.5 38t-63.5 0q1 0 2 -5.5t2 -13.5t1 -16.5t-1 -14.5q-2 -6 -6.5 -14.5t-12.5 -17t-19 -14.5t-25 -6q-28 0 -43.5 20
t-15.5 46q0 13 9 27.5t27 26.5t45 18.5t63 5.5q22 -1 50.5 -5.5t62.5 -19t72.5 -41t79.5 -71.5t81.5 -89t76 -80.5t64 -64t44.5 -39.5q22 -17 36.5 -24t24.5 -9.5t16 -3.5t11 -5zM376 619q-13 -20 -38.5 -34.5t-70.5 -16.5q-28 -1 -48 8.5t-37 22.5t-33 24t-35 13t-33.5 -2
t-24.5 -11t-15 -14.5t-6 -13.5q-5 -11 -19 -9q-3 1 -8.5 3.5t-5.5 10.5q0 9 7 25t22 31.5t38.5 26.5t55.5 10q28 -1 46 -8t32 -15t26.5 -16t29.5 -11q21 -4 34.5 -0.5t23 11.5t18.5 19.5t21 23.5q4 4 10.5 3t12 -5t9.5 -9.5t4 -8.5q-1 -16 -4.5 -30t-11.5 -28z" />
    <glyph glyph-name="adieresis" unicode="&#xe4;" horiz-adv-x="773" 
d="M443 171q-27 42 -56 86.5t-58 83.5q-21 0 -44.5 -3t-45.5 -11t-40 -22t-28 -36q-17 -37 -9.5 -73.5t29.5 -64.5t54.5 -43.5t66.5 -10.5q48 8 80 35.5t51 58.5zM765 64q4 -5 0 -16.5t-15 -24.5t-30 -23t-46 -11q-55 -3 -92 17.5t-69 62.5q-11 14 -22.5 31.5t-25.5 37.5
q-32 -63 -78 -98t-96 -45t-100.5 3.5t-90.5 48.5q-42 37 -52 83t1.5 90.5t39.5 80t63 51.5q40 18 81 20.5t72 0.5q-14 19 -28 34.5t-28 28.5q-31 27 -65.5 38t-63.5 0q1 0 2 -5.5t2 -13.5t1 -16.5t-1 -14.5q-2 -6 -6.5 -14.5t-12.5 -17t-19 -14.5t-25 -6q-28 0 -43.5 20
t-15.5 46q0 13 9 27.5t27 26.5t45 18.5t63 5.5q22 -1 50.5 -5.5t62.5 -19t72.5 -41t79.5 -71.5t81.5 -89t76 -80.5t64 -64t44.5 -39.5q22 -17 36.5 -24t24.5 -9.5t16 -3.5t11 -5zM24 647q0 19 7.5 31.5t18 19t21.5 9t18 2.5t17.5 -2t20 -8t16 -18.5t6.5 -33.5
q0 -23 -8.5 -36t-19 -19t-21 -7.5t-14.5 -1.5q-5 0 -15 2t-20.5 8.5t-18.5 19.5t-8 34zM267 709q28 0 48 -18.5t20 -45.5q0 -21 -19.5 -40t-48.5 -19t-49 16t-20 46q0 9 3.5 19.5t11.5 20t21 15.5t33 6z" />
    <glyph glyph-name="aring" unicode="&#xe5;" horiz-adv-x="773" 
d="M443 171q-27 42 -56 86.5t-58 83.5q-21 0 -44.5 -3t-45.5 -11t-40 -22t-28 -36q-17 -37 -9.5 -73.5t29.5 -64.5t54.5 -43.5t66.5 -10.5q48 8 80 35.5t51 58.5zM765 64q4 -5 0 -16.5t-15 -24.5t-30 -23t-46 -11q-55 -3 -92 17.5t-69 62.5q-11 14 -22.5 31.5t-25.5 37.5
q-32 -63 -78 -98t-96 -45t-100.5 3.5t-90.5 48.5q-42 37 -52 83t1.5 90.5t39.5 80t63 51.5q40 18 81 20.5t72 0.5q-14 19 -28 34.5t-28 28.5q-31 27 -65.5 38t-63.5 0q1 0 2 -5.5t2 -13.5t1 -16.5t-1 -14.5q-2 -6 -6.5 -14.5t-12.5 -17t-19 -14.5t-25 -6q-28 0 -43.5 20
t-15.5 46q0 13 9 27.5t27 26.5t45 18.5t63 5.5q22 -1 50.5 -5.5t62.5 -19t72.5 -41t79.5 -71.5t81.5 -89t76 -80.5t64 -64t44.5 -39.5q22 -17 36.5 -24t24.5 -9.5t16 -3.5t11 -5zM225 646q0 12 -9 20.5t-21 8.5q-17 0 -23.5 -10t-6.5 -18q0 -14 9 -21.5t21 -7.5
q13 0 21.5 8.5t8.5 19.5zM259 647q0 -23 -8.5 -36t-19.5 -19t-21.5 -7.5t-14.5 -1.5q-5 0 -15 2t-20.5 8.5t-18.5 19.5t-8 34q0 19 7.5 31.5t18 19t21.5 9t18 2.5t17.5 -2t20 -8t16.5 -18.5t7 -33.5z" />
    <glyph glyph-name="ae" unicode="&#xe6;" horiz-adv-x="1045" 
d="M449 337q14 34 38.5 66t61 57t85.5 40t112 15q57 0 100.5 -13.5t76 -33.5t54.5 -44.5t35.5 -46t19 -38t5.5 -20.5v-26t-13 -12h-435q-7 0 -7.5 -16.5t6.5 -42t21.5 -55.5t38.5 -56.5t58.5 -45t80.5 -21.5q43 -3 79 6.5t63 24t45 29t25 20.5t11.5 5t6.5 -6.5t1.5 -14
t-3.5 -16.5t-18.5 -25.5t-46 -35t-77 -30.5t-112.5 -12q-115 2 -190 41t-110 102q-33 -60 -78.5 -94t-95 -43t-98.5 4.5t-89 47.5q-42 36 -52.5 82t0.5 90.5t39.5 80.5t64.5 52q40 17 81 20t72 1q-14 19 -28 34.5t-28 28.5q-31 27 -65.5 38t-63.5 0q2 -2 4 -19.5t0 -30.5
q-2 -6 -6.5 -14.5t-12.5 -17t-19 -14.5t-25 -6q-28 0 -43.5 20t-15.5 46q0 13 9 27.5t27 26.5t45 18.5t63 5.5q22 -1 51 -5.5t63 -19t72 -41t79 -71.5zM895 326q4 0 3 22t-13.5 49t-40.5 49.5t-78 24.5q-37 1 -65 -9t-48.5 -25.5t-34 -34t-20.5 -35t-7.5 -28t4.5 -12.5z
M443 171q-27 42 -56 86.5t-58 83.5q-21 0 -44.5 -3t-45.5 -11t-40 -22t-28 -36q-17 -37 -9.5 -73.5t29.5 -64.5t54.5 -43.5t66.5 -10.5q48 8 80 35.5t51 58.5z" />
    <glyph glyph-name="ccedilla" unicode="&#xe7;" horiz-adv-x="533" 
d="M301 -67q-19 0 -27 -3t-20 -5q-3 0 -3.5 7t1 17t3.5 21.5t4 21.5q-19 1 -45 4.5t-54.5 12.5t-56 26t-49.5 45t-35.5 68t-13.5 97q0 61 15.5 104.5t40 73.5t54.5 48.5t58.5 28.5t52.5 13t36 3q30 0 50 -4t33 -8t21 -6t15 2q9 4 17 12t16 13.5t16 3.5t16 -18q3 -6 11 -21
t17.5 -32t18.5 -33.5t14 -26.5q4 -10 0 -14.5t-13 -4t-21.5 7t-24.5 18.5q-25 24 -67.5 45.5t-103.5 21.5q-24 0 -49.5 -15t-46.5 -45t-34.5 -74t-13.5 -102q0 -59 13 -98.5t34 -64t47.5 -35t52.5 -10.5t47.5 6t39.5 15t32.5 20t27.5 21t19.5 21t11 20t9 15.5t12.5 7.5
q7 1 9 -13.5t-7 -32.5q-15 -32 -38.5 -53.5t-50.5 -35t-55.5 -20t-52.5 -7.5q-2 -7 -4 -13.5t-4 -12.5l-4 -14l11 2q5 1 11 1.5t13 0.5q25 -2 35 -15t10 -31t-11 -29.5t-37 -11.5q-12 0 -19 2t-10.5 5t-4.5 6.5t-2 6.5q-2 7 3 9q4 2 8.5 -3.5t21.5 -5.5q12 0 17 7t4.5 15
t-6 15t-15.5 7z" />
    <glyph glyph-name="egrave" unicode="&#xe8;" horiz-adv-x="632" 
d="M230 606q-27 19 -31 42t7.5 39t33.5 18.5t48 -18.5q10 -9 20 -22t17.5 -27.5t13.5 -28.5t9 -24q6 -19 2 -24.5t-24 1.5q-17 6 -45 17t-51 27zM464 326q4 0 3 22t-13.5 49t-40.5 49.5t-78 24.5q-36 1 -64.5 -9t-49 -25.5t-34 -34t-20.5 -35t-7.5 -28t4.5 -12.5zM606 319
v-26t-13 -12h-435q-7 0 -7.5 -16.5t6.5 -42t21.5 -55.5t38.5 -56.5t58.5 -45t80.5 -21.5q43 -3 79 6.5t63 24t45 29t25 20.5t11.5 5t6.5 -6.5t1.5 -14t-3.5 -16.5t-18.5 -25.5t-46 -34.5t-77 -30t-112.5 -13q-81 1 -142 22t-102.5 56.5t-63 81t-22.5 94.5q0 42 17 89.5
t54.5 88t97.5 67.5t146 27q57 0 100.5 -13.5t76 -33.5t54.5 -44.5t35.5 -46t19 -38t5.5 -20.5z" />
    <glyph glyph-name="eacute" unicode="&#xe9;" horiz-adv-x="632" 
d="M422 606q-23 -16 -51 -27t-45 -17q-20 -7 -24 -1.5t2 24.5q3 9 8.5 23t13.5 28.5t17.5 28t20.5 22.5q25 21 47.5 18t34 -18.5t7.5 -38.5t-31 -42zM464 326q4 0 3 22t-13.5 49t-40.5 49.5t-78 24.5q-36 1 -64.5 -9t-49 -25.5t-34 -34t-20.5 -35t-7.5 -28t4.5 -12.5z
M606 319v-26t-13 -12h-435q-7 0 -7.5 -16.5t6.5 -42t21.5 -55.5t38.5 -56.5t58.5 -45t80.5 -21.5q43 -3 79 6.5t63 24t45 29t25 20.5t11.5 5t6.5 -6.5t1.5 -14t-3.5 -16.5t-18.5 -25.5t-46 -34.5t-77 -30t-112.5 -13q-81 1 -142 22t-102.5 56.5t-63 81t-22.5 94.5
q0 42 17 89.5t54.5 88t97.5 67.5t146 27q57 0 100.5 -13.5t76 -33.5t54.5 -44.5t35.5 -46t19 -38t5.5 -20.5z" />
    <glyph glyph-name="ecircumflex" unicode="&#xea;" horiz-adv-x="632" 
d="M280 581q-12 -12 -23 -19.5t-22 3.5l-17 17q-5 5 -1 12.5t12 18.5q18 27 37 55t43 52q5 5 10.5 3t10.5 -6.5t9.5 -11t7.5 -10.5q13 -17 26.5 -32t24 -28.5t16.5 -24.5t4 -19q0 -2 -3.5 -7t-7.5 -10t-7.5 -9t-4.5 -5q-2 -2 -14 8t-26 21q-8 7 -17 14.5t-19 16.5zM464 326
q4 0 3 22t-13.5 49t-40.5 49.5t-78 24.5q-36 1 -64.5 -9t-49 -25.5t-34 -34t-20.5 -35t-7.5 -28t4.5 -12.5zM606 319v-26t-13 -12h-435q-7 0 -7.5 -16.5t6.5 -42t21.5 -55.5t38.5 -56.5t58.5 -45t80.5 -21.5q43 -3 79 6.5t63 24t45 29t25 20.5t11.5 5t6.5 -6.5t1.5 -14
t-3.5 -16.5t-18.5 -25.5t-46 -34.5t-77 -30t-112.5 -13q-81 1 -142 22t-102.5 56.5t-63 81t-22.5 94.5q0 42 17 89.5t54.5 88t97.5 67.5t146 27q57 0 100.5 -13.5t76 -33.5t54.5 -44.5t35.5 -46t19 -38t5.5 -20.5z" />
    <glyph glyph-name="edieresis" unicode="&#xeb;" horiz-adv-x="632" 
d="M173 647q0 19 7.5 31.5t18 19t21.5 9t18 2.5t17.5 -2t20 -8t16.5 -18.5t7 -33.5q0 -23 -8.5 -36t-19.5 -19t-21.5 -7.5t-14.5 -1.5q-5 0 -15 2t-20.5 8.5t-18.5 19.5t-8 34zM416 709q28 0 48 -18.5t20 -45.5q0 -21 -19.5 -40t-48.5 -19t-49 16t-20 46q0 9 3.5 19.5
t11.5 20t21 15.5t33 6zM464 326q4 0 3 22t-13.5 49t-40.5 49.5t-78 24.5q-36 1 -64.5 -9t-49 -25.5t-34 -34t-20.5 -35t-7.5 -28t4.5 -12.5zM606 319v-26t-13 -12h-435q-7 0 -7.5 -16.5t6.5 -42t21.5 -55.5t38.5 -56.5t58.5 -45t80.5 -21.5q43 -3 79 6.5t63 24t45 29
t25 20.5t11.5 5t6.5 -6.5t1.5 -14t-3.5 -16.5t-18.5 -25.5t-46 -34.5t-77 -30t-112.5 -13q-81 1 -142 22t-102.5 56.5t-63 81t-22.5 94.5q0 42 17 89.5t54.5 88t97.5 67.5t146 27q57 0 100.5 -13.5t76 -33.5t54.5 -44.5t35.5 -46t19 -38t5.5 -20.5z" />
    <glyph glyph-name="igrave" unicode="&#xec;" horiz-adv-x="262" 
d="M138 507q14 0 23 0.5t31 0.5q24 0 29 -11.5t5 -29.5v-437l17 -6q7 -2 13 -4t10 -2q7 0 4.5 -10.5t-11.5 -10.5t-35 1t-56 3q-29 2 -54.5 0t-45.5 -3q-15 -1 -17.5 5t0.5 11q4 5 10.5 8t12.5 4.5t10.5 2t4.5 2.5v459h-31q-6 0 -7.5 8.5t7.5 8.5h80zM50 606
q-28 19 -31.5 42t8 38.5t34 18.5t47.5 -18q10 -9 20 -22.5t17.5 -28t13.5 -28t9 -23.5q6 -19 1.5 -25t-24.5 2q-16 6 -44 17t-51 27z" />
    <glyph glyph-name="iacute" unicode="&#xed;" horiz-adv-x="262" 
d="M106 507q14 0 23 0.5t31 0.5q24 0 29 -11.5t5 -29.5v-437l17 -6q7 -2 13 -4t10 -2q7 0 4.5 -10.5t-11.5 -10.5t-35 1t-56 3q-29 2 -54.5 0t-45.5 -3q-15 -1 -17.5 5t0.5 11q4 5 10.5 8t12.5 4.5t10.5 2t4.5 2.5v459h-31q-6 0 -7.5 8.5t7.5 8.5h80zM216 606
q-23 -16 -51 -27t-45 -17q-20 -7 -24 -1.5t2 24.5q3 9 8.5 23t13.5 28.5t17.5 28t20.5 22.5q25 21 47.5 18t34 -18.5t7.5 -38.5t-31 -42z" />
    <glyph glyph-name="icircumflex" unicode="&#xee;" horiz-adv-x="262" 
d="M118 507q14 0 23 0.5t31 0.5q24 0 29 -11.5t5 -29.5v-437l17 -6q7 -2 13 -4t10 -2q7 0 4.5 -10.5t-11.5 -10.5t-35 1t-56 3q-29 2 -54.5 0t-45.5 -3q-15 -1 -17.5 5t0.5 11q4 5 10.5 8t12.5 4.5t10.5 2t4.5 2.5v459h-31q-6 0 -7.5 8.5t7.5 8.5h80zM82 581
q-12 -12 -23.5 -19t-21.5 3l-17 17q-5 5 -1 12.5t12 18.5q18 27 37 55t43 52q5 5 10.5 3.5t10.5 -7t9 -11.5t7 -10q30 -34 52 -60.5t20 -43.5q0 -2 -3.5 -7t-7.5 -10t-7.5 -9t-4.5 -5q-2 -2 -14 8t-26 21q-8 7 -17 14.5t-19 16.5z" />
    <glyph glyph-name="idieresis" unicode="&#xef;" horiz-adv-x="262" 
d="M173 507q14 0 23 0.5t31 0.5q24 0 29 -11.5t5 -29.5v-437l17 -6q7 -2 13 -4t10 -2q7 0 4.5 -10.5t-11.5 -10.5t-35 1t-56 3q-29 2 -54.5 0t-45.5 -3q-15 -1 -17.5 5t0.5 11q4 5 10.5 8t12.5 4.5t10.5 2t4.5 2.5v459h-31q-6 0 -7.5 8.5t7.5 8.5h80zM17 647q0 19 7.5 31.5
t18 19t21.5 9t18 2.5t17.5 -2t20 -8t16.5 -18.5t7 -33.5q0 -23 -8.5 -36t-19.5 -19t-21.5 -7.5t-14.5 -1.5q-5 0 -15 2t-20.5 8.5t-18.5 19.5t-8 34zM260 709q29 0 49 -18.5t20 -45.5q0 -21 -20 -40t-49 -19t-49 16t-20 46q0 9 3.5 19.5t11.5 20t21 15.5t33 6z" />
    <glyph glyph-name="eth" unicode="&#xf0;" 
 />
    <glyph glyph-name="ntilde" unicode="&#xf1;" horiz-adv-x="959" 
d="M422 619q-13 -20 -38.5 -34.5t-70.5 -16.5q-28 -1 -48 8.5t-37 22.5t-33 24t-35 13t-33.5 -2t-24.5 -11t-15 -14.5t-6 -13.5q-5 -11 -19 -9q-3 1 -8.5 3.5t-5.5 10.5q0 9 7 25t22 31.5t38.5 26.5t55.5 10q28 -1 46 -8t32 -15t26.5 -16t29.5 -11q21 -4 34.5 -0.5t23 11.5
t18.5 19.5t21 23.5q4 4 10.5 3t12 -5t9.5 -9.5t4 -8.5q-1 -16 -4.5 -30t-11.5 -28zM871 92q25 -11 42.5 -24t20.5 -26t-13 -25t-59 -21q-39 -8 -75.5 4.5t-73 42.5t-74.5 76.5t-80 106.5t-81.5 102t-73.5 69t-61 40t-45 16t-35.5 4t-31.5 -0.5t-22.5 -5t-8.5 -8.5v-355
q0 -17 0.5 -27.5t13.5 -10.5t17 -11.5t4 -23.5q0 -11 -5.5 -14t-21.5 -3h-149q-20 0 -26.5 12t-4.5 23q1 5 6 8t10.5 6.5t10 8t4.5 11.5v340q0 18 -4 28t-10.5 16t-15 10.5t-16.5 12.5q-16 15 -4 25.5t38 10.5q13 0 21.5 -1.5t16 -2.5t17.5 -1.5t26 1.5q10 1 37.5 3
t64.5 1.5t80.5 -4t86.5 -14t81.5 -29t65.5 -47.5q46 -50 96 -104t95 -100t81.5 -79t54.5 -41z" />
    <glyph glyph-name="ograve" unicode="&#xf2;" horiz-adv-x="623" 
d="M211 606q-28 19 -31.5 42t8 38.5t34 18.5t47.5 -18q10 -9 20 -22.5t17.5 -28t13.5 -28t9 -23.5q6 -19 1.5 -25t-24.5 2q-16 6 -44 17t-51 27zM457 277q-29 31 -65 60t-73 51t-72.5 34.5t-63.5 11.5q-27 -1 -54.5 -14t-43.5 -37t-15 -58.5t31 -78.5t76.5 -77.5t95 -55
t92 -30t66.5 -1.5q25 7 43.5 27t24 47t-3.5 58.5t-38 62.5zM582 225q0 -54 -26 -97.5t-68 -74.5t-95 -48t-107 -17q-55 0 -106.5 23.5t-91.5 63.5t-64 92.5t-24 109.5t23 102t61 76t87.5 47.5t102.5 16.5q70 0 126.5 -26t97 -67.5t62.5 -94t22 -106.5z" />
    <glyph glyph-name="oacute" unicode="&#xf3;" horiz-adv-x="623" 
d="M371 606q-23 -16 -51 -27t-45 -17q-20 -7 -25 -1.5t2 24.5q3 9 9 23t14 28.5t17.5 28t20.5 22.5q25 21 47.5 18t34 -18.5t7.5 -38.5t-31 -42zM457 277q-29 31 -65 60t-73 51t-72.5 34.5t-63.5 11.5q-27 -1 -54.5 -14t-43.5 -37t-15 -58.5t31 -78.5t76.5 -77.5t95 -55
t92 -30t66.5 -1.5q25 7 43.5 27t24 47t-3.5 58.5t-38 62.5zM582 225q0 -54 -26 -97.5t-68 -74.5t-95 -48t-107 -17q-55 0 -106.5 23.5t-91.5 63.5t-64 92.5t-24 109.5t23 102t61 76t87.5 47.5t102.5 16.5q70 0 126.5 -26t97 -67.5t62.5 -94t22 -106.5z" />
    <glyph glyph-name="ocircumflex" unicode="&#xf4;" horiz-adv-x="623" 
d="M239 581q-12 -12 -23 -19.5t-22 3.5l-17 17q-5 5 -1 12.5t12 18.5q18 27 37 55t43 52q5 5 10.5 3.5t10.5 -7t9 -11.5t7 -10q15 -17 28.5 -32.5t24 -28.5t16 -24t3.5 -19q0 -2 -3.5 -7t-7.5 -10t-7.5 -9t-4.5 -5q-2 -2 -14 8t-26 21q-8 7 -17 14.5t-19 16.5zM457 277
q-29 31 -65 60t-73 51t-72.5 34.5t-63.5 11.5q-27 -1 -54.5 -14t-43.5 -37t-15 -58.5t31 -78.5t76.5 -77.5t95 -55t92 -30t66.5 -1.5q25 7 43.5 27t24 47t-3.5 58.5t-38 62.5zM582 225q0 -54 -26 -97.5t-68 -74.5t-95 -48t-107 -17q-55 0 -106.5 23.5t-91.5 63.5t-64 92.5
t-24 109.5t23 102t61 76t87.5 47.5t102.5 16.5q70 0 126.5 -26t97 -67.5t62.5 -94t22 -106.5z" />
    <glyph glyph-name="otilde" unicode="&#xf5;" horiz-adv-x="623" 
d="M443 619q-13 -20 -38.5 -34.5t-70.5 -16.5q-28 -1 -48 8.5t-37 22.5t-33 24t-35 13t-33.5 -2t-24.5 -11t-15 -14.5t-6 -13.5q-5 -11 -19 -9q-3 1 -8.5 3.5t-5.5 10.5q0 9 7 25t22 31.5t38.5 26.5t55.5 10q28 -1 46 -8t32 -15t26.5 -16t29.5 -11q21 -4 34.5 -0.5t23 11.5
t18.5 19.5t21 23.5q4 4 10.5 3t12 -5t9.5 -9.5t4 -8.5q-1 -16 -4.5 -30t-11.5 -28zM457 277q-29 31 -65 60t-73 51t-72.5 34.5t-63.5 11.5q-27 -1 -54.5 -14t-43.5 -37t-15 -58.5t31 -78.5t76.5 -77.5t95 -55t92 -30t66.5 -1.5q25 7 43.5 27t24 47t-3.5 58.5t-38 62.5z
M582 225q0 -54 -26 -97.5t-68 -74.5t-95 -48t-107 -17q-55 0 -106.5 23.5t-91.5 63.5t-64 92.5t-24 109.5t23 102t61 76t87.5 47.5t102.5 16.5q70 0 126.5 -26t97 -67.5t62.5 -94t22 -106.5z" />
    <glyph glyph-name="odieresis" unicode="&#xf6;" horiz-adv-x="623" 
d="M134 647q0 19 7.5 31.5t17.5 19t21 9t19 2.5q7 0 17.5 -2t20 -8t16 -18.5t6.5 -33.5q0 -23 -8.5 -36t-19 -19t-21 -7.5t-14.5 -1.5q-5 0 -15 2t-20.5 8.5t-18.5 19.5t-8 34zM377 709q28 0 48 -18.5t20 -45.5q0 -21 -19.5 -40t-48.5 -19t-49 16t-20 46q0 9 3.5 19.5
t11.5 20t21 15.5t33 6zM457 277q-29 31 -65 60t-73 51t-72.5 34.5t-63.5 11.5q-27 -1 -54.5 -14t-43.5 -37t-15 -58.5t31 -78.5t76.5 -77.5t95 -55t92 -30t66.5 -1.5q25 7 43.5 27t24 47t-3.5 58.5t-38 62.5zM582 225q0 -54 -26 -97.5t-68 -74.5t-95 -48t-107 -17
q-55 0 -106.5 23.5t-91.5 63.5t-64 92.5t-24 109.5t23 102t61 76t87.5 47.5t102.5 16.5q70 0 126.5 -26t97 -67.5t62.5 -94t22 -106.5z" />
    <glyph glyph-name="divide" unicode="&#xf7;" horiz-adv-x="350" 
d="M155 387q39 0 55.5 -19.5t16.5 -39.5q0 -10 -4 -20.5t-12.5 -19.5t-20.5 -15t-28 -6q-17 0 -28.5 5.5t-19 13.5t-11 18t-3.5 18t2.5 19.5t9 21.5t17 17t26.5 7zM169 113q19 0 31.5 -7.5t19 -18t9 -21.5t2.5 -18t-2 -17.5t-8 -20t-18.5 -16.5t-33.5 -7q-23 0 -36 8.5
t-19 19.5t-7.5 21.5t-1.5 14.5t2 14.5t8.5 21t19.5 18.5t34 8zM47 157q-11 1 -17 3t-6 16v22q0 13 1 14q1 5 3 9.5t6 4.5h261q5 0 13 -7.5t7 -24.5q0 -17 1.5 -22t-1.5 -12q-1 -3 -13 -4.5t-31 -2t-43 -0.5h-49q-29 0 -62 1t-70 3z" />
    <glyph glyph-name="oslash" unicode="&#xf8;" horiz-adv-x="623" 
d="M496 540q6 -6 9.5 -9t6 -5t5.5 -4.5t8 -7.5q11 -11 12 -17t-11 -19q-20 -20 -39 -42q45 -43 70 -98.5t25 -112.5q0 -54 -26 -97.5t-68 -74.5t-95 -48t-107 -17q-42 0 -80.5 13.5t-73.5 37.5q-26 -27 -43 -41.5t-21 -10.5q-9 9 -12 11.5t-4.5 3.5t-4 3.5l-11.5 11.5
q-4 3 8 21t35 47q-36 39 -57.5 88.5t-21.5 103.5q0 57 23 102t61 76t87.5 47.5t102.5 16.5q43 0 81 -10.5t70 -27.5q24 25 37 38t20 18.5t9.5 5t4.5 -2.5zM224 138q30 -17 60.5 -29.5t58.5 -20t51 -9.5t37 3q25 7 43 27t23.5 46.5t-3.5 58t-37 63.5q-14 16 -29 29.5
t-32 27.5zM160 183q40 48 85 98t88 98q-42 26 -81 41t-69 14q-27 -1 -54.5 -14t-43.5 -37t-15 -58.5t31 -78.5q11 -17 26.5 -33t32.5 -30z" />
    <glyph glyph-name="ugrave" unicode="&#xf9;" horiz-adv-x="714" 
d="M250 606q-27 19 -31 42t7.5 39t33.5 18.5t48 -18.5q10 -9 20 -22t17.5 -27.5t13.5 -28.5t9 -24q6 -19 2 -24.5t-24 1.5q-17 6 -45 17t-51 27zM87 503q37 0 61.5 0.5t24.5 -12.5q-1 -12 -4 -16.5t-6 -8.5t-5 -10.5t-2 -22.5v-23t-0.5 -46.5t-0.5 -60t-0.5 -63.5
t-0.5 -57.5v-40.5q0 -45 -2 -65.5t4 -21.5q66 -5 101.5 8.5t58.5 44.5t42 79t52 112t54 101.5t39 58t38 29t52 14.5q31 6 53.5 2.5t35.5 -10.5t16.5 -15t-3.5 -12q-17 -9 -32.5 -29t-36.5 -53.5t-50.5 -82t-75.5 -115.5q-47 -68 -89 -105.5t-77.5 -55t-64 -20.5t-48.5 -3
h-49t-57.5 -0.5t-52.5 -1.5t-33 -2t-16.5 3.5t-10.5 10.5t-2 11.5t9 6.5q15 3 17.5 15.5t2.5 27.5v361q0 12 -4 19.5t-8.5 13.5t-8 11t-3.5 12t6.5 10t18 3.5t26 -0.5t31.5 -1z" />
    <glyph glyph-name="uacute" unicode="&#xfa;" horiz-adv-x="714" 
d="M457 606q-23 -16 -51.5 -27t-44.5 -17q-20 -8 -24.5 -2t1.5 25q3 9 8.5 23t13.5 28.5t17.5 28t20.5 22.5q25 21 48 18t34 -18.5t7.5 -38.5t-30.5 -42zM87 503q37 0 61.5 0.5t24.5 -12.5q-1 -12 -4 -16.5t-6 -8.5t-5 -10.5t-2 -22.5v-23t-0.5 -46.5t-0.5 -60t-0.5 -63.5
t-0.5 -57.5v-40.5q0 -45 -2 -65.5t4 -21.5q66 -5 101.5 8.5t58.5 44.5t42 79t52 112t54 101.5t39 58t38 29t52 14.5q31 6 53.5 2.5t35.5 -10.5t16.5 -15t-3.5 -12q-17 -9 -32.5 -29t-36.5 -53.5t-50.5 -82t-75.5 -115.5q-47 -68 -89 -105.5t-77.5 -55t-64 -20.5t-48.5 -3
h-49t-57.5 -0.5t-52.5 -1.5t-33 -2t-16.5 3.5t-10.5 10.5t-2 11.5t9 6.5q15 3 17.5 15.5t2.5 27.5v361q0 12 -4 19.5t-8.5 13.5t-8 11t-3.5 12t6.5 10t18 3.5t26 -0.5t31.5 -1z" />
    <glyph glyph-name="ucircumflex" unicode="&#xfb;" horiz-adv-x="714" 
d="M300 581q-12 -12 -23 -19.5t-22 3.5l-17 17q-5 5 -1 12.5t12 18.5q18 27 37 55t43 52q5 5 10.5 3.5t10.5 -7t9 -11.5t7 -10q30 -34 52 -60.5t20 -43.5q0 -2 -3.5 -7t-7.5 -10t-7.5 -9t-4.5 -5q-2 -2 -14 8t-26 21q-8 7 -17 14.5t-19 16.5zM87 503q37 0 61.5 0.5
t24.5 -12.5q-1 -12 -4 -16.5t-6 -8.5t-5 -10.5t-2 -22.5v-23t-0.5 -46.5t-0.5 -60t-0.5 -63.5t-0.5 -57.5v-40.5q0 -45 -2 -65.5t4 -21.5q66 -5 101.5 8.5t58.5 44.5t42 79t52 112t54 101.5t39 58t38 29t52 14.5q31 6 53.5 2.5t35.5 -10.5t16.5 -15t-3.5 -12
q-17 -9 -32.5 -29t-36.5 -53.5t-50.5 -82t-75.5 -115.5q-47 -68 -89 -105.5t-77.5 -55t-64 -20.5t-48.5 -3h-49t-57.5 -0.5t-52.5 -1.5t-33 -2t-16.5 3.5t-10.5 10.5t-2 11.5t9 6.5q15 3 17.5 15.5t2.5 27.5v361q0 12 -4 19.5t-8.5 13.5t-8 11t-3.5 12t6.5 10t18 3.5
t26 -0.5t31.5 -1z" />
    <glyph glyph-name="udieresis" unicode="&#xfc;" horiz-adv-x="714" 
d="M185 647q0 19 7.5 31.5t17.5 19t21 9t19 2.5q7 0 17.5 -2t20 -8t16 -18.5t6.5 -33.5q0 -23 -8.5 -36t-19 -19t-21 -7.5t-14.5 -1.5q-5 0 -15 2t-20.5 8.5t-18.5 19.5t-8 34zM428 709q28 0 48 -18.5t20 -45.5q0 -21 -19.5 -40t-48.5 -19t-49 16t-20 46q0 9 3.5 19.5
t11.5 20t21 15.5t33 6zM87 503q37 0 61.5 0.5t24.5 -12.5q-1 -12 -4 -16.5t-6 -8.5t-5 -10.5t-2 -22.5v-23t-0.5 -46.5t-0.5 -60t-0.5 -63.5t-0.5 -57.5v-40.5q0 -45 -2 -65.5t4 -21.5q66 -5 101.5 8.5t58.5 44.5t42 79t52 112t54 101.5t39 58t38 29t52 14.5q31 6 53.5 2.5
t35.5 -10.5t16.5 -15t-3.5 -12q-17 -9 -32.5 -29t-36.5 -53.5t-50.5 -82t-75.5 -115.5q-47 -68 -89 -105.5t-77.5 -55t-64 -20.5t-48.5 -3h-49t-57.5 -0.5t-52.5 -1.5t-33 -2t-16.5 3.5t-10.5 10.5t-2 11.5t9 6.5q15 3 17.5 15.5t2.5 27.5v361q0 12 -4 19.5t-8.5 13.5t-8 11
t-3.5 12t6.5 10t18 3.5t26 -0.5t31.5 -1z" />
    <glyph glyph-name="yacute" unicode="&#xfd;" horiz-adv-x="813" 
d="M567 606q-23 -16 -51.5 -27t-44.5 -17q-20 -8 -24.5 -2t1.5 25q3 9 8.5 23t13.5 28.5t17.5 28t20.5 22.5q25 21 48 18t34 -18.5t7.5 -38.5t-30.5 -42zM174 506q18 1 41.5 1t45 -1.5t37.5 -4.5t18 -8t1 -11.5t-4 -12.5t-7.5 -10t-10.5 -3q-11 2 -14 -9t8 -34
q3 -7 13.5 -28t24.5 -50t31 -62.5t32.5 -64t28.5 -55.5t20 -37q40 60 75 118t62 106l58 104l-19 8q-19 8 -33 8q-7 0 -9.5 5.5t-2 12t3.5 12t8 5.5h74q36 0 58 -1t43 5q11 3 16.5 0t8 -9t2.5 -13v-13q0 -5 -7.5 -8.5t-18 -6t-22 -4.5t-18.5 -3q-9 -2 -30 -31.5t-49.5 -74
t-60.5 -97.5t-62 -103q-54 -89 -115 -160t-126 -126.5t-130.5 -95t-128 -65.5t-119.5 -38t-103 -12q-70 0 -110.5 17t-61.5 40t-26.5 46t-5.5 35t3.5 28.5t13 32.5t26.5 28.5t45 15.5q18 2 37 -3t34.5 -16t26.5 -27.5t14 -37.5q4 -26 -10 -43t-31 -27q-20 -11 -46 -17
q-6 -9 4 -16q8 -6 32 -10.5t75 -4.5t102 12t103.5 36.5t108 61.5t116.5 88q24 20 48.5 46.5t50.5 58.5l-231 463l-17 2q-8 1 -16 1.5t-15 0.5q-14 0 -23.5 1.5t-17.5 18.5t5 27.5t30 10.5t43 -2t73 0z" />
    <glyph glyph-name="thorn" unicode="&#xfe;" 
 />
    <glyph glyph-name="ydieresis" unicode="&#xff;" horiz-adv-x="813" 
d="M174 506q18 1 41.5 1t45 -1.5t37.5 -4.5t18 -8t1 -11.5t-4 -12.5t-7.5 -10t-10.5 -3q-11 2 -14 -9t8 -34q3 -7 13.5 -28t24.5 -50t31 -62.5t32.5 -64t28.5 -55.5t20 -37q40 60 75 118t62 106l58 104l-19 8q-19 8 -33 8q-7 0 -9.5 5.5t-2 12t3.5 12t8 5.5h74q36 0 58 -1
t43 5q11 3 16.5 0t8 -9t2.5 -13v-13q0 -5 -7.5 -8.5t-18 -6t-22 -4.5t-18.5 -3q-9 -2 -30 -31.5t-49.5 -74t-60.5 -97.5t-62 -103q-54 -89 -115 -160t-126 -126.5t-130.5 -95t-128 -65.5t-119.5 -38t-103 -12q-70 0 -110.5 17t-61.5 40t-26.5 46t-5.5 35t3.5 28.5t13 32.5
t26.5 28.5t45 15.5q18 2 37 -3t34.5 -16t26.5 -27.5t14 -37.5q4 -26 -10 -43t-31 -27q-20 -11 -46 -17q-6 -9 4 -16q8 -6 32 -10.5t75 -4.5t102 12t103.5 36.5t108 61.5t116.5 88q24 20 48.5 46.5t50.5 58.5l-231 463l-17 2q-8 1 -16 1.5t-15 0.5q-14 0 -23.5 1.5
t-17.5 18.5t5 27.5t30 10.5t43 -2t73 0zM275 647q0 19 7.5 31.5t17.5 19t21 9t19 2.5q7 0 17.5 -2t20 -8t16 -18.5t6.5 -33.5q0 -23 -8.5 -36t-19 -19t-21 -7.5t-14.5 -1.5q-5 0 -15 2t-20.5 8.5t-18.5 19.5t-8 34zM518 709q28 0 48 -18.5t20 -45.5q0 -21 -19.5 -40
t-48.5 -19t-49 16t-20 46q0 9 3.5 19.5t11.5 20t21 15.5t33 6z" />
    <glyph glyph-name="OE" unicode="&#x152;" 
 />
    <glyph glyph-name="oe" unicode="&#x153;" 
 />
    <glyph glyph-name="Scaron" unicode="&#x160;" horiz-adv-x="648" 
d="M329 -8q-33 0 -64 3.5t-57 9.5t-44 12.5t-25 12.5q-8 6 -15 6.5t-12 -1.5q-6 -1 -11 -6q2 -5 3 -9l2 -8q1 -7 -2.5 -14t-14.5 -12q-7 -3 -11.5 0.5t-9 12.5t-9.5 23.5t-13 33.5q-5 12 -16.5 31t-23.5 38.5t-22.5 35.5t-13.5 23t-0.5 13t7 10t10 5t8.5 -2q6 -5 14 -15.5
t17 -21.5q19 -24 44.5 -45.5t59 -38.5t76 -28t94.5 -13q115 -4 179 33q35 21 49.5 48t10.5 54t-25 51.5t-57 41.5q-33 15 -76 25.5t-88.5 21t-89 24.5t-79 36.5t-58.5 56t-26 83.5q-2 22 5.5 44t20.5 41.5t29.5 34.5t33.5 23q35 16 82 18.5t95 -4.5t91 -22.5t72 -35.5
q9 -6 11 -2t0 12t-6.5 18t-8.5 16q-3 4 0.5 7.5t10 5t13 -0.5t9.5 -9q7 -16 18 -34t22 -35.5t21 -32.5t16 -25q6 -11 4.5 -20.5t-7.5 -14.5t-14.5 -4t-14.5 10q-11 17 -37 40t-81 49q-17 8 -46 14t-63 9t-69 0.5t-63.5 -12t-46.5 -27.5t-17 -47q0 -34 23.5 -55t61 -34.5
t84.5 -22.5t95.5 -18t94.5 -21t80 -31q26 -15 43 -34.5t27 -41.5t13 -45t2 -45q-2 -32 -15 -56.5t-31.5 -44t-39.5 -34t-40 -25.5q-23 -13 -48.5 -20.5t-50.5 -11.5t-48.5 -5.5t-41.5 -1.5zM313 785q29 32 42 48t23 24q8 6 12 3t14 -11q5 -5 -2.5 -20t-14.5 -24
q-18 -24 -32.5 -42.5t-38.5 -40.5q-7 -6 -15 0t-14 12q-30 32 -52 62t-27 46q-2 5 6.5 12.5t14.5 5.5q2 0 14.5 -11.5t27 -25t27 -25.5t15.5 -13z" />
    <glyph glyph-name="scaron" unicode="&#x161;" horiz-adv-x="630" 
d="M473 487q6 2 7.5 9t1.5 14.5t1 13t7 5.5q12 -1 19 -6t14.5 -14.5t18.5 -24.5t31 -36q29 -30 32 -50t-9 -23q-13 -3 -34 13t-60 49q-10 8 -31 17t-48 16t-56 11t-54 1t-42 -13.5t-20 -32.5q-2 -14 6 -27t24.5 -24.5t40 -19.5t52.5 -11q43 -5 84.5 -18.5t73 -36.5t51 -55
t19.5 -73q0 -84 -49.5 -128.5t-133.5 -51.5q-24 -2 -54 0t-58.5 6t-52 9.5t-34.5 10.5q-23 10 -44 5t-35 -19q-7 -7 -16 -10.5t-17 -3t-14.5 5.5t-8.5 14t-9 22t-15.5 26t-17.5 25t-16 21t-13.5 16t-9.5 13t0 10.5t16 7.5q12 2 23.5 -4.5t25 -17.5t29.5 -24.5t37 -25.5
q13 -7 38 -16.5t56.5 -17.5t67 -14t69.5 -6q42 0 80 8t54 35q20 33 13 59t-29 44t-52.5 29t-57.5 14q-38 4 -75.5 16.5t-67.5 32.5t-48.5 49t-18.5 66t13.5 64.5t36.5 45t53 25.5t63 6q29 -2 54 -7.5t44 -11.5t30.5 -10t14.5 -2zM364 621q29 32 42 48t23 24q8 6 12 3t14 -11
q5 -5 -2.5 -20t-14.5 -24q-18 -24 -32.5 -42.5t-38.5 -40.5q-7 -6 -15 0t-14 12q-30 32 -52 62t-27 46q-2 5 6.5 12.5t14.5 5.5q2 0 14.5 -11.5t27 -25t27 -25.5t15.5 -13z" />
    <glyph glyph-name="Ydieresis" unicode="&#x178;" horiz-adv-x="658" 
d="M13 672h69.5t69.5 2q18 1 22 -3.5t6 -9.5t-2.5 -8.5t-9.5 -7.5q-8 -8 -9 -12.5t4 -14.5q2 -3 15 -21.5t30.5 -44.5t38 -55t37.5 -54t29 -42t13 -18q3 -5 5.5 -9.5t4.5 -3.5t14 20t29 44q5 8 16.5 25t25.5 38.5t29 44t27.5 42t21 33t9.5 16.5q3 8 -3 12.5t-11 6.5
t-4.5 8.5t4.5 9.5q6 7 25 4q5 -1 19.5 -2t31.5 -1.5t32.5 0t22.5 1.5q13 2 15.5 -0.5t4.5 -10.5t-1 -10t-17 -7q-14 -4 -25.5 -6t-28.5 -13q-7 -5 -17.5 -15.5t-21.5 -24t-21.5 -27.5t-17.5 -25q-5 -8 -16.5 -25.5t-25.5 -40t-29.5 -47t-28 -45.5t-20.5 -36t-8 -18
q-1 -5 -2 -35t-1.5 -67.5t-0.5 -73.5v-53q0 -34 8.5 -47.5t19.5 -18.5t13 -8t3 -9t0.5 -7.5t-8.5 -2.5q-9 0 -20 1t-33 1h-103q-11 0 -13 2t-4 10q-4 13 12 20q7 2 12.5 11t5.5 20q0 6 1 25.5t2 43t1.5 46.5t0.5 36q-1 26 -2.5 48t-6.5 32q-1 3 -13.5 23.5t-31.5 50
t-40.5 64.5t-41.5 65.5t-34.5 53.5t-18.5 29q-13 20 -26.5 37t-23.5 19t-12.5 4.5t-3.5 10.5q-1 7 -1 13.5t8 6.5zM189 807q0 20 7.5 32t17.5 19t21 9t18 2t17.5 -1.5t20.5 -8t16.5 -19t6.5 -33.5q0 -23 -8.5 -36t-19 -19t-21 -7t-14.5 -1q-5 0 -15 2t-20.5 8.5t-18.5 19
t-8 33.5zM432 869q28 0 48 -18.5t20 -44.5q0 -21 -19.5 -40t-48.5 -19t-49.5 16t-20.5 46q0 9 3.5 19.5t11.5 19.5t21.5 15t33.5 6z" />
    <glyph glyph-name="circumflex" unicode="&#x2c6;" horiz-adv-x="341" 
d="M186 620l-39 -39q-6 -6 -10.5 -12.5t-9 -11t-8.5 -5.5t-9 4l-36 35q-10 10 -4 16.5t15 14.5q24 24 45.5 49t45.5 49q5 5 10.5 3t10.5 -7t9.5 -11.5t7.5 -9.5l61 -60q11 -11 21 -18.5t4 -15.5t-10.5 -11t-10.5 -9q-7 -7 -12.5 -15t-11.5 -13q-2 -2 -13 8.5t-23 23.5z" />
    <glyph glyph-name="tilde" unicode="&#x2dc;" 
 />
    <glyph glyph-name="endash" unicode="&#x2013;" horiz-adv-x="776" 
d="M1333 633q80 2 136 -14.5t94 -42.5t60 -57.5t33 -60.5t14 -50.5t3 -27.5q0 -19 -22 -15t-49 30q-14 13 -49 29t-95 24t-147 5t-204 -27q-78 -16 -170.5 -38t-188.5 -46.5t-189.5 -48.5t-173.5 -44t-141 -33.5t-92 -16.5q-46 -4 -77.5 6.5t-48 30t-18 44.5t12.5 50
q16 28 38 34.5t43.5 1.5t38.5 -18.5t22 -25.5q5 -13 6.5 -26t1.5 -24t-0.5 -18.5t0.5 -8.5q37 -9 89.5 2t122 39t157.5 70.5t197 96.5t200 88.5t165 54.5t131.5 28t99.5 9z" />
    <glyph glyph-name="emdash" unicode="&#x2014;" horiz-adv-x="3840" 
d="M3023 676q128 -2 237 -18.5t197 -40.5t155.5 -52.5t113.5 -55.5t70 -48.5t25 -31.5q1 -14 -5.5 -12.5t-22 11t-40 23.5t-59.5 24q-132 39 -269.5 52t-291 7t-328 -27t-381.5 -49q-139 -19 -297.5 -38t-323.5 -38t-332 -37t-324 -34.5t-297.5 -31.5t-253.5 -27
q-161 -18 -264.5 -24.5t-167.5 -7.5t-96 3t-49 7q-35 8 8.5 14.5t170.5 9.5q41 1 110 6.5t155.5 14.5t186 21.5t201.5 28t202 33.5t188 38q186 42 376 79.5t370.5 68.5t345.5 56t301 42t236.5 26t152.5 8z" />
    <glyph glyph-name="quoteleft" unicode="&#x2018;" horiz-adv-x="152" 
d="M81 609q-20 1 -38.5 15t-18.5 50q0 18 5 35.5t13 32.5t17 26t17 16q15 9 23.5 2t1.5 -15q-3 -5 -5.5 -12.5t-4 -14.5t-1 -12t4.5 -5q3 0 9 -1t13 -4.5t14 -10t11 -17.5q6 -17 2.5 -32.5t-13 -28t-23 -19.5t-27.5 -5z" />
    <glyph glyph-name="quoteright" unicode="&#x2019;" horiz-adv-x="152" 
d="M67 774q26 0 45 -20t19 -52t-17.5 -56t-32.5 -43q-7 -9 -13.5 -9t-10.5 5.5t-4 14.5t6 18q5 10 0 17t-14.5 14.5t-20 18t-15.5 28.5q-3 11 0.5 22.5t12 20.5t20 15t25.5 6z" />
    <glyph glyph-name="quotesinglbase" unicode="&#x201a;" 
 />
    <glyph glyph-name="quotedblleft" unicode="&#x201c;" horiz-adv-x="323" 
d="M81 609q-20 1 -38.5 15t-18.5 50q0 18 5 35.5t13 32.5t17 26t17 16q15 9 23.5 2t1.5 -15q-3 -5 -5.5 -12.5t-4 -14.5t-1 -12t4.5 -5q3 0 9 -1t13 -4.5t14 -10t11 -17.5q6 -17 2.5 -32.5t-13 -28t-23 -19.5t-27.5 -5zM245 603q-26 0 -45 20t-19 52q0 16 5 30.5t12.5 26.5
t16.5 22.5t16 19.5t13.5 9t10.5 -5.5t4 -14.5t-6 -18t-0.5 -15.5t15 -14.5t20 -19t15.5 -29q3 -11 -0.5 -22t-12 -20.5t-20.5 -15.5t-25 -6z" />
    <glyph glyph-name="quotedblright" unicode="&#x201d;" horiz-adv-x="152" 
d="M231 757q10 0 20 -3.5t18.5 -11t13.5 -20t5 -30.5t-5.5 -35.5t-13.5 -32.5t-17 -26t-16 -15q-15 -9 -23 -2.5t-2 15.5q3 4 6 11.5t4 14.5t0.5 12t-3.5 5t-9.5 1t-13.5 4.5t-14 10t-11 17.5q-6 16 -2.5 32t13 28t23 19t27.5 6zM67 763q26 0 45 -19.5t19 -52.5
q0 -16 -5 -30t-12.5 -26.5t-16 -23t-15.5 -19.5t-13.5 -9t-10.5 5.5t-4.5 14.5t5.5 18t1 16t-14.5 15t-20.5 19t-16 28q-3 11 0.5 22.5t11.5 20.5t20 15t26 6z" />
    <glyph glyph-name="quotedblbase" unicode="&#x201e;" 
 />
    <glyph glyph-name="dagger" unicode="&#x2020;" horiz-adv-x="540" 
d="M43 668q3 0 23 0.5t50.5 1t68 1t74.5 1t71 1t57 0.5q34 0 73.5 0.5t73.5 1.5t58 1t27 -1q8 -2 11.5 4t5.5 12q2 5 1 7.5t5 4.5t10 3.5t7 -3.5q1 -2 9 -9.5t19 -18t24 -21.5t24 -20q23 -19 37 -29.5t16 -14.5q3 -5 0 -7t-19 0q-8 1 -19 6t-26 11.5t-35 13.5t-46 12
t-69 7.5t-88.5 3t-87 0.5h-65.5t-52 -1t-52.5 -1.5t-41.5 -1.5t-20 -1q-11 0 -11 -11v-9.5t-0.5 -17t-0.5 -19.5v-17q13 0 38.5 -0.5t57 -1t65.5 0t66 2.5q17 2 23.5 4t5.5 10t4.5 9.5t12.5 -1.5q6 -4 24.5 -22.5t38.5 -36.5q20 -17 29 -28.5t9 -16.5t-3 -9.5t-9 -3.5
q-5 1 -8 3t-17 10q-15 9 -32.5 21.5t-38.5 14.5q-22 3 -61.5 4.5t-93.5 -1.5q-35 -2 -64.5 -3t-47.5 -2v-47t0.5 -51.5t0.5 -47.5v-35v-46.5t0.5 -58t0.5 -56v-41.5q0 -66 4 -78q2 -10 7 -14t13 -7t15 -7.5t5 -12.5q-2 -7 -5 -10t-12 -1q-5 1 -15 1.5t-22 1t-24.5 0.5h-22.5
q-20 1 -42 -0.5t-30 -0.5q-8 2 -9 5t-4 7q-2 5 2 9t11 6q7 1 14 9.5t5 37.5v36t0.5 69t1 86t1 87t1 72t0.5 41q-1 32 -0.5 63.5t-1.5 49.5q-3 18 -9 36.5t-17 21.5q-14 4 -16.5 10t-3.5 12q0 6 6 8.5t14 1.5t10.5 -0.5t10.5 0.5z" />
    <glyph glyph-name="daggerdbl" unicode="&#x2021;" 
 />
    <glyph glyph-name="bullet" unicode="&#x2022;" 
 />
    <glyph glyph-name="ellipsis" unicode="&#x2026;" 
 />
    <glyph glyph-name="guilsinglleft" unicode="&#x2039;" 
 />
    <glyph glyph-name="guilsinglright" unicode="&#x203a;" 
 />
    <glyph glyph-name="fraction" unicode="&#x2044;" horiz-adv-x="399" 
d="M328 787h12.5t8 0.5t7.5 0.5h11q14 0 18.5 -4.5t-2.5 -22.5q-17 -47 -38.5 -109t-46 -131.5t-50 -143.5t-50 -144t-47 -132t-40.5 -109t-30.5 -74t-17.5 -27h-16.5t-5.5 -0.5t-6 -0.5h-16q-5 0 -0.5 23.5t16 63.5t28 92t36 108.5t39.5 114.5t38 109q24 69 49.5 138
t47.5 124t37 89.5t18 34.5z" />
    <glyph glyph-name="Euro" unicode="&#x20ac;" 
 />
    <glyph glyph-name="trademark" unicode="&#x2122;" 
 />
    <glyph glyph-name="Delta" unicode="&#x2206;" horiz-adv-x="947" 
d="M362 706q0 -2 7 -17t18 -37.5t24 -50.5t26.5 -55t25 -51t18.5 -39q10 -21 25 -54t30 -66.5t28.5 -63t20.5 -43.5q29 4 53.5 6.5t42.5 4.5q33 3 67.5 6t65.5 2t56.5 -6.5t41.5 -18.5t22 -23t6 -17t-5 -10t-11 -1q-8 2 -28.5 5t-50.5 5t-67 2t-77 -3q-20 -2 -42.5 -4
t-46.5 -4q7 -15 15.5 -31.5t16 -31.5l13.5 -27l9 -18q10 -20 16 -27.5t16 -11.5q10 -5 20 -8.5t10 -10.5t-6 -11t-21 -2q-16 2 -41 4t-54 0t-48.5 -1.5t-30.5 0.5q-10 0 -13 2t-4 7q-2 4 1 10t11 8q4 0 9 2t7.5 6.5t1.5 12.5t-8 21q-5 8 -17.5 34.5t-29.5 61.5
q-45 -4 -85 -6.5t-72 -0.5l-156 6q-8 -19 -16.5 -39.5t-15.5 -37.5t-12 -28.5t-6 -13.5q-2 -4 1 -10t7 -6q4 -1 15 -2t13 -5t1.5 -9t-5.5 -8t-10 -4t-17 0q-6 1 -22 1h-34t-33 -0.5t-19 -0.5q-8 -1 -9.5 3.5t-2.5 9.5q0 13 12 13q6 0 20.5 4t18.5 12q1 2 7.5 16t15.5 34.5
t20 45t21 47.5t18.5 42t12.5 29t16 37t27.5 63t33.5 76t33.5 75.5t27.5 63t16 37.5q13 31 19.5 49.5t11.5 32.5q6 14 12 21.5t12 -3.5zM460 213q-15 31 -30 62.5t-28 59t-23 48t-14 29.5q-8 16 -14.5 32t-11.5 29.5t-8 22t-4 9.5q-2 2 -6 -10.5t-11 -26.5q-2 -4 -10.5 -23
t-21 -45.5t-27 -58.5t-28 -62t-24.5 -55t-16 -38l-2 -5q14 0 36 1t56 6q32 5 82 11t105 14z" />
    </font>
</defs>
</svg>
