<?xml version="1.0" standalone="no"?>
<!DOCTYPE svg PUBLIC "-//W3C//DTD SVG 20010904//EN"
 "http://www.w3.org/TR/2001/REC-SVG-20010904/DTD/svg10.dtd">
<svg version="1.0" xmlns="http://www.w3.org/2000/svg"
 width="500.000000pt" height="500.000000pt" viewBox="0 0 500.000000 500.000000"
 preserveAspectRatio="xMidYMid meet">
<metadata>
Created by potrace 1.11, written by Peter Selinger 2001-2013
</metadata>
<g transform="translate(0.000000,500.000000) scale(0.100000,-0.100000)"
fill="#000000" stroke="none">
<path d="M1610 4991 c0 -6 7 -40 16 -77 8 -37 13 -76 11 -88 -2 -12 -7 3 -12
32 -10 66 -1 67 -168 -24 -43 -23 -110 -49 -154 -59 -94 -21 -196 -67 -289
-129 -37 -25 -72 -46 -77 -46 -5 0 -50 -24 -100 -54 -51 -29 -103 -56 -117
-60 -55 -16 -88 -39 -180 -127 -10 -9 -47 -37 -83 -62 -89 -62 -147 -107 -175
-135 -12 -12 -26 -22 -31 -22 -12 0 -74 -60 -94 -92 -17 -28 -23 -68 -9 -68 4
0 15 -7 26 -15 18 -13 18 -16 3 -48 -29 -61 -42 -64 -84 -22 l-37 37 -28 -31
-28 -31 0 -380 c0 -209 2 -380 5 -380 3 0 17 7 30 16 22 14 40 15 151 5 69 -6
133 -15 142 -20 9 -4 32 -11 51 -15 33 -6 34 -5 17 13 -16 18 -15 19 36 39 29
11 63 24 76 27 13 4 22 9 19 11 -2 2 -46 -7 -98 -22 -52 -14 -98 -26 -104 -25
-5 0 -36 3 -69 7 l-59 7 29 15 c16 8 36 20 44 27 8 7 56 24 105 38 50 14 128
39 175 56 47 16 114 36 150 44 36 8 90 22 120 30 96 27 233 56 308 66 74 10
107 21 62 21 -59 0 7 19 135 39 77 13 158 26 180 31 167 34 202 40 241 40 26
0 43 4 39 10 -3 5 -2 22 2 37 6 24 9 18 19 -42 7 -38 13 -81 13 -94 l1 -24
-92 6 c-91 5 -92 5 -44 -8 27 -8 52 -18 55 -24 4 -6 21 -7 46 -1 22 5 40 8 41
7 1 -1 4 -30 8 -65 l6 -63 -29 20 c-19 13 -50 22 -92 25 -35 3 -113 10 -174
16 -126 14 -213 10 -375 -14 -185 -28 -301 -54 -359 -82 -29 -14 -79 -30 -110
-35 -69 -10 -131 -25 -138 -33 -12 -12 30 -6 303 43 188 34 535 47 719 27 83
-8 225 -50 237 -69 3 -6 -1 -21 -9 -34 -8 -13 -11 -23 -6 -23 19 0 33 26 35
64 1 37 2 35 7 -14 7 -59 3 -80 -9 -59 -5 7 -10 -18 -12 -57 -2 -38 -2 -71 0
-74 8 -12 22 29 23 70 2 44 2 44 10 -15 5 -33 11 -87 13 -120 4 -55 15 -138
31 -225 l6 -35 -15 33 c-8 17 -19 32 -25 32 -24 0 -39 30 -34 68 4 27 1 42
-11 51 -9 7 -16 20 -16 28 0 7 -7 13 -17 11 -12 -2 -19 10 -27 52 -17 84 -42
118 -125 169 l-75 46 -215 -2 c-200 -2 -324 -15 -361 -38 -6 -4 -88 -6 -183
-6 -95 0 -203 -4 -242 -10 -38 -6 -86 -12 -105 -12 l-35 0 40 -18 c46 -20 58
-23 51 -10 -25 40 415 41 554 2 41 -12 90 -26 109 -31 37 -9 98 -55 115 -85 6
-11 16 -23 23 -28 11 -7 68 -117 66 -127 -1 -3 -4 -36 -6 -75 -5 -70 -14 -105
-26 -105 -3 -1 -25 -5 -48 -9 -24 -5 -43 -7 -43 -6 0 1 7 23 16 49 11 31 15
69 12 110 -6 93 -29 121 -147 178 -135 66 -164 71 -352 66 -88 -3 -162 -1
-165 4 -3 4 -9 8 -15 8 -20 0 -7 -25 33 -63 38 -36 71 -84 128 -183 30 -52 43
-168 27 -243 -12 -61 -15 -65 -45 -73 -20 -6 -30 -13 -26 -20 5 -8 -4 -9 -31
-5 -20 3 -39 8 -42 11 -2 2 0 21 6 43 6 21 11 53 11 70 0 43 -56 212 -79 238
-10 11 -27 36 -39 55 -22 36 -83 90 -101 90 -6 0 -11 4 -11 9 0 21 -129 18
-346 -10 l-94 -11 0 -69 c0 -61 2 -69 19 -69 10 0 29 -10 43 -22 13 -13 40
-36 59 -53 19 -16 55 -55 79 -85 25 -30 50 -60 56 -66 16 -18 61 -114 74 -160
17 -56 7 -77 -45 -105 -25 -13 -45 -27 -45 -31 0 -11 -38 -10 -45 1 -3 5 -1
12 5 16 6 4 7 11 4 17 -4 6 -1 14 6 18 7 4 9 13 5 20 -5 7 -10 31 -11 54 -3
31 -11 47 -34 67 -16 14 -30 30 -30 37 0 17 -71 114 -107 145 l-33 29 1 -444
c0 -243 3 -436 6 -428 12 31 47 73 85 100 33 24 44 27 65 19 14 -5 34 -7 44
-4 11 4 19 2 19 -5 0 -16 -46 -100 -87 -157 -13 -17 -23 -34 -23 -38 0 -9 -57
-84 -87 -113 l-23 -23 0 -789 0 -790 944 0 c746 0 946 3 950 13 5 9 7 9 12 0
4 -9 33 -13 93 -13 l88 0 7 46 c7 53 3 64 -22 57 -10 -2 -24 2 -31 10 -10 12
-7 20 13 41 23 25 24 33 20 119 -2 51 -4 118 -5 150 -1 40 -6 60 -15 64 -8 3
-14 16 -14 30 0 13 3 22 8 19 4 -2 16 2 27 10 17 13 18 16 5 24 -12 8 -10 10
10 11 16 0 19 3 10 6 -16 6 -30 23 -30 36 0 5 5 5 11 2 6 -4 5 2 -2 13 -7 12
-17 18 -21 16 -17 -10 -29 7 -16 23 10 12 9 17 -2 27 -10 7 -15 32 -16 75 -1
35 -6 66 -11 70 -16 10 -23 52 -10 57 16 6 19 74 4 75 -7 1 -18 1 -24 0 -18
-2 -16 14 3 33 9 9 12 21 7 28 -4 7 -6 22 -5 34 2 13 -6 25 -23 34 -30 16 -33
30 -5 23 11 -3 20 -2 20 2 0 11 -27 34 -34 28 -3 -4 -6 -2 -6 3 0 18 24 34 50
34 14 0 31 5 38 12 8 8 15 9 22 2 10 -10 11 -26 7 -156 -1 -49 1 -88 6 -88 4
0 7 -4 7 -10 0 -5 -8 -6 -17 -3 -13 5 -15 3 -9 -13 4 -10 10 -31 13 -46 7 -34
38 -64 48 -48 4 7 2 15 -4 19 -8 5 -8 21 -2 54 5 29 5 47 -1 47 -5 0 -6 10 -2
23 5 12 7 42 6 65 -2 29 1 41 8 37 5 -3 10 -23 10 -44 0 -29 5 -41 23 -50 12
-6 14 -9 5 -7 -16 5 -18 -2 -17 -52 0 -31 4 -84 9 -117 5 -33 11 -98 15 -145
3 -47 10 -103 15 -125 5 -22 14 -107 20 -190 7 -82 14 -161 16 -175 2 -14 6
-52 9 -85 4 -33 8 -70 11 -82 l4 -23 1385 0 1384 0 0 73 c0 40 -5 80 -11 88
-7 10 -8 4 -4 -21 l5 -35 -15 28 c-26 48 -65 24 -58 -35 4 -40 -13 -44 -21 -6
-4 18 -10 38 -14 43 -4 6 -12 22 -19 38 l-12 27 36 -15 c67 -28 67 1 0 54 -37
30 -38 31 -13 31 14 0 29 5 32 11 4 6 13 8 21 5 7 -3 16 0 20 5 3 6 17 8 30 5
l24 -6 0 199 c0 197 0 200 -22 212 -14 8 -18 14 -10 17 6 2 10 8 6 13 -3 5 2
9 11 9 13 0 14 4 4 21 -7 13 -7 19 -1 15 7 -4 11 66 11 221 0 125 -4 223 -7
217 -9 -12 -72 -16 -72 -4 0 6 5 10 11 10 8 0 7 6 -2 17 -13 15 -12 15 9 4 12
-6 22 -7 22 -2 0 5 -6 12 -12 14 -8 4 -7 6 4 6 9 1 19 -5 21 -11 3 -8 6 -6 6
5 1 9 5 17 11 17 5 0 9 90 10 230 0 190 -2 230 -14 230 -8 0 -16 7 -20 15 -4
10 1 15 14 15 20 0 20 15 20 1620 l0 1620 -1009 0 -1009 0 -5 -22 c-5 -18 -8
-19 -21 -9 -9 8 -13 17 -10 22 3 5 -278 9 -665 9 -411 0 -671 -4 -671 -9z
m990 -246 c5 3 10 -1 10 -9 0 -10 -9 -17 -22 -17 -13 -1 -33 -3 -45 -4 -12 -1
-20 2 -17 6 3 5 12 9 20 9 8 0 14 7 14 16 0 13 3 14 15 4 8 -6 19 -9 25 -5z
m-1213 -61 c-3 -3 -12 -4 -19 -1 -8 3 -5 6 6 6 11 1 17 -2 13 -5z m-57 -8 c0
-3 -35 -12 -77 -22 -81 -18 -130 -41 -175 -82 -41 -38 -46 -18 -7 27 33 38 82
61 159 74 36 6 100 8 100 3z m340 -61 c0 -8 -4 -15 -10 -15 -5 0 -10 -6 -10
-13 0 -21 -153 -88 -168 -73 -3 3 -10 2 -16 -3 -18 -14 -57 -22 -156 -31 -52
-6 -115 -13 -140 -16 -25 -3 -43 -4 -40 -1 9 9 167 47 198 47 16 0 54 9 85 19
32 11 57 18 57 17 0 -2 37 16 83 39 88 47 117 54 117 30z m-680 -35 c19 -12
13 -17 -57 -45 -63 -26 -79 -52 -28 -47 17 2 35 9 40 16 17 22 73 47 80 36 4
-6 -7 -13 -25 -16 -17 -4 -33 -11 -37 -17 -4 -7 0 -8 11 -4 48 19 67 19 86 2
29 -26 25 -42 -12 -50 -42 -9 -88 -33 -88 -45 0 -13 37 -13 45 -1 3 5 19 12
35 16 17 4 30 11 30 16 0 5 8 9 18 9 17 0 92 -87 92 -107 0 -6 -20 -16 -45
-23 -25 -7 -45 -19 -45 -26 0 -8 4 -14 9 -14 18 0 77 24 89 37 7 7 18 13 25
13 6 0 3 -6 -7 -13 -16 -11 -12 -14 36 -26 42 -11 49 -16 33 -22 -11 -4 -44
-8 -72 -8 -31 -1 -53 -6 -53 -12 0 -7 14 -9 40 -5 22 3 58 9 80 12 53 8 51 -9
-2 -24 -24 -6 -49 -16 -57 -21 -18 -12 -5 -31 21 -31 16 0 18 3 9 14 -9 11 -5
16 20 25 48 16 65 14 83 -13 17 -27 19 -26 -46 -40 -30 -7 -38 -32 -12 -38 11
-2 6 -8 -15 -21 l-31 -18 -56 59 c-30 33 -61 69 -67 82 -7 14 -50 43 -107 72
-127 66 -166 94 -201 144 -33 49 -36 45 71 103 81 43 88 45 110 31z m1660 -40
c0 -5 -5 -10 -11 -10 -5 0 -7 5 -4 10 3 6 8 10 11 10 2 0 4 -4 4 -10z m-970
-50 c0 -10 -8 -23 -17 -29 -38 -19 -154 -41 -281 -51 -72 -6 -140 -13 -150
-17 -9 -3 -14 -3 -11 1 9 10 169 52 284 75 55 11 111 24 125 30 38 15 50 13
50 -9z m20 -114 c0 -34 -4 -45 -19 -49 -14 -3 -17 0 -14 14 4 14 0 19 -13 19
-15 0 -13 4 9 18 15 9 27 22 27 29 0 7 2 13 5 13 3 0 5 -20 5 -44z m-197 -3
c-7 -2 -19 -2 -25 0 -7 3 -2 5 12 5 14 0 19 -2 13 -5z m-73 -13 c-8 -5 -26 -9
-40 -9 l-25 1 25 8 c14 4 32 8 40 9 13 1 13 0 0 -9z m2290 -43 c0 -6 -9 -2
-19 7 -11 10 -25 15 -30 11 -6 -3 -17 -3 -23 1 -9 6 -5 10 12 15 25 6 60 -14
60 -34z m-2080 -7 c-20 -13 -33 -13 -25 0 3 6 14 10 23 10 15 0 15 -2 2 -10z
m2040 6 c0 -3 -4 -8 -10 -11 -5 -3 -10 -1 -10 4 0 6 5 11 10 11 6 0 10 -2 10
-4z m-2095 -26 c-27 -12 -43 -12 -25 0 8 5 22 9 30 9 10 0 8 -3 -5 -9z m2255
3 c-1 -34 -41 -42 -46 -10 -1 12 5 17 22 17 13 0 24 -3 24 -7z m-446 -17 c-10
-8 -21 -12 -24 -10 -5 6 21 24 34 24 6 0 1 -6 -10 -14z m-1864 0 c0 -3 -4 -8
-10 -11 -5 -3 -10 -1 -10 4 0 6 5 11 10 11 6 0 10 -2 10 -4z m-90 -30 c-33
-18 -90 -28 -90 -16 0 5 17 12 38 15 20 4 42 8 47 10 25 8 28 3 5 -9z m1890 4
c0 -5 -5 -10 -11 -10 -5 0 -7 5 -4 10 3 6 8 10 11 10 2 0 4 -4 4 -10z m-1610
-30 c0 -9 -8 -16 -17 -16 -10 -1 -61 -4 -113 -9 -52 -4 -92 -4 -89 -1 8 8 167
42 198 42 12 0 21 -7 21 -16z m1896 -24 c-20 -32 -14 -44 35 -79 36 -25 39
-29 24 -43 -13 -13 -18 -14 -31 -3 -9 7 -26 18 -37 24 -15 7 -22 21 -23 43 -1
18 -8 40 -15 49 -12 15 -12 16 4 10 11 -4 24 -1 33 8 23 23 28 18 10 -9z
m-3192 -1 c20 -9 41 -13 46 -10 6 4 15 3 20 0 12 -8 -124 -105 -146 -105 -24
0 -74 29 -74 44 0 12 95 86 111 86 4 0 23 -7 43 -15z m576 -69 c0 -8 -7 -16
-15 -20 -17 -6 -18 -4 -9 18 8 20 24 21 24 2z m-100 -36 c0 -5 -2 -10 -4 -10
-3 0 -8 5 -11 10 -3 6 -1 10 4 10 6 0 11 -4 11 -10z m2847 -22 c-3 -8 -6 -5
-6 6 -1 11 2 17 5 13 3 -3 4 -12 1 -19z m-130 -25 c-3 -10 -5 -4 -5 12 0 17 2
24 5 18 2 -7 2 -21 0 -30z m-2707 17 c0 -5 -2 -10 -4 -10 -3 0 -8 5 -11 10 -3
6 -1 10 4 10 6 0 11 -4 11 -10z m198 -8 c7 -22 -27 -24 -59 -4 l-31 19 43 -1
c23 -1 44 -7 47 -14z m-175 -64 c19 -25 19 -27 1 -52 -20 -27 -31 -27 -93 3
-48 22 -49 36 -4 60 48 26 71 23 96 -11z m836 -73 c1 -16 -1 -17 -9 -5 -5 8
-9 29 -9 45 1 29 1 29 9 5 4 -14 8 -34 9 -45z m2816 -15 c3 -5 2 -10 -4 -10
-5 0 -13 5 -16 10 -3 6 -2 10 4 10 5 0 13 -4 16 -10z m-2799 -175 c-3 -5 -5
-1 -5 9 -1 10 -7 24 -15 30 -18 14 -30 66 -16 66 6 0 10 6 9 13 -1 6 0 21 1
32 1 11 9 -16 16 -60 8 -44 12 -84 10 -90z m787 158 c-7 -2 -21 -2 -30 0 -10
3 -4 5 12 5 17 0 24 -2 18 -5z m-1874 -48 c27 -28 41 -49 35 -54 -28 -27 -110
-91 -116 -91 -5 0 -8 7 -8 15 0 8 -11 25 -25 36 -22 20 -23 24 -10 43 8 11 15
26 15 34 0 20 33 61 50 62 8 0 35 -20 59 -45z m1874 18 c-7 -2 -19 -2 -25 0
-7 3 -2 5 12 5 14 0 19 -2 13 -5z m1423 -68 c-5 -18 1 -29 24 -49 17 -14 37
-23 45 -20 8 4 15 2 15 -4 0 -5 -10 -12 -22 -16 -16 -4 -31 3 -53 24 -16 16
-43 36 -60 44 -26 14 -27 16 -8 16 35 0 52 10 46 27 -5 11 -3 14 6 9 7 -5 10
-18 7 -31z m-639 -7 c-3 -8 -6 -5 -6 6 -1 11 2 17 5 13 3 -3 4 -12 1 -19z
m-2882 2 c3 -5 1 -10 -4 -10 -6 0 -11 5 -11 10 0 6 2 10 4 10 3 0 8 -4 11 -10z
m2278 -26 c-3 -8 -12 -13 -19 -10 -8 3 -14 1 -14 -4 0 -6 -5 -10 -12 -10 -6 0
-3 9 7 20 22 24 47 27 38 4z m980 -3 c-19 -16 -20 -20 -7 -33 11 -11 12 -17 2
-30 -7 -9 -22 -19 -33 -22 -16 -5 -20 -1 -22 22 -1 29 20 59 52 73 30 12 32
10 8 -10z m-3315 -36 c-6 -14 -18 -25 -27 -25 -10 0 -12 3 -5 8 6 4 13 15 17
25 3 9 11 17 16 17 7 0 6 -9 -1 -25z m1325 -12 c-7 -2 -19 -2 -25 0 -7 3 -2 5
12 5 14 0 19 -2 13 -5z m1150 -13 c4 -15 0 -20 -13 -20 -11 0 -22 5 -25 10 -3
6 0 10 7 10 9 0 9 3 -2 10 -12 8 -11 10 6 10 13 0 24 -8 27 -20z m97 -2 c0 -5
-6 -16 -14 -23 -12 -12 -16 -11 -30 9 -8 13 -13 26 -10 28 8 8 54 -4 54 -14z
m-1407 5 c-7 -2 -21 -2 -30 0 -10 3 -4 5 12 5 17 0 24 -2 18 -5z m-1098 -22
c-10 -17 26 -29 61 -21 40 9 42 4 12 -21 -28 -25 -34 -24 -64 6 -21 21 -25 45
-8 45 3 0 3 -4 -1 -9z m3324 -34 c14 -16 31 -35 39 -43 17 -18 11 -18 -23 0
-15 8 -33 12 -40 10 -16 -6 -20 1 -30 43 -6 29 -4 32 11 26 10 -4 30 -20 43
-36z m-2242 -20 c-7 -20 -15 -37 -19 -37 -7 0 5 51 17 70 13 21 14 5 2 -33z
m1268 16 l18 -28 -21 19 c-12 11 -22 23 -22 28 0 14 7 9 25 -19z m822 -30
c-30 -47 -53 -58 -35 -16 12 28 35 53 50 53 5 0 -2 -17 -15 -37z m-1006 6
c-14 -5 -28 -6 -32 -2 -4 4 6 9 24 10 30 1 31 1 8 -8z m-1501 -68 c0 -41 -4
-60 -14 -64 -20 -8 -29 51 -15 91 17 49 29 38 29 -27z m1631 36 c-10 -9 -11
-8 -5 6 3 10 9 15 12 12 3 -3 0 -11 -7 -18z m266 1 c-3 -8 -6 -5 -6 6 -1 11 2
17 5 13 3 -3 4 -12 1 -19z m-1673 -40 c5 -21 3 -28 -9 -28 -11 0 -15 11 -15
37 0 41 13 35 24 -9z m-489 -36 c-3 -16 -1 -40 4 -55 10 -25 -1 -48 -16 -34
-12 13 -15 88 -3 102 18 22 22 19 15 -13z m2072 -67 c12 0 27 -5 33 -11 7 -7
-3 -9 -31 -5 -24 3 -44 12 -47 20 -3 9 0 11 9 6 7 -5 23 -9 36 -10z m923 -85
c0 -5 -4 -10 -10 -10 -5 0 -10 5 -10 10 0 6 5 10 10 10 6 0 10 -4 10 -10z
m480 -220 c0 -5 -2 -10 -4 -10 -3 0 -8 5 -11 10 -3 6 -1 10 4 10 6 0 11 -4 11
-10z m-290 -30 c0 -5 -7 -7 -15 -4 -8 4 -15 8 -15 10 0 2 7 4 15 4 8 0 15 -4
15 -10z m-150 -62 c-25 -9 -36 -5 -26 10 3 6 16 8 28 4 l22 -5 -24 -9z m213
-41 c-3 -4 -11 -3 -18 3 -9 8 -14 6 -19 -5 -4 -11 -2 -14 6 -9 7 4 8 3 4 -4
-10 -17 -26 -15 -26 4 0 8 -5 12 -11 9 -6 -4 -5 2 2 13 7 12 16 19 20 16 4 -2
11 1 14 6 5 7 12 5 20 -7 7 -10 11 -21 8 -26z m224 -44 c-3 -10 -5 -4 -5 12 0
17 2 24 5 18 2 -7 2 -21 0 -30z m8 -43 c8 -13 -15 -13 -35 0 -12 8 -11 10 7
10 12 0 25 -4 28 -10z m-3874 -27 c13 -16 12 -17 -3 -4 -17 13 -22 21 -14 21
2 0 10 -8 17 -17z m3889 -25 c10 -3 8 -6 -7 -10 -26 -7 -48 6 -38 21 4 8 11 9
18 3 7 -5 19 -11 27 -14z m-2620 -18 c0 -5 -5 -10 -11 -10 -5 0 -7 5 -4 10 3
6 8 10 11 10 2 0 4 -4 4 -10z m4 -60 c0 -13 -5 -25 -11 -27 -8 -3 -12 6 -10
26 2 36 21 36 21 1z m-1194 10 c0 -5 -2 -10 -4 -10 -3 0 -8 5 -11 10 -3 6 -1
10 4 10 6 0 11 -4 11 -10z m3660 -72 c0 -5 6 -8 13 -7 26 3 47 -1 47 -11 0 -5
-6 -10 -14 -10 -8 0 -16 -8 -19 -17 -3 -16 -5 -16 -12 2 -4 11 -17 30 -29 43
-17 19 -17 22 -3 16 9 -3 17 -10 17 -16z m-170 2 c0 -5 -5 -10 -11 -10 -5 0
-7 5 -4 10 3 6 8 10 11 10 2 0 4 -4 4 -10z m-2263 -22 c-3 -8 -6 -5 -6 6 -1
11 2 17 5 13 3 -3 4 -12 1 -19z m-215 -64 c-3 -11 -72 -17 -72 -6 0 15 9 19
42 17 18 -1 32 -6 30 -11z m363 -234 c9 -85 19 -168 21 -185 4 -28 14 -122 30
-264 7 -63 7 -63 -14 -52 -24 13 -28 26 -12 36 9 6 7 30 -9 120 -8 39 -8 39
-18 15 -21 -49 -255 -237 -412 -330 -42 -24 -56 -28 -76 -20 -45 17 -27 83 30
116 11 6 20 22 20 35 0 17 10 29 35 41 19 10 31 18 26 18 -6 0 11 14 37 30 26
17 51 30 55 30 4 0 27 16 51 35 25 20 55 38 68 41 13 4 23 12 23 20 0 8 5 14
12 14 7 0 34 21 60 47 l47 47 10 -25 c9 -24 10 -23 10 6 0 17 2 49 5 73 3 30
-1 48 -13 64 l-18 21 -23 -34 c-13 -19 -36 -49 -52 -67 -20 -23 -28 -45 -30
-75 -1 -36 -2 -37 -5 -10 l-4 32 -98 -95 c-55 -53 -116 -107 -137 -122 -22
-14 -52 -36 -68 -49 -21 -17 -36 -23 -53 -18 -15 3 -22 2 -19 -4 4 -5 -13 -23
-36 -39 -24 -16 -52 -40 -63 -52 -25 -27 -67 -50 -95 -50 -26 0 -27 34 0 53
11 7 33 33 50 56 32 44 140 133 166 137 9 1 49 33 89 71 40 37 97 88 125 113
28 25 62 56 75 70 87 91 119 130 138 172 12 27 27 48 33 48 6 0 10 18 10 42
-1 36 -5 43 -25 48 -32 7 -38 28 -9 32 17 2 24 11 27 33 4 25 5 22 12 -20 4
-27 15 -120 24 -205z m2364 174 c-5 -16 -5 -33 3 -48 6 -14 8 -32 4 -41 -5
-15 -7 -15 -22 -1 -18 18 -30 20 -39 6 -4 -6 -11 -5 -19 3 -11 10 -7 13 23 17
34 5 36 7 33 40 -2 19 -10 47 -17 62 l-13 27 28 -21 c24 -17 27 -25 19 -44z
m-2656 47 c14 -2 7 -41 -8 -41 -8 0 -15 5 -15 10 0 6 -11 10 -25 10 -24 0 -32
10 -19 23 5 5 27 4 67 -2z m-145 -21 c23 -10 42 -25 42 -32 0 -9 3 -9 8 -2 5
8 15 7 36 -1 39 -16 17 -29 -34 -20 -25 4 -38 11 -33 17 3 6 2 8 -4 5 -17 -11
-82 13 -93 33 -9 17 -7 20 12 20 13 0 42 -9 66 -20z m176 -5 c3 -8 1 -15 -4
-15 -6 0 -10 7 -10 15 0 8 2 15 4 15 2 0 6 -7 10 -15z m-299 -19 c11 0 27 -5
35 -12 8 -6 25 -15 38 -18 12 -4 22 -11 22 -16 0 -13 -30 -20 -48 -11 -9 5
-47 21 -84 36 -38 15 -68 29 -68 30 0 2 14 3 30 3 17 -1 33 2 37 6 4 4 10 1
13 -6 3 -7 14 -13 25 -12z m-125 -13 c14 -10 29 -19 35 -20 37 -9 105 -37 105
-44 0 -8 -44 4 -97 27 -17 8 -40 14 -52 14 -12 0 -21 5 -21 10 0 6 -7 10 -16
10 -8 0 -12 5 -9 10 9 15 27 12 55 -7z m536 5 c-2 -7 -8 -26 -14 -41 -55 -134
-117 -233 -179 -287 -21 -19 -51 -53 -68 -76 -95 -134 -377 -386 -580 -520
-22 -15 -44 -33 -48 -40 -9 -16 -83 -19 -92 -4 -4 6 -16 8 -27 4 -16 -5 -10 7
23 48 24 30 56 64 70 74 15 10 68 58 119 107 52 48 101 87 110 87 30 0 334
286 410 385 86 113 104 139 124 178 16 33 30 45 61 55 22 7 43 20 48 28 10 17
46 19 43 2z m-736 -43 c0 -9 -6 -12 -15 -9 -8 4 -12 10 -9 15 8 14 24 10 24
-6z m124 6 c3 -4 23 -11 45 -15 27 -4 40 -12 44 -26 7 -26 2 -25 -57 5 -27 14
-55 25 -63 25 -7 0 -13 5 -13 10 0 12 37 13 44 1z m359 -11 c19 0 -16 -20 -35
-20 -12 0 -15 5 -11 16 3 8 12 13 20 10 8 -3 20 -6 26 -6z m-384 -35 l23 -22
-28 3 c-16 1 -33 10 -40 18 -6 9 -14 13 -17 9 -4 -3 -7 1 -7 11 0 23 36 13 69
-19z m-164 1 c-33 -7 -64 -10 -69 -7 -17 8 28 20 79 19 l50 0 -60 -12z m3170
-26 c-9 -16 -17 -30 -19 -30 -3 0 1 14 7 30 6 17 15 30 19 30 5 0 2 -13 -7
-30z m-2815 10 c0 -5 8 -6 18 -3 15 6 15 5 4 -10 -8 -8 -20 -14 -28 -11 -8 2
-21 6 -30 9 -8 3 -12 9 -9 15 8 13 45 13 45 0z m-135 -10 c3 -5 1 -10 -4 -10
-6 0 -11 5 -11 10 0 6 2 10 4 10 3 0 8 -4 11 -10z m-39 -40 c16 -1 15 -3 -6
-15 -31 -18 -43 -19 -37 -2 2 6 0 21 -6 32 -10 19 -9 19 10 3 11 -10 28 -18
39 -18z m84 20 c0 -5 -4 -10 -10 -10 -5 0 -10 5 -10 10 0 6 5 10 10 10 6 0 10
-4 10 -10z m84 -52 c-11 -37 -105 -209 -138 -255 -17 -23 -53 -73 -79 -110
-27 -38 -124 -143 -215 -234 -154 -153 -170 -166 -202 -165 -29 1 -35 5 -34
23 0 12 -2 21 -5 19 -16 -8 -48 -19 -63 -22 -30 -6 -20 15 20 40 20 13 77 59
126 102 49 44 101 89 116 101 14 12 51 53 80 92 29 39 59 72 67 75 7 3 13 12
13 20 0 8 6 19 13 23 23 15 157 227 157 249 0 12 6 27 13 33 15 12 78 28 115
30 20 1 22 -2 16 -21z m2816 -42 c0 -20 -29 -84 -30 -65 0 31 12 79 21 79 5 0
9 -6 9 -14z m-3692 -30 c-7 -8 -16 -12 -21 -9 -11 7 2 23 19 23 12 0 12 -2 2
-14z m-164 -61 c3 -10 -1 -15 -14 -15 -23 0 -35 16 -18 23 21 9 26 8 32 -8z
m-70 -24 c11 -4 15 -10 9 -14 -5 -3 -19 0 -29 8 -20 15 -11 18 20 6z m3886
-56 c-7 -8 -17 -15 -23 -15 -5 0 -2 9 8 20 21 23 35 19 15 -5z m-3450 -89 c0
-11 -46 -105 -77 -157 -42 -69 -263 -302 -290 -304 -10 -1 -38 -20 -63 -43
-25 -23 -60 -49 -79 -58 -30 -15 -35 -15 -49 0 -27 26 -22 56 12 73 17 9 66
50 109 92 197 192 267 266 267 278 0 22 29 73 42 73 6 0 19 7 29 16 19 17 99
42 99 30z m-185 -16 c3 -5 1 -10 -4 -10 -6 0 -11 5 -11 10 0 6 2 10 4 10 3 0
8 -4 11 -10z m4043 -146 c-10 -10 -28 6 -28 24 0 15 1 15 17 -1 9 -9 14 -19
11 -23z m-2516 -94 c2 -22 1 -47 -3 -56 -5 -16 -6 -16 -12 0 -10 26 -8 96 2
96 5 0 11 -18 13 -40z m-169 -10 c-3 -11 -7 -20 -9 -20 -2 0 -4 9 -4 20 0 11
4 20 9 20 5 0 7 -9 4 -20z m2807 -5 c11 -13 10 -14 -4 -9 -9 3 -16 10 -16 15
0 13 6 11 20 -6z m47 -49 c-2 -6 -19 -19 -38 -28 -19 -10 -30 -18 -25 -18 5 0
3 -7 -5 -16 -12 -14 -14 -14 -21 6 -5 15 -2 29 13 49 16 22 26 26 50 23 16 -2
28 -9 26 -16z m38 14 c3 -5 -1 -10 -10 -10 -9 0 -13 5 -10 10 3 6 8 10 10 10
2 0 7 -4 10 -10z m-2713 -142 c3 -62 1 -121 -3 -130 -12 -22 -2 -46 22 -53 26
-8 35 -33 43 -120 7 -65 6 -69 -8 -50 -16 19 -16 19 -30 1 -13 -16 -15 -13
-22 43 -8 73 -21 85 -77 65 -35 -12 -38 -12 -27 1 7 8 18 15 24 15 19 0 51 62
54 105 6 58 6 88 3 105 -2 8 -3 41 -2 73 2 100 18 62 23 -55z m2938 78 c0 -18
-16 -29 -30 -21 -6 4 -5 11 3 20 16 18 27 19 27 1z m-3097 -46 c3 -13 -1 -24
-12 -30 -15 -7 -17 -5 -13 21 5 34 17 38 25 9z m2679 -3 c4 -20 1 -23 -18 -19
-21 4 -21 5 -6 22 10 10 18 19 18 19 1 1 4 -9 6 -22z m336 -12 c1 -1 -2 -13
-7 -26 -5 -13 -10 -19 -10 -13 -1 7 -9 11 -18 10 -10 0 -18 6 -18 14 0 8 -4
19 -10 23 -5 5 6 5 25 1 19 -3 36 -7 38 -9z m19 -17 c-3 -8 -6 -5 -6 6 -1 11
2 17 5 13 3 -3 4 -12 1 -19z m-791 -25 c-10 -10 -19 5 -10 18 6 11 8 11 12 0
2 -7 1 -15 -2 -18z m137 -79 c29 -108 31 -136 3 -59 -14 39 -26 82 -26 97 0
14 -5 29 -10 31 -6 3 -5 4 2 3 7 -1 21 -34 31 -72z m554 49 c4 -11 -53 -10
-65 2 -4 4 3 4 16 1 14 -5 22 -3 22 4 0 14 22 8 27 -7z m73 7 c0 -5 -5 -10
-11 -10 -5 0 -7 5 -4 10 3 6 8 10 11 10 2 0 4 -4 4 -10z m-3069 -33 c-10 -9
-11 -8 -5 6 3 10 9 15 12 12 3 -3 0 -11 -7 -18z m2918 3 c4 0 8 -10 8 -22 1
-14 -1 -18 -6 -10 -4 6 -16 19 -27 28 -17 14 -17 15 -1 10 10 -3 22 -6 26 -6z
m91 -5 c-14 -17 -30 -20 -30 -4 0 5 4 8 9 4 5 -3 12 -1 16 5 3 5 9 10 12 10 3
0 0 -7 -7 -15z m-112 -32 c6 -6 12 -19 12 -28 0 -9 4 -14 9 -10 5 3 13 0 17
-6 4 -8 3 -9 -4 -5 -8 5 -12 -1 -13 -16 0 -23 0 -23 -9 -2 -4 12 -18 24 -31
27 -16 4 -19 3 -10 -6 6 -6 11 -16 11 -21 0 -17 -28 28 -30 49 -1 11 -2 23 -1
26 2 11 35 5 49 -8z m230 -31 c6 -18 -15 -14 -22 4 -4 10 -1 14 6 12 6 -2 14
-10 16 -16z m-293 -20 c11 -6 14 -12 8 -12 -20 0 -15 -20 5 -20 14 0 15 -2 2
-10 -10 -6 -11 -10 -2 -10 6 0 12 -4 12 -9 0 -14 -37 -1 -56 20 -13 14 -15 22
-7 30 6 6 9 19 6 28 -3 10 -2 12 4 5 4 -6 17 -16 28 -22z m320 18 c3 -5 1 -10
-4 -10 -6 0 -11 5 -11 10 0 6 2 10 4 10 3 0 8 -4 11 -10z m-3169 -50 c-7 -43
8 -62 41 -54 12 3 30 1 40 -6 16 -10 16 -10 -4 -5 -13 4 -23 2 -23 -3 0 -5 -8
-12 -17 -16 -10 -3 -25 -11 -35 -18 -23 -17 -52 6 -38 31 5 10 12 41 16 69 4
30 11 49 16 46 6 -4 7 -23 4 -44z m2734 -45 c7 -9 8 -15 2 -15 -5 0 -12 7 -16
15 -3 8 -4 15 -2 15 2 0 9 -7 16 -15z m61 -2 c13 -15 12 -15 -11 -3 -34 17
-36 20 -18 20 9 0 22 -7 29 -17z m-668 -8 c4 -8 2 -17 -3 -20 -6 -4 -10 -4
-10 -1 0 2 -3 11 -6 20 -3 9 -2 16 4 16 5 0 12 -7 15 -15z m295 -20 c-3 -3 -9
2 -12 12 -6 14 -5 15 5 6 7 -7 10 -15 7 -18z m72 0 c0 -14 -4 -25 -9 -25 -4 0
-6 11 -3 25 2 14 6 25 8 25 2 0 4 -11 4 -25z m675 15 c3 -5 1 -10 -4 -10 -6 0
-11 5 -11 10 0 6 2 10 4 10 3 0 8 -4 11 -10z m-35 -10 c0 -5 -7 -10 -16 -10
-8 0 -12 5 -9 10 3 6 10 10 16 10 5 0 9 -4 9 -10z m-60 -37 c0 -13 5 -23 10
-23 6 0 10 -4 10 -9 0 -5 -9 -7 -20 -4 -11 3 -20 9 -20 14 0 5 -5 9 -11 9 -5
0 -7 -4 -4 -10 11 -17 -12 -11 -26 8 -7 9 -9 14 -5 10 10 -9 38 10 32 21 -3 4
4 7 15 7 13 0 19 -7 19 -23z m-1690 -3 c0 -5 -4 -10 -10 -10 -5 0 -10 5 -10
10 0 6 5 10 10 10 6 0 10 -4 10 -10z m967 -12 c-3 -8 -6 -5 -6 6 -1 11 2 17 5
13 3 -3 4 -12 1 -19z m33 -19 c0 -6 -4 -7 -10 -4 -5 3 -10 11 -10 16 0 6 5 7
10 4 6 -3 10 -11 10 -16z m625 1 c16 -18 16 -20 2 -20 -10 0 -17 5 -17 10 0 6
-7 10 -16 10 -8 0 -12 5 -9 10 9 15 20 12 40 -10z m-525 6 c0 -3 -4 -8 -10
-11 -5 -3 -10 -1 -10 4 0 6 5 11 10 11 6 0 10 -2 10 -4z m-1080 -25 c0 -14 -5
-18 -20 -14 -21 5 -25 15 -13 26 13 14 33 6 33 -12z m1246 3 c27 6 28 5 10 -8
-13 -11 -24 -12 -36 -6 -10 5 -20 6 -24 3 -3 -3 -6 -2 -6 4 0 16 13 24 21 12
4 -7 18 -9 35 -5z m61 -6 c-3 -8 -6 -5 -6 6 -1 11 2 17 5 13 3 -3 4 -12 1 -19z
m-222 -18 c3 -11 21 -30 38 -42 18 -12 41 -30 51 -40 18 -16 49 -23 83 -19 6
1 15 -4 19 -10 5 -9 -1 -10 -22 -6 -31 6 -74 -7 -86 -26 -4 -7 -8 -28 -8 -47
l-1 -35 -18 22 c-10 12 -21 19 -25 16 -3 -4 -6 2 -6 13 -1 26 -20 50 -48 58
-12 4 -22 11 -22 15 0 12 -119 13 -157 2 -19 -6 -33 -6 -35 0 -2 5 -32 11 -67
14 -35 3 -68 8 -72 11 -24 15 0 19 93 16 118 -3 204 17 240 55 26 28 35 29 43
3z m-2485 0 c0 -5 -2 -10 -4 -10 -3 0 -8 5 -11 10 -3 6 -1 10 4 10 6 0 11 -4
11 -10z m2637 -13 c12 1 24 -5 27 -13 6 -16 -10 -29 -19 -15 -3 6 -12 8 -19 5
-7 -3 -16 2 -20 11 -3 9 -10 13 -16 10 -5 -3 -10 -1 -10 5 0 8 6 9 18 4 9 -4
27 -7 39 -7z m348 3 c3 -5 1 -10 -4 -10 -6 0 -11 5 -11 10 0 6 2 10 4 10 3 0
8 -4 11 -10z m-2671 -75 c5 -45 4 -66 -3 -60 -9 10 -14 52 -12 109 2 47 8 27
15 -49z m1561 48 c9 -12 24 -17 48 -15 31 3 35 1 30 -16 -3 -14 -24 -26 -71
-41 -78 -25 -85 -29 -100 -57 -17 -33 -4 -74 24 -74 13 0 13 2 -1 16 -21 21
-14 27 17 15 21 -8 24 -14 20 -40 -4 -28 -22 -45 -22 -21 0 6 -5 10 -12 10 -9
0 -9 -3 0 -12 7 -7 12 -22 12 -34 0 -13 7 -29 15 -38 8 -8 15 -20 15 -27 0
-22 -28 11 -40 47 -6 19 -19 40 -29 46 -10 7 -24 24 -31 37 -7 14 -21 34 -31
45 -38 40 -21 97 29 95 13 0 11 -3 -5 -11 -23 -11 -33 -58 -13 -58 6 0 10 5
10 10 0 6 7 10 15 10 8 0 15 5 15 10 0 6 9 10 20 10 25 0 26 17 3 23 -10 3 -1
5 20 6 30 1 37 5 37 21 0 11 -7 20 -16 20 -8 0 -12 5 -9 10 4 6 11 8 16 5 5
-4 9 1 9 9 0 21 10 20 25 -1z m1071 4 c4 -4 0 -7 -9 -7 -9 0 -18 4 -21 9 -7
10 20 9 30 -2z m-869 -13 c-3 -3 -12 -4 -19 -1 -8 3 -5 6 6 6 11 1 17 -2 13
-5z m1043 -24 c0 -13 -11 -13 -30 0 -12 8 -11 10 8 10 12 0 22 -4 22 -10z m55
0 c3 -5 1 -10 -4 -10 -6 0 -11 5 -11 10 0 6 2 10 4 10 3 0 8 -4 11 -10z m-565
-10 c0 -5 -2 -10 -4 -10 -3 0 -8 5 -11 10 -3 6 -1 10 4 10 6 0 11 -4 11 -10z
m-2508 -50 c-2 -16 -8 -30 -12 -30 -11 0 -21 46 -14 64 10 27 31 0 26 -34z
m2737 36 c11 -14 6 -15 -27 -7 -4 1 8 21 12 21 2 0 9 -6 15 -14z m208 2 c15
-6 33 -12 38 -12 10 -1 19 -16 10 -16 -48 0 -76 3 -61 7 18 5 18 6 -5 19 -30
16 -20 18 18 2z m-207 -57 c73 -36 77 -37 59 -14 -12 15 -12 16 4 10 10 -4 26
-7 35 -8 10 0 12 -3 5 -6 -18 -7 7 -43 29 -43 10 0 18 -5 18 -10 0 -6 -11 -8
-26 -4 -19 5 -25 4 -20 -5 4 -6 2 -11 -4 -11 -7 0 -10 5 -8 12 3 7 -22 25 -56
41 -33 15 -63 32 -66 36 -10 16 -50 23 -50 9 0 -9 -3 -9 -8 -2 -4 6 -20 16
-37 23 -29 11 -28 11 16 7 26 -2 75 -17 109 -35z m-417 -11 c-3 -11 -7 -20 -9
-20 -2 0 -4 9 -4 20 0 11 4 20 9 20 5 0 7 -9 4 -20z m290 13 c-7 -2 -19 -2
-25 0 -7 3 -2 5 12 5 14 0 19 -2 13 -5z m-2700 -52 c3 -24 2 -40 -3 -35 -9 9
-13 36 -11 68 2 30 8 16 14 -33z m3047 29 c12 -12 33 -20 54 -20 20 0 44 -9
57 -21 23 -19 23 -20 2 -9 -22 10 -22 10 -20 -69 3 -83 -1 -88 -37 -43 -10 12
-21 21 -24 18 -3 -3 -11 3 -19 14 -8 11 -20 20 -26 20 -7 0 -20 13 -30 29
l-17 29 35 -10 c19 -6 32 -16 28 -21 -3 -5 0 -8 8 -5 8 3 14 13 14 23 0 10 -6
20 -14 23 -9 3 -11 0 -6 -8 5 -9 4 -11 -4 -6 -6 4 -9 11 -6 15 2 5 -2 17 -10
27 -27 36 -17 46 15 14z m-2980 -32 c0 -6 -6 -5 -15 2 -8 7 -15 14 -15 16 0 2
7 1 15 -2 8 -4 15 -11 15 -16z m1520 3 c0 -29 -23 -43 -45 -27 -25 18 -13 46
20 46 18 0 25 -5 25 -19z m897 -33 c-3 -8 -6 -5 -6 6 -1 11 2 17 5 13 3 -3 4
-12 1 -19z m-763 -4 c3 -8 2 -12 -4 -9 -6 3 -10 10 -10 16 0 14 7 11 14 -7z
m-1717 -36 c-3 -8 -6 -5 -6 6 -1 11 2 17 5 13 3 -3 4 -12 1 -19z m1696 16 c-7
-3 -9 -12 -6 -20 3 -8 0 -14 -7 -14 -6 0 -8 5 -5 10 9 14 -8 13 -23 -2 -9 -9
-12 -8 -12 6 0 9 4 15 9 11 5 -3 12 -1 16 5 3 5 14 10 23 9 10 0 12 -3 5 -5z
m677 -5 c0 -4 -6 -9 -13 -12 -8 -3 -14 0 -14 7 0 7 6 13 14 13 7 0 13 -4 13
-8z m80 -14 c0 -8 -4 -15 -8 -15 -5 0 -9 7 -9 15 0 8 4 15 9 15 4 0 8 -7 8
-15z m480 5 c0 -5 -4 -10 -10 -10 -5 0 -10 5 -10 10 0 6 5 10 10 10 6 0 10 -4
10 -10z m-3339 -37 c12 -15 12 -16 -4 -10 -11 4 -16 3 -12 -3 9 -15 -6 -120
-17 -120 -6 0 -8 7 -4 15 3 9 0 15 -9 15 -8 0 -15 5 -15 11 0 5 4 8 9 5 9 -6
21 16 21 37 0 8 -3 8 -8 -1 -7 -9 -15 -10 -35 -3 -15 6 -27 7 -27 2 0 -5 7
-11 15 -15 8 -3 12 -12 9 -20 -5 -12 -11 -12 -45 3 -44 18 -48 26 -19 34 11 3
20 13 20 22 0 9 4 14 10 10 5 -3 19 0 32 6 13 7 30 16 38 20 22 11 26 11 41
-8z m2882 2 c-3 -9 -8 -14 -10 -11 -3 3 -2 9 2 15 9 16 15 13 8 -4z m217 0
c11 -13 9 -15 -11 -11 -13 3 -26 5 -29 5 -4 1 21 20 26 21 1 0 7 -7 14 -15z
m-420 1 c0 -11 -19 -15 -25 -6 -3 5 1 10 9 10 9 0 16 -2 16 -4z m766 -11 c-3
-8 -2 -15 2 -15 4 0 8 -9 8 -20 0 -25 -11 -26 -22 -2 -13 30 -12 52 3 52 9 0
13 -6 9 -15z m-1351 -5 c-3 -5 -12 -10 -20 -10 -8 0 -17 5 -20 10 -4 6 5 10
20 10 15 0 24 -4 20 -10z m50 -20 c17 2 18 -33 1 -42 -9 -5 -16 -14 -16 -19 0
-6 5 -7 10 -4 6 3 10 2 10 -4 0 -6 -11 -13 -24 -17 -18 -4 -23 -11 -19 -27 4
-20 3 -20 -7 -4 -6 10 -9 24 -6 32 2 7 -2 16 -10 19 -8 3 -14 12 -14 20 0 10
6 13 17 9 10 -4 14 -2 10 4 -9 15 18 24 32 10 6 -6 14 -7 18 -4 4 4 -3 14 -15
23 -12 8 -19 20 -15 27 4 7 9 5 13 -7 3 -10 10 -17 15 -16z m950 0 c3 -6 -1
-7 -9 -4 -18 7 -21 14 -7 14 6 0 13 -4 16 -10z m-95 -22 c0 -6 -7 -7 -16 -4
-9 3 -21 6 -27 6 -7 0 -7 4 2 9 16 10 41 4 41 -11z m407 -4 c3 -8 0 -21 -6
-27 -9 -9 -11 -8 -5 7 5 12 4 17 -3 13 -5 -3 -10 0 -10 8 0 20 16 19 24 -1z
m-150 0 c-3 -3 -12 -4 -19 -1 -8 3 -5 6 6 6 11 1 17 -2 13 -5z m-302 -33 c-6
-5 -25 10 -25 20 0 5 6 4 14 -3 8 -7 12 -15 11 -17z m70 15 c-11 -8 -24 -12
-29 -8 -5 3 -1 9 10 13 31 12 39 10 19 -5z m465 -17 c0 -5 -4 -9 -10 -9 -5 0
-10 7 -10 16 0 8 5 12 10 9 6 -3 10 -10 10 -16z m-430 1 c0 -5 -4 -10 -9 -10
-6 0 -13 5 -16 10 -3 6 1 10 9 10 9 0 16 -4 16 -10z m398 -7 c6 -10 6 -28 1
-40 -12 -33 -17 -28 -15 12 1 19 -3 37 -9 39 -5 3 -5 5 2 5 7 1 16 -7 21 -16z
m-3678 -2 c0 -6 -4 -13 -10 -16 -5 -3 -10 1 -10 9 0 9 5 16 10 16 6 0 10 -4
10 -9z m700 -24 c0 -18 -2 -19 -10 -7 -13 20 -13 43 0 35 6 -3 10 -16 10 -28z
m2466 16 c-15 -4 -16 -7 -5 -14 11 -7 11 -9 -3 -9 -18 0 -23 11 -11 23 3 4 13
6 22 6 12 -1 11 -3 -3 -6z m-3142 -19 c3 -8 2 -12 -4 -9 -6 3 -10 10 -10 16 0
14 7 11 14 -7z m2156 8 c0 -8 42 -58 82 -99 13 -13 34 -23 48 -23 22 -1 23 -2
7 -11 -9 -6 -26 -7 -37 -4 -24 8 -80 65 -80 82 0 6 -9 15 -20 18 -11 3 -20 11
-20 17 0 6 -6 6 -15 -2 -18 -15 -20 1 -3 18 13 13 38 16 38 4z m822 -24 c-7
-7 -12 -8 -12 -2 0 14 12 26 19 19 2 -3 -1 -11 -7 -17z m-642 8 c0 -3 -4 -8
-10 -11 -5 -3 -10 -1 -10 4 0 6 5 11 10 11 6 0 10 -2 10 -4z m-88 -28 c-7 -7
-12 -8 -12 -2 0 14 12 26 19 19 2 -3 -1 -11 -7 -17z m164 -25 c-11 -11 -17 4
-9 23 7 18 8 18 11 1 2 -10 1 -21 -2 -24z m484 27 c0 -5 -2 -10 -4 -10 -3 0
-8 5 -11 10 -3 6 -1 10 4 10 6 0 11 -4 11 -10z m29 -19 c-19 -20 -35 -27 -49
-24 -28 8 -25 23 5 23 14 0 28 7 31 15 4 8 14 15 24 15 15 0 13 -5 -11 -29z
m-662 -16 c-15 -16 -19 -13 -11 9 3 9 10 13 15 10 5 -3 3 -11 -4 -19z m-2418
-26 c12 -40 8 -71 -5 -33 -3 10 -10 29 -15 42 -11 28 -11 32 -1 32 5 0 14 -18
21 -41z m3221 11 c0 -5 -7 -10 -15 -10 -8 0 -15 5 -15 10 0 6 7 10 15 10 8 0
15 -4 15 -10z m-140 -35 c15 -8 37 -26 48 -40 11 -14 25 -25 31 -25 6 0 11 -4
11 -10 0 -5 14 -17 30 -25 35 -18 32 -35 -5 -28 -13 3 -22 9 -19 14 3 5 -6 13
-19 18 -13 5 -27 19 -30 31 -3 12 -10 19 -15 16 -5 -3 -12 4 -15 15 -4 15 -11
19 -25 15 -14 -5 -21 -1 -25 14 -6 24 -4 24 33 5z m144 0 c3 -9 0 -15 -9 -15
-8 0 -15 7 -15 15 0 8 4 15 9 15 5 0 11 -7 15 -15z m-2460 -20 c-4 -8 -8 -15
-10 -15 -2 0 -4 7 -4 15 0 8 4 15 10 15 5 0 7 -7 4 -15z m1836 5 c0 -5 -4 -10
-10 -10 -5 0 -10 -8 -10 -17 0 -12 -3 -14 -10 -7 -14 14 -2 44 16 44 8 0 14
-4 14 -10z m-230 -10 c0 -5 -7 -10 -15 -10 -8 0 -15 5 -15 10 0 6 7 10 15 10
8 0 15 -4 15 -10z m-2450 -53 c0 -5 -4 -5 -10 -2 -5 3 -10 14 -10 23 0 15 2
15 10 2 5 -8 10 -19 10 -23z m4004 8 c-4 -8 -8 -15 -10 -15 -2 0 -4 7 -4 15 0
8 4 15 10 15 5 0 7 -7 4 -15z m-4156 -19 c-1 -14 -6 -22 -10 -20 -12 7 -10 44
2 44 5 0 9 -11 8 -24z m3782 -6 c0 -5 -2 -10 -4 -10 -3 0 -8 5 -11 10 -3 6 -1
10 4 10 6 0 11 -4 11 -10z m-156 -16 c9 -24 2 -26 -12 -4 -7 11 -8 20 -3 20 5
0 12 -7 15 -16z m-68 -26 c33 -19 34 -38 1 -25 -7 2 -16 5 -20 5 -9 1 -37 28
-37 36 0 11 19 6 56 -16z m-996 -20 c0 -13 -23 -5 -28 10 -2 7 2 10 12 6 9 -3
16 -11 16 -16z m1065 -8 c3 -5 -1 -10 -9 -10 -9 0 -16 5 -16 10 0 6 4 10 9 10
6 0 13 -4 16 -10z m85 -30 c30 -26 39 -39 28 -40 -9 0 -25 10 -35 23 -10 12
-29 30 -43 40 -15 10 -19 17 -10 17 8 0 35 -18 60 -40z m-1190 -60 c0 -5 -5
-10 -11 -10 -5 0 -7 5 -4 10 3 6 8 10 11 10 2 0 4 -4 4 -10z m973 -5 c12 -11
17 -12 20 -2 3 7 6 5 6 -5 1 -21 -3 -22 -30 -8 -15 9 -19 7 -17 -7 5 -65 -13
-84 -31 -31 -9 24 -8 34 1 40 7 4 9 8 3 8 -11 0 15 20 27 20 4 0 13 -7 21 -15z
m157 6 c0 -12 -20 -25 -27 -18 -7 7 6 27 18 27 5 0 9 -4 9 -9z m136 -12 c19
-22 19 -22 -3 -10 -13 6 -23 16 -23 21 0 15 5 12 26 -11z m-106 -28 c0 -14 -2
-14 -11 -1 -8 11 -12 12 -16 2 -2 -6 -9 -9 -14 -6 -15 9 10 34 27 27 8 -3 14
-13 14 -22z m234 -42 c26 -29 29 -56 4 -31 -7 7 -23 12 -37 13 l-26 1 25 7
c25 8 25 8 -10 24 -33 14 -33 15 -9 16 17 1 35 -10 53 -30z m-2813 -159 c-8
-58 -17 -29 -19 60 l-1 65 13 -40 c8 -24 11 -58 7 -85z m2464 -10 c3 -5 1 -10
-4 -10 -6 0 -11 5 -11 10 0 6 2 10 4 10 3 0 8 -4 11 -10z m-655 -4 c0 -3 -4
-8 -10 -11 -5 -3 -10 -1 -10 4 0 6 5 11 10 11 6 0 10 -2 10 -4z m690 -26 c0
-5 -2 -10 -4 -10 -3 0 -8 5 -11 10 -3 6 -1 10 4 10 6 0 11 -4 11 -10z m-1927
-110 c3 -11 1 -18 -4 -14 -5 3 -9 12 -9 20 0 20 7 17 13 -6z"/>
<path d="M1047 4363 c-9 -9 -9 -33 1 -33 4 0 18 9 32 20 l25 20 -26 0 c-14 0
-29 -3 -32 -7z"/>
<path d="M3680 3710 c0 -5 7 -10 15 -10 8 0 15 5 15 10 0 6 -7 10 -15 10 -8 0
-15 -4 -15 -10z"/>
<path d="M1905 2450 c-3 -5 -1 -10 4 -10 6 0 11 5 11 10 0 6 -2 10 -4 10 -3 0
-8 -4 -11 -10z"/>
<path d="M1935 2110 c3 -5 8 -10 11 -10 2 0 4 5 4 10 0 6 -5 10 -11 10 -5 0
-7 -4 -4 -10z"/>
<path d="M4830 1640 c0 -13 11 -13 30 0 12 8 11 10 -7 10 -13 0 -23 -4 -23
-10z"/>
<path d="M4050 1180 c0 -13 20 -13 40 0 12 8 9 10 -12 10 -16 0 -28 -4 -28
-10z"/>
<path d="M4338 1153 c7 -3 16 -2 19 1 4 3 -2 6 -13 5 -11 0 -14 -3 -6 -6z"/>
<path d="M1327 933 c-10 -9 -9 -23 2 -23 5 0 11 7 15 15 5 15 -5 20 -17 8z"/>
<path d="M80 4980 c0 -5 5 -10 11 -10 5 0 7 5 4 10 -3 6 -8 10 -11 10 -2 0 -4
-4 -4 -10z"/>
<path d="M559 3026 c26 -28 31 -31 31 -17 0 5 -12 17 -27 26 l-28 18 24 -27z"/>
<path d="M0 3022 c0 -9 197 -23 209 -15 14 10 -21 17 -109 21 -66 3 -100 1
-100 -6z"/>
<path d="M2000 1165 c0 -14 5 -25 10 -25 6 0 10 11 10 25 0 14 -4 25 -10 25
-5 0 -10 -11 -10 -25z"/>
<path d="M2012 1100 c2 -16 0 -32 -6 -34 -6 -2 -3 -5 7 -5 13 -1 17 7 17 34 0
19 -5 35 -11 35 -7 0 -10 -12 -7 -30z"/>
<path d="M1995 1000 c4 -6 11 -8 16 -5 14 9 11 15 -7 15 -8 0 -12 -5 -9 -10z"/>
<path d="M2090 801 c0 -6 5 -13 10 -16 6 -3 10 1 10 9 0 9 -4 16 -10 16 -5 0
-10 -4 -10 -9z"/>
<path d="M2090 498 c0 -7 5 -20 10 -28 8 -12 10 -11 10 7 0 12 -4 25 -10 28
-5 3 -10 0 -10 -7z"/>
<path d="M2099 434 c-11 -14 -11 -18 2 -28 9 -6 14 -17 12 -23 -3 -7 0 -13 6
-13 6 0 11 6 11 14 0 8 6 17 13 20 10 5 10 7 0 12 -7 3 -13 12 -13 20 0 19
-14 18 -31 -2z"/>
<path d="M2102 351 c2 -7 7 -12 11 -12 12 1 9 15 -3 20 -7 2 -11 -2 -8 -8z"/>
<path d="M2100 295 c0 -8 5 -15 10 -15 6 0 10 7 10 15 0 8 -4 15 -10 15 -5 0
-10 -7 -10 -15z"/>
<path d="M2134 76 c3 -14 2 -28 -4 -31 -5 -3 -10 -15 -10 -26 0 -16 6 -20 26
-17 31 3 56 34 38 46 -6 4 -14 17 -18 30 -10 32 -40 30 -32 -2z"/>
</g>
</svg>
